<svg width="66" height="63" fill="none" xmlns="http://www.w3.org/2000/svg"><path d="M17.35 62.726H3.124l2.845-5.69-2.845-5.69H17.35v11.38Z" fill="url(#a)"/><path d="M62.875 62.726H48.648v-11.38h14.227l-2.846 5.69 2.846 5.69Z" fill="url(#b)"/><path d="M.28 7.249c0 4.694 3.84 8.535 8.535 8.535h9.958V7.249H.28Z" fill="#6AD3F0"/><mask id="c" style="mask-type:luminance" maskUnits="userSpaceOnUse" x="0" y="7" width="19" height="9"><path d="M.28 7.249c0 4.694 3.84 8.535 8.535 8.535h9.958V7.249H.28Z" fill="#fff"/></mask><g mask="url(#c)"><path d="M18.773 7.249H.28v8.535h18.494V7.249Z" fill="#6AD3F0"/></g><path d="M3.124 15.784c0 4.694 3.841 8.535 8.536 8.535h7.113v-8.535H3.124Z" fill="#6AD3F0"/><mask id="d" style="mask-type:luminance" maskUnits="userSpaceOnUse" x="3" y="15" width="16" height="10"><path d="M3.124 15.784c0 4.694 3.841 8.535 8.536 8.535h7.113v-8.535H3.124Z" fill="#fff"/></mask><g mask="url(#d)"><path d="M18.773 15.784H3.124v8.535h15.649v-8.535Z" fill="#6AD3F0"/></g><path d="M5.97 24.319c0 4.694 3.84 8.535 8.535 8.535h4.268v-8.535H5.97Z" fill="#6AD3F0"/><mask id="e" style="mask-type:luminance" maskUnits="userSpaceOnUse" x="5" y="24" width="14" height="9"><path d="M5.97 24.319c0 4.694 3.842 8.535 8.537 8.535h4.267v-8.535H5.971Z" fill="#fff"/></mask><g mask="url(#e)"><path d="M18.774 24.319H5.971v8.535h12.803v-8.535Z" fill="#6AD3F0"/></g><path d="M47.227 7.249v8.535h9.958c4.695 0 8.536-3.84 8.536-8.535H47.227Z" fill="#6AD3F0"/><mask id="f" style="mask-type:luminance" maskUnits="userSpaceOnUse" x="47" y="7" width="19" height="9"><path d="M47.227 7.249v8.535h9.958c4.695 0 8.536-3.84 8.536-8.535H47.227Z" fill="#fff"/></mask><g mask="url(#f)"><path d="M65.72 7.249H47.228v8.535H65.72V7.249Z" fill="#6AD3F0"/></g><path d="M47.227 15.784v8.535h7.113c4.694 0 8.535-3.84 8.535-8.535H47.228Z" fill="#6AD3F0"/><mask id="g" style="mask-type:luminance" maskUnits="userSpaceOnUse" x="47" y="15" width="16" height="10"><path d="M47.227 15.784v8.535h7.113c4.694 0 8.535-3.84 8.535-8.535H47.228Z" fill="#fff"/></mask><g mask="url(#g)"><path d="M62.876 15.784h-15.65v8.535h15.65v-8.535Z" fill="#6AD3F0"/></g><path d="M47.227 24.319v8.535h4.268c4.694 0 8.535-3.841 8.535-8.535H47.227Z" fill="#6AD3F0"/><mask id="h" style="mask-type:luminance" maskUnits="userSpaceOnUse" x="47" y="24" width="14" height="9"><path d="M47.227 24.319v8.535h4.268c4.694 0 8.535-3.841 8.535-8.535H47.227Z" fill="#fff"/></mask><g mask="url(#h)"><path d="M60.03 24.319H47.227v8.535H60.03v-8.535Z" fill="#6AD3F0"/></g><mask id="i" style="mask-type:luminance" maskUnits="userSpaceOnUse" x="13" y="0" width="40" height="40"><path d="M13.083 20.051c0 10.954 8.963 19.915 19.917 19.915 10.954 0 19.917-8.962 19.917-19.915S43.954.137 33 .137c-10.954 0-19.917 8.82-19.917 19.914Z" fill="#fff"/></mask><g mask="url(#i)"><path d="M52.917.137H13.083v39.83h39.834V.136Z" fill="url(#j)"/></g><path d="M47.226 20.051c0-7.823-6.402-14.224-14.226-14.224-7.825 0-14.227 6.4-14.227 14.224S25.175 34.276 33 34.276c7.824 0 14.226-6.401 14.226-14.225Z" fill="url(#k)"/><mask id="l" style="mask-type:luminance" maskUnits="userSpaceOnUse" x="10" y="42" width="46" height="16"><path d="M55.761 42.811H10.237v14.225h45.524V42.81Z" fill="#fff"/></mask><g mask="url(#l)"><path d="M55.761 42.811H10.237v14.225h45.524V42.81Z" fill="url(#m)"/></g><path d="m10.237 57.036 7.114 5.69v-5.69h-7.114ZM55.762 57.036l-7.114 5.69v-5.69h7.114Z" fill="#0668CB"/><path d="M47.225 48.501H18.772c-.853 0-1.422-.569-1.422-1.422 0-.427.284-1.423 1.422-1.423h28.453c.853 0 1.422.569 1.422 1.422 0 .285-.284 1.423-1.422 1.423ZM40.113 54.19H25.887c-.854 0-1.423-.568-1.423-1.421 0-.427.284-1.423 1.423-1.423h14.226c.853 0 1.422.569 1.422 1.423 0 .284-.284 1.422-1.422 1.422Z" fill="#F0F7FC"/><path d="m32.289 10.663-2.703 5.405-5.833.854c-.712.142-.854.853-.427 1.422l4.268 4.126-.996 5.832c-.142.711.57 1.138 1.138.853L33 26.31c5.833 2.988 5.406 2.845 5.69 2.845.57 0 .854-.427.854-.995l-.996-5.833 4.268-4.125c.427-.427.285-1.28-.427-1.422l-5.975-.854-2.703-5.405a.782.782 0 0 0-.711-.427c-.285 0-.57.427-.711.569Z" fill="#E9EFFF"/><mask id="n" style="mask-type:luminance" maskUnits="userSpaceOnUse" x="23" y="10" width="21" height="20"><path d="m32.289 10.663-2.703 5.405-5.833.854c-.712.142-.854.854-.427 1.422l4.268 4.126-.996 5.832c-.142.711.57 1.138 1.138.853L33 26.31c5.833 2.988 5.406 2.845 5.69 2.845.57 0 .854-.426.854-.995l-.996-5.833 4.268-4.125c.427-.427.285-1.28-.427-1.422l-5.975-.854-2.703-5.405a.782.782 0 0 0-.711-.427c-.285 0-.57.427-.711.57Z" fill="#fff"/></mask><g mask="url(#n)"><path d="M43.1 10.379H22.757v19.203H43.1V10.38Z" fill="#E9EFFF"/></g><defs><linearGradient id="a" x1="3.124" y1="56.965" x2="17.35" y2="56.965" gradientUnits="userSpaceOnUse"><stop offset=".101" stop-color="#00D0EC"/><stop offset=".251" stop-color="#09C5ED"/><stop offset=".512" stop-color="#21A9F0"/><stop offset=".851" stop-color="#477BF5"/><stop offset="1" stop-color="#5A65F7"/></linearGradient><linearGradient id="b" x1="48.648" y1="56.965" x2="62.875" y2="56.965" gradientUnits="userSpaceOnUse"><stop offset=".101" stop-color="#00D0EC"/><stop offset=".251" stop-color="#09C5ED"/><stop offset=".512" stop-color="#21A9F0"/><stop offset=".851" stop-color="#477BF5"/><stop offset="1" stop-color="#5A65F7"/></linearGradient><linearGradient id="j" x1="13.083" y1="19.979" x2="52.917" y2="19.979" gradientUnits="userSpaceOnUse"><stop offset=".101" stop-color="#B2EA20"/><stop offset=".39" stop-color="#AFE71D"/><stop offset=".643" stop-color="#A4DE16"/><stop offset=".88" stop-color="#92CF09"/><stop offset="1" stop-color="#86C500"/></linearGradient><linearGradient id="k" x1="18.773" y1="19.98" x2="47.226" y2="19.98" gradientUnits="userSpaceOnUse"><stop offset=".101" stop-color="#00D0EC"/><stop offset=".251" stop-color="#09C5ED"/><stop offset=".512" stop-color="#21A9F0"/><stop offset=".851" stop-color="#477BF5"/><stop offset="1" stop-color="#5A65F7"/></linearGradient><linearGradient id="m" x1="32.998" y1="56.964" x2="32.998" y2="42.739" gradientUnits="userSpaceOnUse"><stop offset=".101" stop-color="#00D0EC"/><stop offset=".251" stop-color="#09C5ED"/><stop offset=".512" stop-color="#21A9F0"/><stop offset=".851" stop-color="#477BF5"/><stop offset="1" stop-color="#5A65F7"/></linearGradient></defs></svg>