<svg width="53" height="64" fill="none" xmlns="http://www.w3.org/2000/svg"><mask id="a" style="mask-type:luminance" maskUnits="userSpaceOnUse" x="0" y="0" width="45" height="59"><path d="M5.904.48C2.883.48.41 2.953.41 5.974v46.68c0 3.02 2.472 5.492 5.493 5.492h32.954c3.021 0 5.493-2.471 5.493-5.492V5.973c0-3.02-2.472-5.492-5.493-5.492H5.904Z" fill="#fff"/></mask><g mask="url(#a)"><path d="M44.35.48H.412v57.665h43.94V.481Z" fill="url(#b)"/></g><path d="M38.859 54.026H5.904c-.824 0-1.373-.549-1.373-1.373V5.973c0-.824.55-1.373 1.373-1.373H38.86c.824 0 1.373.549 1.373 1.373v46.68c0 .687-.55 1.373-1.373 1.373Z" fill="#F0F7FC"/><path d="M15.516 32.059h-5.492c-.824 0-1.374-.55-1.374-1.373 0-.412.275-1.373 1.373-1.373h5.493c.824 0 1.373.55 1.373 1.373 0 .275-.275 1.373-1.373 1.373ZM34.739 32.059H21.008c-.824 0-1.373-.55-1.373-1.373 0-.412.274-1.373 1.373-1.373h13.731c.824 0 1.373.55 1.373 1.373 0 .275-.275 1.373-1.373 1.373ZM15.516 38.924h-5.492c-.824 0-1.374-.55-1.374-1.373 0-.412.275-1.373 1.373-1.373h5.493c.824 0 1.373.55 1.373 1.373 0 .274-.275 1.373-1.373 1.373ZM34.739 38.924H21.008c-.824 0-1.373-.55-1.373-1.373 0-.412.274-1.373 1.373-1.373h13.731c.824 0 1.373.55 1.373 1.373 0 .274-.275 1.373-1.373 1.373Z" fill="#D7E9F7"/><path d="M34.74 54.026v9.611l6.865-2.746 6.865 2.746v-9.61H34.74Z" fill="#6AD3F0"/><mask id="c" style="mask-type:luminance" maskUnits="userSpaceOnUse" x="34" y="54" width="15" height="10"><path d="M34.74 54.026v9.611l6.865-2.746 6.865 2.746v-9.61H34.74Z" fill="#fff"/></mask><g mask="url(#c)"><path d="M48.47 54.026H34.74v9.611h13.73v-9.61Z" fill="#6AD3F0"/></g><mask id="d" style="mask-type:luminance" maskUnits="userSpaceOnUse" x="30" y="34" width="23" height="23"><path d="M30.618 45.788c0 6.042 4.943 10.984 10.985 10.984S52.588 51.83 52.588 45.79s-4.943-10.984-10.985-10.984-10.985 4.805-10.985 10.983Z" fill="#fff"/></mask><g mask="url(#d)"><path d="M52.588 34.805h-21.97v21.967h21.97V34.805Z" fill="url(#e)"/></g><path d="M49.844 45.789c0-4.531-3.707-8.238-8.238-8.238s-8.239 3.707-8.239 8.238c0 4.53 3.708 8.237 8.239 8.237 4.531 0 8.238-3.707 8.238-8.237Z" fill="url(#f)"/><path d="M10.024 49.907a1.372 1.372 0 0 1-1.099-2.196l2.746-4.12c.55-.823 1.786-.823 2.335 0l1.785 2.747 1.51-1.51c.55-.55 1.373-.55 1.923 0l2.334 2.333h2.197c.824 0 1.373.55 1.373 1.373 0 .824-.55 1.373-1.373 1.373h-2.746c-.687 0-.962-.411-2.747-2.196l-1.785 1.785c-.686.686-1.647.549-2.06-.275L12.77 46.75l-1.648 2.471c-.274.412-.686.687-1.098.687Z" fill="#B4CDE1"/><path d="M41.606 49.907c-.687 0-.824-.274-3.708-3.157a1.327 1.327 0 0 1 0-1.922c.55-.55 1.373-.55 1.923 0l1.785 1.784 3.158-3.157c.55-.55 1.373-.55 1.922 0 .55.549.55 1.373 0 1.922l-4.12 4.118c-.274.275-.548.412-.96.412Z" fill="#F0F7FC"/><mask id="g" style="mask-type:luminance" maskUnits="userSpaceOnUse" x="14" y="8" width="17" height="17"><path d="m21.832 9.268-2.197 4.393-4.943.687c-.55.137-.687.686-.412 1.098l3.57 3.433-.824 4.805c-.137.55.55.961.961.686l4.394-2.334c4.806 2.472 4.394 2.334 4.669 2.334.412 0 .686-.412.686-.823l-.823-4.806 3.57-3.432c.412-.412.137-1.098-.412-1.098l-4.944-.55-2.197-4.393c-.137-.275-.411-.275-.549-.275-.274-.137-.549 0-.549.275Z" fill="#fff"/></mask><g mask="url(#g)"><path d="M30.894 8.856h-16.89v15.926h16.89V8.856Z" fill="url(#h)"/></g><defs><linearGradient id="b" x1="22.384" y1="58.091" x2="22.384" y2=".427" gradientUnits="userSpaceOnUse"><stop offset=".101" stop-color="#00D0EC"/><stop offset=".251" stop-color="#09C5ED"/><stop offset=".512" stop-color="#21A9F0"/><stop offset=".851" stop-color="#477BF5"/><stop offset="1" stop-color="#5A65F7"/></linearGradient><linearGradient id="e" x1="30.617" y1="45.73" x2="52.587" y2="45.73" gradientUnits="userSpaceOnUse"><stop offset=".101" stop-color="#B2EA20"/><stop offset=".39" stop-color="#AFE71D"/><stop offset=".643" stop-color="#A4DE16"/><stop offset=".88" stop-color="#92CF09"/><stop offset="1" stop-color="#86C500"/></linearGradient><linearGradient id="f" x1="33.367" y1="45.732" x2="49.844" y2="45.732" gradientUnits="userSpaceOnUse"><stop offset=".101" stop-color="#00D0EC"/><stop offset=".251" stop-color="#09C5ED"/><stop offset=".512" stop-color="#21A9F0"/><stop offset=".851" stop-color="#477BF5"/><stop offset="1" stop-color="#5A65F7"/></linearGradient><linearGradient id="h" x1="13.949" y1="16.988" x2="30.426" y2="16.988" gradientUnits="userSpaceOnUse"><stop offset=".101" stop-color="#B2EA20"/><stop offset=".39" stop-color="#AFE71D"/><stop offset=".643" stop-color="#A4DE16"/><stop offset=".88" stop-color="#92CF09"/><stop offset="1" stop-color="#86C500"/></linearGradient></defs></svg>