<svg width="54" height="68" fill="none" xmlns="http://www.w3.org/2000/svg"><path d="m33.213 29.596-6.14 4.093-6.14-4.093L2.22 57.662h10.672l3.947 10.233 10.234-15.641 10.234 15.641 3.947-10.233h10.672L33.213 29.596Z" fill="url(#a)"/><path d="M22.395 1.968C14.5 6.792 11.722 5.038 8.36 8.4c-3.363 3.508-1.462 5.993-6.433 14.033-1.754 2.778-1.754 6.432 0 9.21 4.825 7.893 3.07 10.67 6.433 14.033 3.508 3.362 5.994 1.462 14.035 6.432 2.777 1.754 6.432 1.754 9.21 0 7.894-4.824 10.672-3.07 14.034-6.432 3.363-3.509 1.462-5.994 6.433-14.034 1.755-2.777 1.755-6.431 0-9.209-4.824-7.893-3.07-10.67-6.433-14.033-3.508-3.362-5.994-1.462-14.034-6.432A9.07 9.07 0 0 0 26.927.652c-1.462-.146-3.07.293-4.532 1.316Z" fill="url(#b)"/><mask id="c" style="mask-type:luminance" maskUnits="userSpaceOnUse" x="9" y="9" width="36" height="36"><path d="M9.528 26.819c0 9.647 7.895 17.541 17.544 17.541 9.649 0 17.543-7.894 17.543-17.541 0-9.648-7.894-17.542-17.543-17.542-9.65 0-17.544 7.894-17.544 17.541Z" fill="#fff"/></mask><g mask="url(#c)"><path d="M44.616 9.277H9.53V44.36h35.087V9.277Z" fill="#E9EFFF"/></g><mask id="d" style="mask-type:luminance" maskUnits="userSpaceOnUse" x="15" y="15" width="24" height="23"><path d="m26.195 16.001-3.07 6.286-7.018 1.023c-.73.146-1.023 1.024-.584 1.608l4.97 4.824-1.17 6.87c-.146.731.732 1.316 1.316 1.024l6.14-3.216c6.726 3.508 6.287 3.362 6.58 3.362.584 0 1.023-.585.877-1.17l-1.17-6.87 4.97-4.824c.585-.584.293-1.462-.584-1.608l-6.433-1.023-3.07-6.286c-.146-.292-.439-.438-.877-.438-.439 0-.731.146-.877.438Z" fill="#fff"/></mask><g mask="url(#d)"><path d="M39.06 15.563H15.084v22.511H39.06V15.563Z" fill="url(#e)"/></g><defs><linearGradient id="a" x1="2.22" y1="48.709" x2="51.926" y2="48.709" gradientUnits="userSpaceOnUse"><stop offset=".101" stop-color="#B2EA20"/><stop offset=".39" stop-color="#AFE71D"/><stop offset=".643" stop-color="#A4DE16"/><stop offset=".88" stop-color="#92CF09"/><stop offset="1" stop-color="#86C500"/></linearGradient><linearGradient id="b" x1=".757" y1="26.891" x2="53.389" y2="26.891" gradientUnits="userSpaceOnUse"><stop offset=".101" stop-color="#00D0EC"/><stop offset=".251" stop-color="#09C5ED"/><stop offset=".512" stop-color="#21A9F0"/><stop offset=".851" stop-color="#477BF5"/><stop offset="1" stop-color="#5A65F7"/></linearGradient><linearGradient id="e" x1="15.402" y1="26.825" x2="38.792" y2="26.825" gradientUnits="userSpaceOnUse"><stop offset=".101" stop-color="#B2EA20"/><stop offset=".39" stop-color="#AFE71D"/><stop offset=".643" stop-color="#A4DE16"/><stop offset=".88" stop-color="#92CF09"/><stop offset="1" stop-color="#86C500"/></linearGradient></defs></svg>