<svg width="87" height="112" fill="none" xmlns="http://www.w3.org/2000/svg"><path d="M26.583 38.663H21.75A21.658 21.658 0 0 1 0 16.915v-4.833c0-1.45.967-2.416 2.417-2.416h24.166c1.45 0 2.417.967 2.417 2.416v24.164c0 1.45-.967 2.417-2.417 2.417ZM4.833 14.499v2.416c0 9.424 7.492 16.915 16.917 16.915h2.417V14.499H4.833ZM65.25 38.663h-4.833c-1.45 0-2.417-.967-2.417-2.417V12.082c0-1.45.967-2.416 2.417-2.416h24.166c1.45 0 2.417.967 2.417 2.416v4.833a21.658 21.658 0 0 1-21.75 21.748Zm-2.417-4.833h2.417c9.425 0 16.917-7.49 16.917-16.915V14.5H62.833V33.83Z" fill="#6AD3F0"/><mask id="a" style="mask-type:luminance" maskUnits="userSpaceOnUse" x="16" y="72" width="55" height="30"><path d="M25.859 72.493c-2.417 0-4.35 1.691-4.834 4.108l-4.108 24.889h53.167L65.975 76.6c-.483-2.416-2.416-4.107-4.833-4.107H25.859Z" fill="#fff"/></mask><g mask="url(#a)"><path d="M70.084 72.493H16.917v28.997h53.167V72.493Z" fill="url(#b)"/></g><path d="M72.5 111.155h-58c-1.45 0-2.417-.967-2.417-2.417v-4.832c0-1.45.967-2.417 2.417-2.417h58c1.45 0 2.416.967 2.416 2.417v4.832c0 1.45-.966 2.417-2.416 2.417Z" fill="url(#c)"/><path d="M60.415 79.742H26.582V94.24h33.833V79.742Z" fill="url(#d)"/><path d="M53.166 89.407H33.833c-1.45 0-2.417-.966-2.417-2.416 0-.725.483-2.416 2.417-2.416h19.333c1.45 0 2.417.966 2.417 2.416 0 .725-.484 2.416-2.417 2.416Z" fill="#F0F7FC"/><mask id="e" style="mask-type:luminance" maskUnits="userSpaceOnUse" x="12" y="0" width="63" height="10"><path d="M14.5 0c-1.45 0-2.417.967-2.417 2.416V7.25c0 1.45.967 2.417 2.417 2.417h58c1.45 0 2.416-.967 2.416-2.417V2.416C74.916.966 73.95 0 72.5 0h-58Z" fill="#fff"/></mask><g mask="url(#e)"><path d="M74.916 0H12.083v9.666h62.833V0Z" fill="url(#f)"/></g><path d="M53.167 53.161H33.834c-1.45 0-2.417-.966-2.417-2.416v-4.833c0-1.45.967-2.416 2.417-2.416h19.333c1.45 0 2.417.966 2.417 2.416v4.833c0 1.45-.967 2.416-2.417 2.416Z" fill="url(#g)"/><mask id="h" style="mask-type:luminance" maskUnits="userSpaceOnUse" x="16" y="9" width="55" height="35"><path d="M16.917 9.666v12.082a21.658 21.658 0 0 0 21.75 21.747h9.667a21.658 21.658 0 0 0 21.75-21.747V9.666H16.917Z" fill="#fff"/></mask><g mask="url(#h)"><path d="M70.084 9.666H16.917v33.83h53.167V9.665Z" fill="url(#i)"/></g><mask id="j" style="mask-type:luminance" maskUnits="userSpaceOnUse" x="31" y="53" width="25" height="20"><path d="M36.251 53.161v3.383c0 5.8-1.691 11.357-4.833 15.948h24.167c-3.142-4.833-4.834-10.39-4.834-15.948v-3.383h-14.5Z" fill="#fff"/></mask><g mask="url(#j)"><path d="M55.585 53.161H31.418v19.332h24.167V53.16Z" fill="url(#k)"/></g><defs><linearGradient id="b" x1="43.499" y1="101.487" x2="43.499" y2="72.49" gradientUnits="userSpaceOnUse"><stop offset=".101" stop-color="#00D0EC"/><stop offset=".251" stop-color="#09C5ED"/><stop offset=".512" stop-color="#21A9F0"/><stop offset=".851" stop-color="#477BF5"/><stop offset="1" stop-color="#5A65F7"/></linearGradient><linearGradient id="c" x1="84.5" y1="54.5" x2="37" y2="143.5" gradientUnits="userSpaceOnUse"><stop stop-color="#60E1F3"/><stop offset="1" stop-color="#4E72F6"/></linearGradient><linearGradient id="d" x1="26.581" y1="86.991" x2="60.415" y2="86.991" gradientUnits="userSpaceOnUse"><stop offset=".101" stop-color="#B2EA20"/><stop offset=".39" stop-color="#AFE71D"/><stop offset=".643" stop-color="#A4DE16"/><stop offset=".88" stop-color="#92CF09"/><stop offset="1" stop-color="#86C500"/></linearGradient><linearGradient id="f" x1="43.5" y1="9.666" x2="43.5" y2="0" gradientUnits="userSpaceOnUse"><stop offset=".101" stop-color="#B2EA20"/><stop offset=".39" stop-color="#AFE71D"/><stop offset=".643" stop-color="#A4DE16"/><stop offset=".88" stop-color="#92CF09"/><stop offset="1" stop-color="#86C500"/></linearGradient><linearGradient id="g" x1="31.416" y1="48.328" x2="55.583" y2="48.328" gradientUnits="userSpaceOnUse"><stop offset=".101" stop-color="#B2EA20"/><stop offset=".39" stop-color="#AFE71D"/><stop offset=".643" stop-color="#A4DE16"/><stop offset=".88" stop-color="#92CF09"/><stop offset="1" stop-color="#86C500"/></linearGradient><linearGradient id="i" x1="43.501" y1="43.503" x2="43.501" y2="9.674" gradientUnits="userSpaceOnUse"><stop offset=".101" stop-color="#B2EA20"/><stop offset=".39" stop-color="#AFE71D"/><stop offset=".643" stop-color="#A4DE16"/><stop offset=".88" stop-color="#92CF09"/><stop offset="1" stop-color="#86C500"/></linearGradient><linearGradient id="k" x1="43.497" y1="72.493" x2="43.497" y2="53.162" gradientUnits="userSpaceOnUse"><stop offset=".101" stop-color="#B2EA20"/><stop offset=".39" stop-color="#AFE71D"/><stop offset=".643" stop-color="#A4DE16"/><stop offset=".88" stop-color="#92CF09"/><stop offset="1" stop-color="#86C500"/></linearGradient></defs></svg>