<svg width="374" height="655" fill="none" xmlns="http://www.w3.org/2000/svg"><path fill-rule="evenodd" clip-rule="evenodd" d="M187 281h94v-94c-51.862 0-94 41.814-94 94ZM187 468h94v-94c-51.862 0-94 41.814-94 94ZM374 562v-94h-93c0 51.862 41.369 94 93 94ZM374 187V94h-93c0 51.31 41.369 93 93 93ZM187 562v-94H94c0 51.862 41.369 94 93 94ZM187 281v-94H94c0 51.862 41.369 94 93 94ZM281 374v-93h-94c0 51.31 41.814 93 94 93ZM187 187V94H94c0 51.31 41.369 93 93 93ZM374 187h-93v94c51.31 0 93-41.814 93-94ZM0 0v94h94C94 42.138 52.186 0 0 0ZM94 0v94h93c0-51.862-41.369-94-93-94ZM187 562h94v-94c-51.862 0-94 41.814-94 94ZM0 562h94v-94c-51.862 0-94 41.814-94 94ZM0 374h94v-93c-51.862 0-94 41.369-94 93ZM281 374h93v-93c-51.31 0-93 41.369-93 93ZM281 374h93v94c-51.31 0-93-42.138-93-94ZM281 94v93h-94c0-51.31 42.138-93 94-93ZM374 0v94h-93c0-51.862 41.69-94 93-94ZM94 187v94H0c0-51.862 42.138-94 94-94ZM94 655v-93H0c0 51.31 41.814 93 94 93Z" fill="#2C2E33"/></svg>