<svg width="53" height="64" viewBox="0 0 53 64" fill="none" xmlns="http://www.w3.org/2000/svg">
<mask id="mask0_7804_398" style="mask-type:luminance" maskUnits="userSpaceOnUse" x="0" y="0" width="45" height="59">
<path d="M5.90358 0.480835C2.88273 0.480835 0.411133 2.95217 0.411133 5.97268V52.6534C0.411133 55.6739 2.88273 58.1452 5.90358 58.1452H38.8582C41.8791 58.1452 44.3507 55.6739 44.3507 52.6534V5.97268C44.3507 2.95217 41.8791 0.480835 38.8582 0.480835H5.90358Z" fill="white"/>
</mask>
<g mask="url(#mask0_7804_398)">
<path d="M44.3507 0.480835H0.411133V58.1452H44.3507V0.480835Z" fill="url(#paint0_linear_7804_398)"/>
</g>
<path d="M38.859 54.0264H5.90436C5.08049 54.0264 4.53125 53.4772 4.53125 52.6534V5.97269C4.53125 5.14892 5.08049 4.59973 5.90436 4.59973H38.859C39.6829 4.59973 40.2321 5.14892 40.2321 5.97269V52.6534C40.2321 53.3399 39.6829 54.0264 38.859 54.0264Z" fill="#F0F7FC"/>
<path d="M15.5159 32.059H10.0235C9.19963 32.059 8.65039 31.5098 8.65039 30.686C8.65039 30.2741 8.92501 29.313 10.0235 29.313H15.5159C16.3398 29.313 16.8891 29.8622 16.8891 30.686C16.8891 30.9606 16.6144 32.059 15.5159 32.059Z" fill="#D7E9F7"/>
<path d="M34.739 32.059H21.0079C20.184 32.059 19.6348 31.5098 19.6348 30.686C19.6348 30.2741 19.9094 29.313 21.0079 29.313H34.739C35.5628 29.313 36.1121 29.8622 36.1121 30.686C36.1121 30.9606 35.8375 32.059 34.739 32.059Z" fill="#D7E9F7"/>
<path d="M15.5159 38.9238H10.0235C9.19963 38.9238 8.65039 38.3747 8.65039 37.5509C8.65039 37.139 8.92501 36.1779 10.0235 36.1779H15.5159C16.3398 36.1779 16.8891 36.7271 16.8891 37.5509C16.8891 37.8255 16.6144 38.9238 15.5159 38.9238Z" fill="#D7E9F7"/>
<path d="M34.739 38.9238H21.0079C20.184 38.9238 19.6348 38.3747 19.6348 37.5509C19.6348 37.139 19.9094 36.1779 21.0079 36.1779H34.739C35.5628 36.1779 36.1121 36.7271 36.1121 37.5509C36.1121 37.8255 35.8375 38.9238 34.739 38.9238Z" fill="#D7E9F7"/>
<path d="M34.7393 54.0264V63.6371L41.6048 60.8912L48.4704 63.6371V54.0264H34.7393Z" fill="#6AD3F0"/>
<mask id="mask1_7804_398" style="mask-type:luminance" maskUnits="userSpaceOnUse" x="34" y="54" width="15" height="10">
<path d="M34.7393 54.0264V63.6371L41.6048 60.8912L48.4704 63.6371V54.0264H34.7393Z" fill="white"/>
</mask>
<g mask="url(#mask1_7804_398)">
<path d="M48.4704 54.0264H34.7393V63.6371H48.4704V54.0264Z" fill="#6AD3F0"/>
</g>
<mask id="mask2_7804_398" style="mask-type:luminance" maskUnits="userSpaceOnUse" x="30" y="34" width="23" height="23">
<path d="M30.6182 45.7885C30.6182 51.8295 35.5614 56.7722 41.6031 56.7722C47.6447 56.7722 52.5879 51.8295 52.5879 45.7885C52.5879 39.7475 47.6447 34.8048 41.6031 34.8048C35.5614 34.8048 30.6182 39.6102 30.6182 45.7885Z" fill="white"/>
</mask>
<g mask="url(#mask2_7804_398)">
<path d="M52.5879 34.8048H30.6182V56.7722H52.5879V34.8048Z" fill="url(#paint1_linear_7804_398)"/>
</g>
<path d="M49.8445 45.7886C49.8445 41.2578 46.1371 37.5508 41.6059 37.5508C37.0746 37.5508 33.3672 41.2578 33.3672 45.7886C33.3672 50.3194 37.0746 54.0264 41.6059 54.0264C46.1371 54.0264 49.8445 50.3194 49.8445 45.7886Z" fill="url(#paint2_linear_7804_398)"/>
<path d="M10.0238 49.9075C8.92528 49.9075 8.23872 48.6718 8.92527 47.7107L11.6715 43.5918C12.2207 42.7681 13.4565 42.7681 14.0058 43.5918L15.7908 46.3378L17.3013 44.8275C17.8505 44.2783 18.6744 44.2783 19.2236 44.8275L21.5579 47.1615H23.7549C24.5787 47.1615 25.128 47.7107 25.128 48.5345C25.128 49.3583 24.5787 49.9075 23.7549 49.9075H21.0087C20.3221 49.9075 20.0475 49.4956 18.2624 47.7107L16.4774 49.4956C15.7908 50.1821 14.8296 50.0448 14.4177 49.221L12.77 46.7496L11.1223 49.221C10.8476 49.6329 10.4357 49.9075 10.0238 49.9075Z" fill="#B4CDE1"/>
<path d="M41.6057 49.9074C40.9191 49.9074 40.7818 49.6328 37.8983 46.7496C37.349 46.2004 37.349 45.3766 37.8983 44.8275C38.4475 44.2783 39.2714 44.2783 39.8206 44.8275L41.6057 46.6123L44.7638 43.4545C45.3131 42.9053 46.1369 42.9053 46.6862 43.4545C47.2354 44.0037 47.2354 44.8275 46.6862 45.3766L42.5668 49.4955C42.2922 49.7701 42.0176 49.9074 41.6057 49.9074Z" fill="#F0F7FC"/>
<mask id="mask3_7804_398" style="mask-type:luminance" maskUnits="userSpaceOnUse" x="14" y="8" width="17" height="17">
<path d="M21.832 9.26784L19.635 13.6613L14.6918 14.3478C14.1426 14.4851 14.0053 15.0343 14.2799 15.4462L17.85 18.8786L17.0261 23.6839C16.8888 24.2331 17.5754 24.645 17.9873 24.3704L22.3812 22.0364C27.1871 24.5077 26.7752 24.3704 27.0498 24.3704C27.4618 24.3704 27.7364 23.9585 27.7364 23.5466L26.9125 18.7413L30.4826 15.3089C30.8945 14.897 30.6199 14.2105 30.0707 14.2105L25.1275 13.6613L22.9305 9.26784C22.7932 8.99325 22.5186 8.99325 22.3812 8.99325C22.1066 8.85596 21.832 8.99325 21.832 9.26784Z" fill="white"/>
</mask>
<g mask="url(#mask3_7804_398)">
<path d="M30.8941 8.85596H14.0049V24.7823H30.8941V8.85596Z" fill="url(#paint3_linear_7804_398)"/>
</g>
<defs>
<linearGradient id="paint0_linear_7804_398" x1="22.3842" y1="58.0914" x2="22.3842" y2="0.427014" gradientUnits="userSpaceOnUse">
<stop offset="0.1006" stop-color="#00D0EC"/>
<stop offset="0.2511" stop-color="#09C5ED"/>
<stop offset="0.5124" stop-color="#21A9F0"/>
<stop offset="0.8509" stop-color="#477BF5"/>
<stop offset="1" stop-color="#5A65F7"/>
</linearGradient>
<linearGradient id="paint1_linear_7804_398" x1="30.6173" y1="45.7295" x2="52.5871" y2="45.7295" gradientUnits="userSpaceOnUse">
<stop offset="0.1006" stop-color="#B2EA20"/>
<stop offset="0.3902" stop-color="#AFE71D"/>
<stop offset="0.6426" stop-color="#A4DE16"/>
<stop offset="0.8803" stop-color="#92CF09"/>
<stop offset="1" stop-color="#86C500"/>
</linearGradient>
<linearGradient id="paint2_linear_7804_398" x1="33.3672" y1="45.7316" x2="49.8445" y2="45.7316" gradientUnits="userSpaceOnUse">
<stop offset="0.1006" stop-color="#00D0EC"/>
<stop offset="0.2511" stop-color="#09C5ED"/>
<stop offset="0.5124" stop-color="#21A9F0"/>
<stop offset="0.8509" stop-color="#477BF5"/>
<stop offset="1" stop-color="#5A65F7"/>
</linearGradient>
<linearGradient id="paint3_linear_7804_398" x1="13.949" y1="16.9876" x2="30.4262" y2="16.9876" gradientUnits="userSpaceOnUse">
<stop offset="0.1006" stop-color="#B2EA20"/>
<stop offset="0.3902" stop-color="#AFE71D"/>
<stop offset="0.6426" stop-color="#A4DE16"/>
<stop offset="0.8803" stop-color="#92CF09"/>
<stop offset="1" stop-color="#86C500"/>
</linearGradient>
</defs>
</svg>
