<svg width="54" height="68" viewBox="0 0 54 68" fill="none" xmlns="http://www.w3.org/2000/svg">
<path d="M33.2132 29.5959L27.073 33.689L20.9328 29.5959L2.21973 57.6624H12.892L16.8393 67.895L27.073 52.2538L37.3067 67.895L41.2539 57.6624H51.9262L33.2132 29.5959Z" fill="url(#paint0_linear_7804_248)"/>
<path d="M22.3945 1.96803C14.4999 6.79196 11.7222 5.0378 8.35968 8.39993C4.99719 11.9082 6.89774 14.3933 1.92709 22.4332C0.172742 25.2106 0.172742 28.8651 1.92709 31.6425C6.75154 39.5362 4.99719 42.3136 8.35968 45.6758C11.8684 49.0379 14.3537 47.1376 22.3945 52.1077C25.1722 53.8618 28.8271 53.8618 31.6048 52.1077C39.4993 47.2837 42.277 49.0379 45.6395 45.6758C49.002 42.1674 47.1015 39.6824 52.0722 31.6425C53.8265 28.8651 53.8265 25.2106 52.0722 22.4332C47.2477 14.5395 49.002 11.7621 45.6395 8.39993C42.1308 5.0378 39.6455 6.93814 31.6048 1.96803C30.1428 1.09095 28.5347 0.652409 26.9265 0.652409C25.4646 0.506229 23.8564 0.944768 22.3945 1.96803Z" fill="url(#paint1_linear_7804_248)"/>
<mask id="mask0_7804_248" style="mask-type:luminance" maskUnits="userSpaceOnUse" x="9" y="9" width="36" height="36">
<path d="M9.52832 26.8185C9.52832 36.4664 17.4229 44.3601 27.0718 44.3601C36.7207 44.3601 44.6152 36.4664 44.6152 26.8185C44.6152 17.1707 36.7207 9.27698 27.0718 9.27698C17.4229 9.27698 9.52832 17.1707 9.52832 26.8185Z" fill="white"/>
</mask>
<g mask="url(#mask0_7804_248)">
<path d="M44.6162 9.27698H9.5293V44.3601H44.6162V9.27698Z" fill="#E9EFFF"/>
</g>
<mask id="mask1_7804_248" style="mask-type:luminance" maskUnits="userSpaceOnUse" x="15" y="15" width="24" height="23">
<path d="M26.1948 16.0013L23.1246 22.287L16.1073 23.3103C15.3763 23.4564 15.0839 24.3335 15.5225 24.9182L20.4931 29.7422L19.3236 36.6126C19.1774 37.3435 20.0545 37.9282 20.6393 37.6359L26.7795 34.4199C33.5045 37.9282 33.0659 37.7821 33.3583 37.7821C33.9431 37.7821 34.3817 37.1973 34.2355 36.6126L33.0659 29.7422L38.0366 24.9182C38.6214 24.3335 38.329 23.4564 37.4518 23.3103L31.0192 22.287L27.9491 16.0013C27.8029 15.7089 27.5105 15.5627 27.0719 15.5627C26.6333 15.5627 26.3409 15.7089 26.1948 16.0013Z" fill="white"/>
</mask>
<g mask="url(#mask1_7804_248)">
<path d="M39.06 15.5627H15.084V38.0744H39.06V15.5627Z" fill="url(#paint2_linear_7804_248)"/>
</g>
<defs>
<linearGradient id="paint0_linear_7804_248" x1="2.21973" y1="48.7089" x2="51.9262" y2="48.7089" gradientUnits="userSpaceOnUse">
<stop offset="0.1006" stop-color="#B2EA20"/>
<stop offset="0.3902" stop-color="#AFE71D"/>
<stop offset="0.6426" stop-color="#A4DE16"/>
<stop offset="0.8803" stop-color="#92CF09"/>
<stop offset="1" stop-color="#86C500"/>
</linearGradient>
<linearGradient id="paint1_linear_7804_248" x1="0.756793" y1="26.8912" x2="53.3886" y2="26.8912" gradientUnits="userSpaceOnUse">
<stop offset="0.1006" stop-color="#00D0EC"/>
<stop offset="0.2511" stop-color="#09C5ED"/>
<stop offset="0.5124" stop-color="#21A9F0"/>
<stop offset="0.8509" stop-color="#477BF5"/>
<stop offset="1" stop-color="#5A65F7"/>
</linearGradient>
<linearGradient id="paint2_linear_7804_248" x1="15.4015" y1="26.8245" x2="38.7925" y2="26.8245" gradientUnits="userSpaceOnUse">
<stop offset="0.1006" stop-color="#B2EA20"/>
<stop offset="0.3902" stop-color="#AFE71D"/>
<stop offset="0.6426" stop-color="#A4DE16"/>
<stop offset="0.8803" stop-color="#92CF09"/>
<stop offset="1" stop-color="#86C500"/>
</linearGradient>
</defs>
</svg>
