<svg width="69" height="67" viewBox="0 0 69 67" fill="none" xmlns="http://www.w3.org/2000/svg">
<path d="M0.875 16.5731V19.4967C0.875 22.7127 3.50652 25.3439 6.72282 25.3439H9.64673V22.4203C9.64673 19.2044 7.01521 16.5731 3.79891 16.5731H0.875Z" fill="#6AD3F0"/>
<mask id="mask0_7804_261" style="mask-type:luminance" maskUnits="userSpaceOnUse" x="0" y="16" width="10" height="10">
<path d="M0.875 16.5731V19.4967C0.875 22.7127 3.50652 25.3439 6.72282 25.3439H9.64673V22.4203C9.64673 19.2044 7.01521 16.5731 3.79891 16.5731H0.875Z" fill="white"/>
</mask>
<g mask="url(#mask0_7804_261)">
<path d="M9.64673 16.5731H0.875V25.3439H9.64673V16.5731Z" fill="#6AD3F0"/>
</g>
<path d="M4.23727 32.9451L1.75195 34.4069L3.21391 36.892C4.82206 39.6694 8.47695 40.6927 11.2547 39.0847L13.74 37.6229L12.278 35.1378C11.2547 33.2375 9.20792 32.2142 7.16118 32.2142C6.13781 32.2142 5.26064 32.3604 4.23727 32.9451Z" fill="#6AD3F0"/>
<mask id="mask1_7804_261" style="mask-type:luminance" maskUnits="userSpaceOnUse" x="1" y="32" width="13" height="8">
<path d="M4.23727 32.9451L1.75195 34.4069L3.21391 36.892C4.82206 39.6694 8.47695 40.6927 11.2547 39.0847L13.74 37.6229L12.278 35.1378C11.2547 33.2375 9.20792 32.2142 7.16118 32.2142C6.13781 32.2142 5.26064 32.3604 4.23727 32.9451Z" fill="white"/>
</mask>
<g mask="url(#mask1_7804_261)">
<path d="M13.74 32.2142H1.75195V40.6927H13.74V32.2142Z" fill="#6AD3F0"/>
</g>
<path d="M7.60016 3.2707C5.99201 6.04811 7.01538 9.7026 9.7931 11.3106L12.2784 12.7724L13.7404 10.2873C15.3485 7.50991 14.3252 3.85542 11.5474 2.24744L9.06212 0.785645L7.60016 3.2707Z" fill="#6AD3F0"/>
<mask id="mask2_7804_261" style="mask-type:luminance" maskUnits="userSpaceOnUse" x="6" y="0" width="9" height="13">
<path d="M7.60016 3.2707C5.99201 6.04811 7.01538 9.7026 9.7931 11.3106L12.2784 12.7724L13.7404 10.2873C15.3485 7.50991 14.3252 3.85542 11.5474 2.24744L9.06212 0.785645L7.60016 3.2707Z" fill="white"/>
</mask>
<g mask="url(#mask2_7804_261)">
<path d="M15.3477 0.785645H5.99121V12.7724H15.3477V0.785645Z" fill="#6AD3F0"/>
</g>
<path d="M15.9334 5.31719C5.55347 15.5498 5.55347 32.3604 15.9334 42.593C16.2257 42.8854 16.6643 43.0316 16.9567 43.0316C18.2725 43.0316 18.8573 41.4236 17.9801 40.5465C8.76978 31.3372 8.76978 16.573 17.9801 7.36371C18.5649 6.77899 18.5649 5.90191 17.9801 5.31719C17.6877 5.02484 17.2491 4.87866 16.9567 4.87866C16.6643 4.87866 16.2257 5.02484 15.9334 5.31719Z" fill="#6AD3F0"/>
<mask id="mask3_7804_261" style="mask-type:luminance" maskUnits="userSpaceOnUse" x="8" y="4" width="11" height="40">
<path d="M15.9334 5.31719C5.55347 15.5498 5.55347 32.3604 15.9334 42.593C16.2257 42.8854 16.6643 43.0316 16.9567 43.0316C18.2725 43.0316 18.8573 41.4236 17.9801 40.5465C8.76978 31.3372 8.76978 16.573 17.9801 7.36371C18.5649 6.77899 18.5649 5.90191 17.9801 5.31719C17.6877 5.02484 17.2491 4.87866 16.9567 4.87866C16.6643 4.87866 16.2257 5.02484 15.9334 5.31719Z" fill="white"/>
</mask>
<g mask="url(#mask3_7804_261)">
<path d="M18.8575 4.87866H5.55371V43.0316H18.8575V4.87866Z" fill="#6AD3F0"/>
</g>
<path d="M65.2004 16.5731C61.9841 16.5731 59.3525 19.2043 59.3525 22.4202V25.3438H62.2764C65.4928 25.3438 68.1243 22.7126 68.1243 19.4967V16.5731H65.2004Z" fill="#6AD3F0"/>
<mask id="mask4_7804_261" style="mask-type:luminance" maskUnits="userSpaceOnUse" x="59" y="16" width="10" height="10">
<path d="M65.2004 16.5731C61.9841 16.5731 59.3525 19.2043 59.3525 22.4202V25.3438H62.2764C65.4928 25.3438 68.1243 22.7126 68.1243 19.4967V16.5731H65.2004Z" fill="white"/>
</mask>
<g mask="url(#mask4_7804_261)">
<path d="M68.1243 16.5731H59.3525V25.3438H68.1243V16.5731Z" fill="#6AD3F0"/>
</g>
<path d="M56.7217 35.1378L55.2598 37.6229L57.7451 39.0847C60.5228 40.6927 64.1777 39.6694 65.7858 36.892L67.2478 34.4069L64.7625 32.9451C63.8853 32.3604 62.8619 32.2142 61.8386 32.2142C59.7918 32.2142 57.8913 33.2375 56.7217 35.1378Z" fill="#6AD3F0"/>
<mask id="mask5_7804_261" style="mask-type:luminance" maskUnits="userSpaceOnUse" x="55" y="32" width="13" height="8">
<path d="M56.7217 35.1378L55.2598 37.6229L57.7451 39.0847C60.5228 40.6927 64.1777 39.6694 65.7858 36.892L67.2478 34.4069L64.7625 32.9451C63.8853 32.3604 62.8619 32.2142 61.8386 32.2142C59.7918 32.2142 57.8913 33.2375 56.7217 35.1378Z" fill="white"/>
</mask>
<g mask="url(#mask5_7804_261)">
<path d="M67.2478 32.2142H55.2598V40.6927H67.2478V32.2142Z" fill="#6AD3F0"/>
</g>
<path d="M57.4523 2.24744C54.6746 3.85542 53.6512 7.50991 55.2593 10.2873L56.7213 12.7724L59.2066 11.3106C61.9843 9.7026 63.0077 6.04811 61.3996 3.2707L59.9376 0.785645L57.4523 2.24744Z" fill="#6AD3F0"/>
<mask id="mask6_7804_261" style="mask-type:luminance" maskUnits="userSpaceOnUse" x="54" y="0" width="9" height="13">
<path d="M57.4523 2.24744C54.6746 3.85542 53.6512 7.50991 55.2593 10.2873L56.7213 12.7724L59.2066 11.3106C61.9843 9.7026 63.0077 6.04811 61.3996 3.2707L59.9376 0.785645L57.4523 2.24744Z" fill="white"/>
</mask>
<g mask="url(#mask6_7804_261)">
<path d="M63.0079 0.785645H53.6514V12.7724H63.0079V0.785645Z" fill="#6AD3F0"/>
</g>
<path d="M51.0206 5.31719C50.4358 5.90191 50.4358 6.77899 51.0206 7.36371C60.2309 16.573 60.2309 31.3372 51.0206 40.5465C50.1434 41.4236 50.7282 43.0316 52.044 43.0316C52.4826 43.0316 52.775 42.8854 53.0674 42.593C63.4473 32.3604 63.4473 15.5498 53.0674 5.31719C52.775 5.02484 52.3364 4.87866 52.044 4.87866C51.7516 4.87866 51.313 5.02484 51.0206 5.31719Z" fill="#6AD3F0"/>
<mask id="mask7_7804_261" style="mask-type:luminance" maskUnits="userSpaceOnUse" x="50" y="4" width="11" height="40">
<path d="M51.0206 5.31719C50.4358 5.90191 50.4358 6.77899 51.0206 7.36371C60.2309 16.573 60.2309 31.3372 51.0206 40.5465C50.1434 41.4236 50.7282 43.0316 52.044 43.0316C52.4826 43.0316 52.775 42.8854 53.0674 42.593C63.4473 32.3604 63.4473 15.5498 53.0674 5.31719C52.775 5.02484 52.3364 4.87866 52.044 4.87866C51.7516 4.87866 51.313 5.02484 51.0206 5.31719Z" fill="white"/>
</mask>
<g mask="url(#mask7_7804_261)">
<path d="M63.4473 4.87866H50.1436V43.0316H63.4473V4.87866Z" fill="#6AD3F0"/>
</g>
<path d="M18.4174 66.2742H3.79785L6.72176 60.427L3.79785 54.5798H18.4174V66.2742Z" fill="url(#paint0_linear_7804_261)"/>
<path d="M65.1996 66.274H50.5801V54.5797H65.1996L62.2757 60.4268L65.1996 66.274Z" fill="url(#paint1_linear_7804_261)"/>
<mask id="mask8_7804_261" style="mask-type:luminance" maskUnits="userSpaceOnUse" x="11" y="45" width="47" height="16">
<path d="M57.89 45.809H11.1074V60.4269H57.89V45.809Z" fill="white"/>
</mask>
<g mask="url(#mask8_7804_261)">
<path d="M57.891 45.809H11.1084V60.4269H57.891V45.809Z" fill="url(#paint2_linear_7804_261)"/>
</g>
<path d="M11.1084 60.4269L18.4182 66.2741V60.4269H11.1084Z" fill="#0668CB"/>
<path d="M57.8908 60.4269L50.5811 66.2741V60.4269H57.8908Z" fill="#0668CB"/>
<path d="M49.119 51.6561H19.8799C19.0028 51.6561 18.418 51.0714 18.418 50.1943C18.418 49.7558 18.7104 48.7325 19.8799 48.7325H49.119C49.9962 48.7325 50.581 49.3173 50.581 50.1943C50.581 50.6329 50.2886 51.6561 49.119 51.6561Z" fill="#F0F7FC"/>
<path d="M41.809 57.5033H27.1895C26.3123 57.5033 25.7275 56.9186 25.7275 56.0415C25.7275 55.603 26.0199 54.5797 27.1895 54.5797H41.809C42.6862 54.5797 43.271 55.1644 43.271 56.0415C43.271 56.48 42.9786 57.5033 41.809 57.5033Z" fill="#F0F7FC"/>
<path d="M49.119 13.6495V21.8356C49.119 30.8987 43.125 38.9386 34.4994 41.4236C25.8739 38.7924 19.8799 30.8987 19.8799 21.8356V13.6495L34.4994 6.34052L49.119 13.6495Z" fill="url(#paint3_linear_7804_261)"/>
<path d="M34.0609 42.8853C24.7044 40.1079 18.418 31.6294 18.418 21.8354V13.6493C18.418 13.0646 18.7104 12.6261 19.2952 12.3337L33.9147 5.02473C34.3533 4.87856 34.7919 4.87856 35.2305 5.02473L49.85 12.3337C50.2886 12.6261 50.7272 13.0646 50.7272 13.6493V21.8354C50.7272 31.6294 44.4408 40.1079 35.0843 42.8853C34.6457 42.8853 34.3533 42.8853 34.0609 42.8853ZM21.3419 14.6726V21.8354C21.3419 30.1676 26.6049 37.3305 34.4995 39.9617C42.394 37.3305 47.6571 30.1676 47.6571 21.8354V14.6726L34.4995 8.09451L21.3419 14.6726Z" fill="url(#paint4_linear_7804_261)"/>
<path d="M42.9798 22.1279L39.1788 25.7824L40.0559 30.8987C40.0559 31.3372 39.7635 31.7757 39.3249 31.7757C39.0325 31.7757 39.4711 31.9219 34.3543 29.2907L29.676 31.7757C29.2375 32.0681 28.5065 31.6296 28.6527 31.0448L29.5298 25.9285L25.7287 22.2741C25.2902 21.8355 25.5826 21.1046 26.1673 21.1046L31.2842 20.3737L33.6233 15.696C33.9157 15.2574 34.6467 15.2574 34.9391 15.696L37.2782 20.3737L42.3951 21.1046C43.2722 21.1046 43.4184 21.6893 42.9798 22.1279Z" fill="#E9EFFF"/>
<defs>
<linearGradient id="paint0_linear_7804_261" x1="3.82285" y1="60.4758" x2="18.4424" y2="60.4758" gradientUnits="userSpaceOnUse">
<stop offset="0.1006" stop-color="#00D0EC"/>
<stop offset="0.2511" stop-color="#09C5ED"/>
<stop offset="0.5124" stop-color="#21A9F0"/>
<stop offset="0.8509" stop-color="#477BF5"/>
<stop offset="1" stop-color="#5A65F7"/>
</linearGradient>
<linearGradient id="paint1_linear_7804_261" x1="50.6051" y1="60.4757" x2="65.2246" y2="60.4757" gradientUnits="userSpaceOnUse">
<stop offset="0.1006" stop-color="#00D0EC"/>
<stop offset="0.2511" stop-color="#09C5ED"/>
<stop offset="0.5124" stop-color="#21A9F0"/>
<stop offset="0.8509" stop-color="#477BF5"/>
<stop offset="1" stop-color="#5A65F7"/>
</linearGradient>
<linearGradient id="paint2_linear_7804_261" x1="34.5219" y1="60.4725" x2="34.5219" y2="45.8546" gradientUnits="userSpaceOnUse">
<stop offset="0.1006" stop-color="#00D0EC"/>
<stop offset="0.2511" stop-color="#09C5ED"/>
<stop offset="0.5124" stop-color="#21A9F0"/>
<stop offset="0.8509" stop-color="#477BF5"/>
<stop offset="1" stop-color="#5A65F7"/>
</linearGradient>
<linearGradient id="paint3_linear_7804_261" x1="19.9049" y1="23.9309" x2="49.144" y2="23.9309" gradientUnits="userSpaceOnUse">
<stop offset="0.1006" stop-color="#00D0EC"/>
<stop offset="0.2511" stop-color="#09C5ED"/>
<stop offset="0.5124" stop-color="#21A9F0"/>
<stop offset="0.8509" stop-color="#477BF5"/>
<stop offset="1" stop-color="#5A65F7"/>
</linearGradient>
<linearGradient id="paint4_linear_7804_261" x1="18.443" y1="23.9309" x2="50.606" y2="23.9309" gradientUnits="userSpaceOnUse">
<stop offset="0.1006" stop-color="#B2EA20"/>
<stop offset="0.3902" stop-color="#AFE71D"/>
<stop offset="0.6426" stop-color="#A4DE16"/>
<stop offset="0.8803" stop-color="#92CF09"/>
<stop offset="1" stop-color="#86C500"/>
</linearGradient>
</defs>
</svg>
