<svg width="42" height="68" viewBox="0 0 42 68" fill="none" xmlns="http://www.w3.org/2000/svg">
<path d="M1.99418 53.0127C1.11701 53.0127 0.532227 53.5974 0.532227 54.4745V66.1689C0.532227 67.0459 1.11701 67.6307 1.99418 67.6307H40.005C40.8822 67.6307 41.467 67.0459 41.467 66.1689V54.4745C41.467 53.5974 40.8822 53.0127 40.005 53.0127H1.99418Z" fill="url(#paint0_linear_7804_333)"/>
<mask id="mask0_7804_333" style="mask-type:luminance" maskUnits="userSpaceOnUse" x="0" y="53" width="42" height="15">
<path d="M1.99418 53.0127C1.11701 53.0127 0.532227 53.5974 0.532227 54.4745V66.1689C0.532227 67.0459 1.11701 67.6307 1.99418 67.6307H40.005C40.8822 67.6307 41.467 67.0459 41.467 66.1689V54.4745C41.467 53.5974 40.8822 53.0127 40.005 53.0127H1.99418Z" fill="white"/>
</mask>
<g mask="url(#mask0_7804_333)">
<path d="M41.466 53.0127H0.53125V67.6307H41.466V53.0127Z" fill="url(#paint1_linear_7804_333)"/>
</g>
<path d="M34.157 58.8599H7.84184C6.96466 58.8599 6.37988 58.2752 6.37988 57.3981C6.37988 56.9596 6.67227 55.9363 7.84184 55.9363H34.157C35.0342 55.9363 35.619 56.5211 35.619 57.3981C35.619 57.6905 35.1804 58.8599 34.157 58.8599Z" fill="#E9EFFF"/>
<path d="M28.309 64.7072H13.6895C12.8123 64.7072 12.2275 64.1224 12.2275 63.2454C12.2275 62.8068 12.5199 61.7836 13.6895 61.7836H28.309C29.1862 61.7836 29.771 62.3683 29.771 63.2454C29.771 63.5377 29.3324 64.7072 28.309 64.7072Z" fill="#E9EFFF"/>
<path d="M3.45614 10.4744C1.84799 10.4744 0.532227 11.79 0.532227 13.398V45.5576C0.532227 46.4346 0.970818 47.3117 1.7018 47.8964L7.842 52.8665H34.1572L40.2974 47.8964C41.0284 47.3117 41.467 46.4346 41.467 45.5576V13.398C41.467 11.79 40.1512 10.4744 38.5431 10.4744H3.45614Z" fill="url(#paint2_linear_7804_333)"/>
<mask id="mask1_7804_333" style="mask-type:luminance" maskUnits="userSpaceOnUse" x="0" y="10" width="42" height="43">
<path d="M3.45614 10.4744C1.84799 10.4744 0.532227 11.79 0.532227 13.398V45.5576C0.532227 46.4346 0.970818 47.3117 1.7018 47.8964L7.842 52.8665H34.1572L40.2974 47.8964C41.0284 47.3117 41.467 46.4346 41.467 45.5576V13.398C41.467 11.79 40.1512 10.4744 38.5431 10.4744H3.45614Z" fill="white"/>
</mask>
<g mask="url(#mask1_7804_333)">
<path d="M41.466 10.4744H0.53125V52.8665H41.466V10.4744Z" fill="url(#paint3_linear_7804_333)"/>
</g>
<path d="M34.157 28.016H7.84184C6.96466 28.016 6.37988 27.4313 6.37988 26.5542V23.6306C6.37988 22.7535 6.96466 22.1688 7.84184 22.1688H34.157C35.0342 22.1688 35.619 22.7535 35.619 23.6306V26.5542C35.619 27.4313 34.888 28.016 34.157 28.016Z" fill="#E9EFFF"/>
<path d="M34.157 38.2486H7.84184C6.96466 38.2486 6.37988 37.6638 6.37988 36.7868V33.8632C6.37988 32.9861 6.96466 32.4014 7.84184 32.4014H34.157C35.0342 32.4014 35.619 32.9861 35.619 33.8632V36.7868C35.619 37.6638 34.888 38.2486 34.157 38.2486Z" fill="#E9EFFF"/>
<path d="M29.771 45.7038H12.2276C11.3504 45.7038 10.7656 45.1191 10.7656 44.242C10.7656 43.8035 11.058 42.7802 12.2276 42.7802H29.771C30.6482 42.7802 31.233 43.3649 31.233 44.242C31.233 44.5344 30.7944 45.7038 29.771 45.7038Z" fill="#E9EFFF"/>
<mask id="mask2_7804_333" style="mask-type:luminance" maskUnits="userSpaceOnUse" x="6" y="0" width="18" height="17">
<path d="M14.4213 0.680361L12.0822 5.35811L6.81916 6.08901C6.23438 6.23519 6.08818 6.81991 6.38057 7.25845L10.1816 10.9129L9.30448 16.0292C9.15828 16.6139 9.88926 17.0525 10.3278 16.7601L15.0061 14.2751C20.1229 16.9063 19.6844 16.7601 19.9768 16.7601C20.4153 16.7601 20.7077 16.3216 20.7077 15.883L19.8306 10.7668L23.6316 7.11227C24.0702 6.67373 23.7778 5.94283 23.1931 5.94283L17.93 5.21193L15.5909 0.534181C15.4447 0.241821 15.1523 0.241821 15.0061 0.241821C14.8599 0.241821 14.5675 0.388001 14.4213 0.680361Z" fill="white"/>
</mask>
<g mask="url(#mask2_7804_333)">
<path d="M24.0699 0.241821H6.08789V17.1987H24.0699V0.241821Z" fill="url(#paint4_linear_7804_333)"/>
</g>
<defs>
<linearGradient id="paint0_linear_7804_333" x1="0.46907" y1="60.2486" x2="41.4038" y2="60.2486" gradientUnits="userSpaceOnUse">
<stop offset="0.1006" stop-color="#B2EA20"/>
<stop offset="0.3902" stop-color="#AFE71D"/>
<stop offset="0.6426" stop-color="#A4DE16"/>
<stop offset="0.8803" stop-color="#92CF09"/>
<stop offset="1" stop-color="#86C500"/>
</linearGradient>
<linearGradient id="paint1_linear_7804_333" x1="20.9361" y1="67.5535" x2="20.9361" y2="52.9355" gradientUnits="userSpaceOnUse">
<stop offset="0.1006" stop-color="#B2EA20"/>
<stop offset="0.3902" stop-color="#AFE71D"/>
<stop offset="0.6426" stop-color="#A4DE16"/>
<stop offset="0.8803" stop-color="#92CF09"/>
<stop offset="1" stop-color="#86C500"/>
</linearGradient>
<linearGradient id="paint2_linear_7804_333" x1="0.46907" y1="31.7436" x2="41.4038" y2="31.7436" gradientUnits="userSpaceOnUse">
<stop offset="0.1006" stop-color="#00D0EC"/>
<stop offset="0.2511" stop-color="#09C5ED"/>
<stop offset="0.5124" stop-color="#21A9F0"/>
<stop offset="0.8509" stop-color="#477BF5"/>
<stop offset="1" stop-color="#5A65F7"/>
</linearGradient>
<linearGradient id="paint3_linear_7804_333" x1="20.9308" y1="52.9405" x2="20.9308" y2="10.5484" gradientUnits="userSpaceOnUse">
<stop offset="0.1006" stop-color="#00D0EC"/>
<stop offset="0.2511" stop-color="#09C5ED"/>
<stop offset="0.5124" stop-color="#21A9F0"/>
<stop offset="0.8509" stop-color="#477BF5"/>
<stop offset="1" stop-color="#5A65F7"/>
</linearGradient>
<linearGradient id="paint4_linear_7804_333" x1="6.11009" y1="8.94126" x2="23.6534" y2="8.94126" gradientUnits="userSpaceOnUse">
<stop offset="0.1006" stop-color="#B2EA20"/>
<stop offset="0.3902" stop-color="#AFE71D"/>
<stop offset="0.6426" stop-color="#A4DE16"/>
<stop offset="0.8803" stop-color="#92CF09"/>
<stop offset="1" stop-color="#86C500"/>
</linearGradient>
</defs>
</svg>
