<svg width="213" height="373" viewBox="0 0 213 373" fill="none" xmlns="http://www.w3.org/2000/svg">
<path fill-rule="evenodd" clip-rule="evenodd" d="M0 53L54 53L54 -5.45466e-07C24.2069 -4.45384e-06 3.85705e-06 23.5759 0 53Z" fill="#2C2E33"/>
<path fill-rule="evenodd" clip-rule="evenodd" d="M107 0L54 -2.3167e-06L54 53C83.2414 53 107 29.4241 107 0Z" fill="#2C2E33"/>
<path fill-rule="evenodd" clip-rule="evenodd" d="M213 53L213 3.8147e-06L161 -7.3258e-07C161 29.2414 184.131 53 213 53Z" fill="#2C2E33"/>
<path fill-rule="evenodd" clip-rule="evenodd" d="M54 107L54 53L9.04791e-07 53C-1.69906e-06 82.7931 24.0207 107 54 107Z" fill="#2C2E33"/>
<path fill-rule="evenodd" clip-rule="evenodd" d="M0 159L54 159L54 107C24.2069 107 3.78427e-06 130.131 0 159Z" fill="#2C2E33"/>
<path fill-rule="evenodd" clip-rule="evenodd" d="M107 107L107 53L54 53C54 82.7931 77.5759 107 107 107Z" fill="#2C2E33"/>
<path fill-rule="evenodd" clip-rule="evenodd" d="M107 213L107 159L54 159C54 188.793 77.5759 213 107 213Z" fill="#2C2E33"/>
<path fill-rule="evenodd" clip-rule="evenodd" d="M107 159L107 107L54 107C54 135.69 77.5759 159 107 159Z" fill="#2C2E33"/>
<path fill-rule="evenodd" clip-rule="evenodd" d="M107 107L107 159L161 159C161 130.31 136.979 107 107 107Z" fill="#2C2E33"/>
<path fill-rule="evenodd" clip-rule="evenodd" d="M107 213L54 213L54 266C83.2414 266 107 242.424 107 213Z" fill="#2C2E33"/>
<path fill-rule="evenodd" clip-rule="evenodd" d="M107 213L161 213L161 159C131.207 159 107 183.021 107 213Z" fill="#2C2E33"/>
<path fill-rule="evenodd" clip-rule="evenodd" d="M161 213L213 213L213 159C184.31 159 161 183.021 161 213Z" fill="#2C2E33"/>
<path fill-rule="evenodd" clip-rule="evenodd" d="M107 266L161 266L161 213C131.207 213 107 236.576 107 266Z" fill="#2C2E33"/>
<path fill-rule="evenodd" clip-rule="evenodd" d="M161 107L161 159L213 159C213 130.31 189.869 107 161 107Z" fill="#2C2E33"/>
<path fill-rule="evenodd" clip-rule="evenodd" d="M213 266L213 213L161 213C161 242.241 184.131 266 213 266Z" fill="#2C2E33"/>
<path fill-rule="evenodd" clip-rule="evenodd" d="M213 53L161 53L161 107C189.69 107 213 82.9793 213 53Z" fill="#2C2E33"/>
<path fill-rule="evenodd" clip-rule="evenodd" d="M161 107L161 53L107 53C107 82.7931 131.021 107 161 107Z" fill="#2C2E33"/>
<path fill-rule="evenodd" clip-rule="evenodd" d="M107 320L107 266L54 266C54 295.793 77.5759 320 107 320Z" fill="#2C2E33"/>
<path fill-rule="evenodd" clip-rule="evenodd" d="M107 373L107 320L54 320C54 349.241 77.5759 373 107 373Z" fill="#2C2E33"/>
<path fill-rule="evenodd" clip-rule="evenodd" d="M107 320L107 373L161 373C161 343.759 136.979 320 107 320Z" fill="#2C2E33"/>
<path fill-rule="evenodd" clip-rule="evenodd" d="M161 320L161 373L213 373C213 343.759 189.869 320 161 320Z" fill="#2C2E33"/>
<path fill-rule="evenodd" clip-rule="evenodd" d="M213 266L161 266L161 320C189.69 320 213 295.979 213 266Z" fill="#2C2E33"/>
</svg>
