<svg width="748" height="374" viewBox="0 0 748 374" fill="none" xmlns="http://www.w3.org/2000/svg">
<path fill-rule="evenodd" clip-rule="evenodd" d="M374 374L467 374L467 280C415.69 280 374 321.814 374 374Z" fill="#E9EFFF"/>
<path fill-rule="evenodd" clip-rule="evenodd" d="M561 93L654 93L654 3.56424e-06C602.69 5.80708e-06 561 41.369 561 93Z" fill="#E9EFFF"/>
<path fill-rule="evenodd" clip-rule="evenodd" d="M0 280L93 280L93 187C41.6897 187 -2.25686e-06 228.369 0 280Z" fill="#E9EFFF"/>
<path fill-rule="evenodd" clip-rule="evenodd" d="M187 374L187 280L93 280C93 331.862 134.814 374 187 374Z" fill="#E9EFFF"/>
<path fill-rule="evenodd" clip-rule="evenodd" d="M374 374L374 280L280 280C280 331.862 321.814 374 374 374Z" fill="#E9EFFF"/>
<path fill-rule="evenodd" clip-rule="evenodd" d="M561 93L561 -7.62939e-06L467 5.88346e-07C467 51.3103 508.814 93 561 93Z" fill="#E9EFFF"/>
<path fill-rule="evenodd" clip-rule="evenodd" d="M654 187L654 93L561 93C561 144.862 602.369 187 654 187Z" fill="#E9EFFF"/>
<path fill-rule="evenodd" clip-rule="evenodd" d="M748 0L654 1.30727e-05L654 93C705.862 93 748 51.631 748 0Z" fill="#E9EFFF"/>
<path fill-rule="evenodd" clip-rule="evenodd" d="M467 187V280H561C561 228.69 519.186 187 467 187Z" fill="#E9EFFF"/>
<path fill-rule="evenodd" clip-rule="evenodd" d="M93 93V187H187C187 135.138 145.186 93 93 93Z" fill="#E9EFFF"/>
<path fill-rule="evenodd" clip-rule="evenodd" d="M187 93V187H280C280 135.138 238.631 93 187 93Z" fill="#E9EFFF"/>
<path fill-rule="evenodd" clip-rule="evenodd" d="M0 374L93 374L93 280C41.6897 280 6.22314e-07 321.814 0 374Z" fill="#E9EFFF"/>
<path fill-rule="evenodd" clip-rule="evenodd" d="M654 374L748 374L748 280C696.138 280 654 321.814 654 374Z" fill="#E9EFFF"/>
<path fill-rule="evenodd" clip-rule="evenodd" d="M561 280L654 280L654 187C602.69 187 561 228.369 561 280Z" fill="#E9EFFF"/>
<path fill-rule="evenodd" clip-rule="evenodd" d="M374 187L467 187L467 93C415.69 93 374 134.814 374 187Z" fill="#E9EFFF"/>
<path fill-rule="evenodd" clip-rule="evenodd" d="M561 374L654 374L654 280C602.69 280 561 321.814 561 374Z" fill="#E9EFFF"/>
<path fill-rule="evenodd" clip-rule="evenodd" d="M654 187L748 187L748 93C696.138 93 654 134.814 654 187Z" fill="#E9EFFF"/>
<path fill-rule="evenodd" clip-rule="evenodd" d="M467 280L561 280L561 374C509.138 374 467 331.862 467 280Z" fill="#E9EFFF"/>
<path fill-rule="evenodd" clip-rule="evenodd" d="M93 187L187 187L187 280C135.138 280 93 238.31 93 187Z" fill="#E9EFFF"/>
<path fill-rule="evenodd" clip-rule="evenodd" d="M654 187L748 187L748 280C696.138 280 654 238.31 654 187Z" fill="#E9EFFF"/>
<path fill-rule="evenodd" clip-rule="evenodd" d="M280 280L280 374L187 374C187 322.138 228.69 280 280 280Z" fill="#E9EFFF"/>
<path fill-rule="evenodd" clip-rule="evenodd" d="M467 0L467 93L374 93C374 41.6897 415.69 0 467 0Z" fill="#E9EFFF"/>
</svg>
