<svg width="118" height="294" viewBox="0 0 118 294" fill="none" xmlns="http://www.w3.org/2000/svg">
<path fill-rule="evenodd" clip-rule="evenodd" d="M0 118L60 118L60 60C26.8966 60 4.22092e-06 85.8 0 118Z" fill="#E9EFFF"/>
<path fill-rule="evenodd" clip-rule="evenodd" d="M0 0L-1.04863e-05 60L60 60C60 26.8966 33.3104 5.82665e-06 0 0Z" fill="#E9EFFF"/>
<path fill-rule="evenodd" clip-rule="evenodd" d="M60 118L118 118L118 60C86 60 60 85.8 60 118Z" fill="#E9EFFF"/>
<path fill-rule="evenodd" clip-rule="evenodd" d="M60 178L118 178L118 118C86 118 60 144.69 60 178Z" fill="#E9EFFF"/>
<path fill-rule="evenodd" clip-rule="evenodd" d="M0 236L-1.01367e-05 294L60 294C60 262 33.3104 236 0 236Z" fill="#E9EFFF"/>
<path fill-rule="evenodd" clip-rule="evenodd" d="M60 236L60 294L118 294C118 262 92.2 236 60 236Z" fill="#E9EFFF"/>
<path fill-rule="evenodd" clip-rule="evenodd" d="M118 178L60 178L60 236C92 236 118 210.2 118 178Z" fill="#E9EFFF"/>
<path fill-rule="evenodd" clip-rule="evenodd" d="M60 178L3.8147e-06 178L1.27944e-06 236C33.1034 236 60 210.2 60 178Z" fill="#E9EFFF"/>
</svg>
