<svg width="374" height="655" viewBox="0 0 374 655" fill="none" xmlns="http://www.w3.org/2000/svg">
<path fill-rule="evenodd" clip-rule="evenodd" d="M187 281L281 281L281 187C229.138 187 187 228.814 187 281Z" fill="#2C2E33"/>
<path fill-rule="evenodd" clip-rule="evenodd" d="M187 468L281 468L281 374C229.138 374 187 415.814 187 468Z" fill="#2C2E33"/>
<path fill-rule="evenodd" clip-rule="evenodd" d="M374 562L374 468L281 468C281 519.862 322.369 562 374 562Z" fill="#2C2E33"/>
<path fill-rule="evenodd" clip-rule="evenodd" d="M374 187L374 94L281 94C281 145.31 322.369 187 374 187Z" fill="#2C2E33"/>
<path fill-rule="evenodd" clip-rule="evenodd" d="M187 562L187 468L94 468C94 519.862 135.369 562 187 562Z" fill="#2C2E33"/>
<path fill-rule="evenodd" clip-rule="evenodd" d="M187 281L187 187L94 187C94 238.862 135.369 281 187 281Z" fill="#2C2E33"/>
<path fill-rule="evenodd" clip-rule="evenodd" d="M281 374L281 281L187 281C187 332.31 228.814 374 281 374Z" fill="#2C2E33"/>
<path fill-rule="evenodd" clip-rule="evenodd" d="M187 187L187 94L94 94C94 145.31 135.369 187 187 187Z" fill="#2C2E33"/>
<path fill-rule="evenodd" clip-rule="evenodd" d="M374 187L281 187L281 281C332.31 281 374 239.186 374 187Z" fill="#2C2E33"/>
<path fill-rule="evenodd" clip-rule="evenodd" d="M0 0L0 94H94C94 42.1379 52.1862 0 0 0Z" fill="#2C2E33"/>
<path fill-rule="evenodd" clip-rule="evenodd" d="M94 0V94H187C187 42.1379 145.631 0 94 0Z" fill="#2C2E33"/>
<path fill-rule="evenodd" clip-rule="evenodd" d="M187 562L281 562L281 468C229.138 468 187 509.814 187 562Z" fill="#2C2E33"/>
<path fill-rule="evenodd" clip-rule="evenodd" d="M0 562L94 562L94 468C42.1379 468 6.22314e-07 509.814 0 562Z" fill="#2C2E33"/>
<path fill-rule="evenodd" clip-rule="evenodd" d="M0 374L94 374L94 281C42.1379 281 -2.25686e-06 322.369 0 374Z" fill="#2C2E33"/>
<path fill-rule="evenodd" clip-rule="evenodd" d="M281 374L374 374L374 281C322.69 281 281 322.369 281 374Z" fill="#2C2E33"/>
<path fill-rule="evenodd" clip-rule="evenodd" d="M281 374L374 374L374 468C322.69 468 281 425.862 281 374Z" fill="#2C2E33"/>
<path fill-rule="evenodd" clip-rule="evenodd" d="M281 94L281 187L187 187C187 135.69 229.138 94 281 94Z" fill="#2C2E33"/>
<path fill-rule="evenodd" clip-rule="evenodd" d="M374 0L374 94L281 94C281 42.1379 322.69 0 374 0Z" fill="#2C2E33"/>
<path fill-rule="evenodd" clip-rule="evenodd" d="M94 187L94 281L0 281C0 229.138 42.1379 187 94 187Z" fill="#2C2E33"/>
<path fill-rule="evenodd" clip-rule="evenodd" d="M94 655L94 562L-5.00924e-07 562C3.98477e-06 613.31 41.8138 655 94 655Z" fill="#2C2E33"/>
</svg>
