<svg width="316" height="190" viewBox="0 0 316 190" fill="none" xmlns="http://www.w3.org/2000/svg">
<path d="M252.125 63H189V126.125H252.125V63Z" fill="#327AF0"/>
<path d="M252.125 126.125H189V63H197.707L252.125 117.418V126.125Z" fill="url(#paint0_linear_8006_60)"/>
<path d="M315.1 126H252V189.1H285.1C301.669 189.1 315.1 175.669 315.1 159.1V126Z" fill="#327AF0"/>
<path d="M293.123 148.194H274.193V167.124H293.123V148.194Z" fill="url(#paint1_linear_8006_60)"/>
<path d="M63.1 126H0V159.1C0 175.669 13.4315 189.1 30 189.1H63.1V126Z" fill="url(#paint2_linear_8006_60)"/>
<path d="M0 170V126H63.1V134.703L13.5 184.273L0 170Z" fill="url(#paint3_linear_8006_60)"/>
<path d="M126.125 63H63V126.125H126.125V63Z" fill="url(#paint4_linear_8006_60)"/>
<path d="M63 63H126.125V126.125H117.418L63 71.7069V63Z" fill="url(#paint5_linear_8006_60)"/>
<path d="M125.95 189.1L189.05 189.1L189.05 126L125.95 126L125.95 189.1Z" fill="#E9EFFF"/>
<path d="M125.95 189.1L125.95 126L189.05 126L189.05 134.704L134.653 189.1L125.95 189.1Z" fill="url(#paint6_linear_8006_60)"/>
<path d="M251.883 126H189V189.1H251.883V126Z" fill="url(#paint7_linear_8006_60)"/>
<path d="M196.731 189.1C227.305 189.1 252.025 164.513 252.025 134.051V126H188.925V189.1H196.731Z" fill="url(#paint8_linear_8006_60)"/>
<path d="M315.125 62.9078L315.125 -0.000244141L252 -0.000243388L252 62.9078L315.125 62.9078Z" fill="#E9EFFF"/>
<path d="M315.125 55.3155C315.125 24.7291 290.31 -0.000243845 259.836 -0.000243481L252 -0.000243388L252 63.1248L315.125 63.1248L315.125 55.3155Z" fill="url(#paint9_linear_8006_60)"/>
<path d="M275.291 63.1252L275.291 49.0251C275.291 44.4697 278.991 40.782 283.562 40.782C288.134 40.782 291.834 44.4697 291.834 49.0251L291.834 63.1252" fill="url(#paint10_linear_8006_60)"/>
<path fill-rule="evenodd" clip-rule="evenodd" d="M126.075 189.1H62.9746V126H126.075V189.1Z" fill="url(#paint11_linear_8006_60)"/>
<path fill-rule="evenodd" clip-rule="evenodd" d="M126.075 126V189.1H62.9746C62.9746 154.286 91.2608 126 126.075 126Z" fill="url(#paint12_linear_8006_60)"/>
<path fill-rule="evenodd" clip-rule="evenodd" d="M126.074 157.55V189.1H94.5244C94.5244 171.693 108.668 157.55 126.074 157.55Z" fill="url(#paint13_linear_8006_60)"/>
<path fill-rule="evenodd" clip-rule="evenodd" d="M252 126L315 126L315 63C280.241 63 252 91.0241 252 126Z" fill="#E9EFFF"/>
<path fill-rule="evenodd" clip-rule="evenodd" d="M63 126L63 63L2.12176e-06 63C5.16045e-06 97.7586 28.0241 126 63 126Z" fill="#E9EFFF"/>
<path fill-rule="evenodd" clip-rule="evenodd" d="M126 63L126 126L189 126C189 91.2414 160.976 63 126 63Z" fill="#E9EFFF"/>
<defs>
<linearGradient id="paint0_linear_8006_60" x1="177.709" y1="87.3205" x2="253.777" y2="122.792" gradientUnits="userSpaceOnUse">
<stop offset="0.1006" stop-color="#00D0EC"/>
<stop offset="0.2511" stop-color="#09C5ED"/>
<stop offset="0.5124" stop-color="#21A9F0"/>
<stop offset="0.8509" stop-color="#477BF5"/>
<stop offset="1" stop-color="#5A65F7"/>
</linearGradient>
<linearGradient id="paint1_linear_8006_60" x1="272.236" y1="152.341" x2="294.962" y2="162.939" gradientUnits="userSpaceOnUse">
<stop offset="0.1006" stop-color="#B2EA20"/>
<stop offset="0.3902" stop-color="#AFE71D"/>
<stop offset="0.6426" stop-color="#A4DE16"/>
<stop offset="0.8803" stop-color="#92CF09"/>
<stop offset="1" stop-color="#86C500"/>
</linearGradient>
<linearGradient id="paint2_linear_8006_60" x1="0.106617" y1="157.525" x2="63.2397" y2="157.525" gradientUnits="userSpaceOnUse">
<stop offset="0.1006" stop-color="#B2EA20"/>
<stop offset="0.3902" stop-color="#AFE71D"/>
<stop offset="0.6426" stop-color="#A4DE16"/>
<stop offset="0.8803" stop-color="#92CF09"/>
<stop offset="1" stop-color="#86C500"/>
</linearGradient>
<linearGradient id="paint3_linear_8006_60" x1="-6.32409" y1="139.797" x2="48.7355" y2="165.383" gradientUnits="userSpaceOnUse">
<stop offset="0.1006" stop-color="#00D0EC"/>
<stop offset="0.2511" stop-color="#09C5ED"/>
<stop offset="0.5124" stop-color="#21A9F0"/>
<stop offset="0.8509" stop-color="#477BF5"/>
<stop offset="1" stop-color="#5A65F7"/>
</linearGradient>
<linearGradient id="paint4_linear_8006_60" x1="63.0287" y1="94.579" x2="126.187" y2="94.579" gradientUnits="userSpaceOnUse">
<stop offset="0.1006" stop-color="#B2EA20"/>
<stop offset="0.3902" stop-color="#AFE71D"/>
<stop offset="0.6426" stop-color="#A4DE16"/>
<stop offset="0.8803" stop-color="#92CF09"/>
<stop offset="1" stop-color="#86C500"/>
</linearGradient>
<linearGradient id="paint5_linear_8006_60" x1="61.4382" y1="66.4111" x2="137.506" y2="101.882" gradientUnits="userSpaceOnUse">
<stop offset="0.1006" stop-color="#00D0EC"/>
<stop offset="0.2511" stop-color="#09C5ED"/>
<stop offset="0.5124" stop-color="#21A9F0"/>
<stop offset="0.8509" stop-color="#477BF5"/>
<stop offset="1" stop-color="#5A65F7"/>
</linearGradient>
<linearGradient id="paint6_linear_8006_60" x1="174.747" y1="165.644" x2="119.565" y2="139.912" gradientUnits="userSpaceOnUse">
<stop offset="0.1006" stop-color="#00D0EC"/>
<stop offset="0.2511" stop-color="#09C5ED"/>
<stop offset="0.5124" stop-color="#21A9F0"/>
<stop offset="0.8509" stop-color="#477BF5"/>
<stop offset="1" stop-color="#5A65F7"/>
</linearGradient>
<linearGradient id="paint7_linear_8006_60" x1="189.093" y1="157.644" x2="252.009" y2="157.644" gradientUnits="userSpaceOnUse">
<stop offset="0.1006" stop-color="#B2EA20"/>
<stop offset="0.3902" stop-color="#AFE71D"/>
<stop offset="0.6426" stop-color="#A4DE16"/>
<stop offset="0.8803" stop-color="#92CF09"/>
<stop offset="1" stop-color="#86C500"/>
</linearGradient>
<linearGradient id="paint8_linear_8006_60" x1="188.928" y1="157.644" x2="252.023" y2="157.644" gradientUnits="userSpaceOnUse">
<stop offset="0.1006" stop-color="#00D0EC"/>
<stop offset="0.2511" stop-color="#09C5ED"/>
<stop offset="0.5124" stop-color="#21A9F0"/>
<stop offset="0.8509" stop-color="#477BF5"/>
<stop offset="1" stop-color="#5A65F7"/>
</linearGradient>
<linearGradient id="paint9_linear_8006_60" x1="293.612" y1="10.0798" x2="265.921" y2="69.668" gradientUnits="userSpaceOnUse">
<stop offset="0.1006" stop-color="#00D0EC"/>
<stop offset="0.2511" stop-color="#09C5ED"/>
<stop offset="0.5124" stop-color="#21A9F0"/>
<stop offset="0.8509" stop-color="#477BF5"/>
<stop offset="1" stop-color="#5A65F7"/>
</linearGradient>
<linearGradient id="paint10_linear_8006_60" x1="291.787" y1="52.0109" x2="275.282" y2="52.0109" gradientUnits="userSpaceOnUse">
<stop offset="0.1006" stop-color="#B2EA20"/>
<stop offset="0.3902" stop-color="#AFE71D"/>
<stop offset="0.6426" stop-color="#A4DE16"/>
<stop offset="0.8803" stop-color="#92CF09"/>
<stop offset="1" stop-color="#86C500"/>
</linearGradient>
<linearGradient id="paint11_linear_8006_60" x1="63.0075" y1="157.592" x2="126.14" y2="157.592" gradientUnits="userSpaceOnUse">
<stop offset="0.1006" stop-color="#00D0EC"/>
<stop offset="0.2607" stop-color="#04CBEC"/>
<stop offset="0.44" stop-color="#0FBEEE"/>
<stop offset="0.6285" stop-color="#22A8F0"/>
<stop offset="0.822" stop-color="#3C88F3"/>
<stop offset="1" stop-color="#5A65F7"/>
</linearGradient>
<linearGradient id="paint12_linear_8006_60" x1="111.525" y1="195.665" x2="85.8405" y2="137.976" gradientUnits="userSpaceOnUse">
<stop stop-color="#D1ECF3"/>
<stop offset="0.1324" stop-color="#C9EBF3"/>
<stop offset="0.3334" stop-color="#B4E6F2"/>
<stop offset="0.578" stop-color="#92E0F1"/>
<stop offset="0.8544" stop-color="#63D6EF"/>
<stop offset="1" stop-color="#47D1EE"/>
</linearGradient>
<linearGradient id="paint13_linear_8006_60" x1="105.152" y1="165.044" x2="121.882" y2="191.818" gradientUnits="userSpaceOnUse">
<stop offset="0.1006" stop-color="#00D0EC"/>
<stop offset="0.2607" stop-color="#04CBEC"/>
<stop offset="0.44" stop-color="#0FBEEE"/>
<stop offset="0.6285" stop-color="#22A8F0"/>
<stop offset="0.822" stop-color="#3C88F3"/>
<stop offset="1" stop-color="#5A65F7"/>
</linearGradient>
</defs>
</svg>
