<svg width="650" height="1024" viewBox="0 0 650 1024" fill="none" xmlns="http://www.w3.org/2000/svg">
<path fill-rule="evenodd" clip-rule="evenodd" d="M463 281L557 281L557 187C505.138 187 463 228.814 463 281Z" fill="#E9EFFF"/>
<path fill-rule="evenodd" clip-rule="evenodd" d="M93 281L187 281L187 187C135.138 187 93 228.814 93 281Z" fill="#E9EFFF"/>
<path fill-rule="evenodd" clip-rule="evenodd" d="M463 468L557 468L557 374C505.138 374 463 415.814 463 468Z" fill="#E9EFFF"/>
<path fill-rule="evenodd" clip-rule="evenodd" d="M276 468L370 468L370 374C318.138 374 276 415.814 276 468Z" fill="#E9EFFF"/>
<path fill-rule="evenodd" clip-rule="evenodd" d="M93 468L187 468L187 374C135.138 374 93 415.814 93 468Z" fill="#E9EFFF"/>
<path fill-rule="evenodd" clip-rule="evenodd" d="M650 562L650 468L557 468C557 519.862 598.369 562 650 562Z" fill="#E9EFFF"/>
<path fill-rule="evenodd" clip-rule="evenodd" d="M280 562L280 468L187 468C187 519.862 228.369 562 280 562Z" fill="#E9EFFF"/>
<path fill-rule="evenodd" clip-rule="evenodd" d="M650 187L650 94L557 94C557 145.31 598.369 187 650 187Z" fill="#E9EFFF"/>
<path fill-rule="evenodd" clip-rule="evenodd" d="M280 187L280 94L187 94C187 145.31 228.369 187 280 187Z" fill="#E9EFFF"/>
<path fill-rule="evenodd" clip-rule="evenodd" d="M650 749L650 656L557 656C557 707.31 598.369 749 650 749Z" fill="#E9EFFF"/>
<path fill-rule="evenodd" clip-rule="evenodd" d="M650 935L650 842L557 842C557 893.31 598.369 935 650 935Z" fill="#E9EFFF"/>
<path fill-rule="evenodd" clip-rule="evenodd" d="M650 1028L650 935L557 935C557 986.31 598.369 1028 650 1028Z" fill="#E9EFFF"/>
<path fill-rule="evenodd" clip-rule="evenodd" d="M280 749L280 656L187 656C187 707.31 228.369 749 280 749Z" fill="#E9EFFF"/>
<path fill-rule="evenodd" clip-rule="evenodd" d="M280 935L280 842L187 842C187 893.31 228.369 935 280 935Z" fill="#E9EFFF"/>
<path fill-rule="evenodd" clip-rule="evenodd" d="M280 1028L280 935L187 935C187 986.31 228.369 1028 280 1028Z" fill="#E9EFFF"/>
<path fill-rule="evenodd" clip-rule="evenodd" d="M463 562L463 468L370 468C370 519.862 411.369 562 463 562Z" fill="#E9EFFF"/>
<path fill-rule="evenodd" clip-rule="evenodd" d="M93 562L93 468L-5.88347e-07 468C3.94558e-06 519.862 41.369 562 93 562Z" fill="#E9EFFF"/>
<path fill-rule="evenodd" clip-rule="evenodd" d="M463 281L463 187L370 187C370 238.862 411.369 281 463 281Z" fill="#E9EFFF"/>
<path fill-rule="evenodd" clip-rule="evenodd" d="M93 281L93 187L-5.88347e-07 187C3.94558e-06 238.862 41.369 281 93 281Z" fill="#E9EFFF"/>
<path fill-rule="evenodd" clip-rule="evenodd" d="M93 374L93 280L-5.88347e-07 280C3.94558e-06 331.862 41.369 374 93 374Z" fill="#E9EFFF"/>
<path fill-rule="evenodd" clip-rule="evenodd" d="M557 374L557 281L463 281C463 332.31 504.814 374 557 374Z" fill="#E9EFFF"/>
<path fill-rule="evenodd" clip-rule="evenodd" d="M187 374L187 281L93 281C93 332.31 134.814 374 187 374Z" fill="#E9EFFF"/>
<path fill-rule="evenodd" clip-rule="evenodd" d="M370 749L370 656L276 656C276 707.31 317.814 749 370 749Z" fill="#E9EFFF"/>
<path fill-rule="evenodd" clip-rule="evenodd" d="M370 935L370 842L276 842C276 893.31 317.814 935 370 935Z" fill="#E9EFFF"/>
<path fill-rule="evenodd" clip-rule="evenodd" d="M370 1028L370 935L276 935C276 986.31 317.814 1028 370 1028Z" fill="#E9EFFF"/>
<path fill-rule="evenodd" clip-rule="evenodd" d="M463 187L463 94L370 94C370 145.31 411.369 187 463 187Z" fill="#E9EFFF"/>
<path fill-rule="evenodd" clip-rule="evenodd" d="M93 187L93 94L-5.00924e-07 94C3.98477e-06 145.31 41.369 187 93 187Z" fill="#E9EFFF"/>
<path fill-rule="evenodd" clip-rule="evenodd" d="M463 749L463 656L370 656C370 707.31 411.369 749 463 749Z" fill="#E9EFFF"/>
<path fill-rule="evenodd" clip-rule="evenodd" d="M463 935L463 842L370 842C370 893.31 411.369 935 463 935Z" fill="#E9EFFF"/>
<path fill-rule="evenodd" clip-rule="evenodd" d="M463 1028L463 935L370 935C370 986.31 411.369 1028 463 1028Z" fill="#E9EFFF"/>
<path fill-rule="evenodd" clip-rule="evenodd" d="M93 749L93 656L-5.00924e-07 656C3.98477e-06 707.31 41.369 749 93 749Z" fill="#E9EFFF"/>
<path fill-rule="evenodd" clip-rule="evenodd" d="M93 935L93 842L-5.00924e-07 842C3.98477e-06 893.31 41.369 935 93 935Z" fill="#E9EFFF"/>
<path fill-rule="evenodd" clip-rule="evenodd" d="M93 1028L93 935L-5.00924e-07 935C3.98477e-06 986.31 41.369 1028 93 1028Z" fill="#E9EFFF"/>
<path fill-rule="evenodd" clip-rule="evenodd" d="M650 187L557 187L557 281C608.31 281 650 239.186 650 187Z" fill="#E9EFFF"/>
<path fill-rule="evenodd" clip-rule="evenodd" d="M280 187L187 187L187 281C238.31 281 280 239.186 280 187Z" fill="#E9EFFF"/>
<path fill-rule="evenodd" clip-rule="evenodd" d="M276 0V94H370C370 42.1379 328.186 0 276 0Z" fill="#E9EFFF"/>
<path fill-rule="evenodd" clip-rule="evenodd" d="M370 0V94H463C463 42.1379 421.631 0 370 0Z" fill="#E9EFFF"/>
<path fill-rule="evenodd" clip-rule="evenodd" d="M0 0L0 94H93C93 42.1379 51.631 0 0 0Z" fill="#E9EFFF"/>
<path fill-rule="evenodd" clip-rule="evenodd" d="M370 562V656H463C463 604.138 421.631 562 370 562Z" fill="#E9EFFF"/>
<path fill-rule="evenodd" clip-rule="evenodd" d="M370 749V843H463C463 791.138 421.631 749 370 749Z" fill="#E9EFFF"/>
<path fill-rule="evenodd" clip-rule="evenodd" d="M0 562L0 656H93C93 604.138 51.631 562 0 562Z" fill="#E9EFFF"/>
<path fill-rule="evenodd" clip-rule="evenodd" d="M93 843L93 749L8.21774e-06 749C3.68381e-06 800.862 41.369 843 93 843Z" fill="#E9EFFF"/>
<path fill-rule="evenodd" clip-rule="evenodd" d="M463 562L557 562L557 468C505.138 468 463 509.814 463 562Z" fill="#E9EFFF"/>
<path fill-rule="evenodd" clip-rule="evenodd" d="M93 562L187 562L187 468C135.138 468 93 509.814 93 562Z" fill="#E9EFFF"/>
<path fill-rule="evenodd" clip-rule="evenodd" d="M276 562L370 562L370 468C318.138 468 276 509.814 276 562Z" fill="#E9EFFF"/>
<path fill-rule="evenodd" clip-rule="evenodd" d="M276 374L370 374L370 281C318.138 281 276 322.369 276 374Z" fill="#E9EFFF"/>
<path fill-rule="evenodd" clip-rule="evenodd" d="M557 374L650 374L650 281C598.69 281 557 322.369 557 374Z" fill="#E9EFFF"/>
<path fill-rule="evenodd" clip-rule="evenodd" d="M187 374L280 374L280 281C228.69 281 187 322.369 187 374Z" fill="#E9EFFF"/>
<path fill-rule="evenodd" clip-rule="evenodd" d="M557 374L650 374L650 468C598.69 468 557 425.862 557 374Z" fill="#E9EFFF"/>
<path fill-rule="evenodd" clip-rule="evenodd" d="M187 374L280 374L280 468C228.69 468 187 425.862 187 374Z" fill="#E9EFFF"/>
<path fill-rule="evenodd" clip-rule="evenodd" d="M557 94L557 187L463 187C463 135.69 505.138 94 557 94Z" fill="#E9EFFF"/>
<path fill-rule="evenodd" clip-rule="evenodd" d="M187 94L187 187L93 187C93 135.69 135.138 94 187 94Z" fill="#E9EFFF"/>
<path fill-rule="evenodd" clip-rule="evenodd" d="M557 656L557 749L463 749C463 697.69 505.138 656 557 656Z" fill="#E9EFFF"/>
<path fill-rule="evenodd" clip-rule="evenodd" d="M557 842L557 935L463 935C463 883.69 505.138 842 557 842Z" fill="#E9EFFF"/>
<path fill-rule="evenodd" clip-rule="evenodd" d="M557 935L557 1028L463 1028C463 976.69 505.138 935 557 935Z" fill="#E9EFFF"/>
<path fill-rule="evenodd" clip-rule="evenodd" d="M187 656L187 749L93 749C93 697.69 135.138 656 187 656Z" fill="#E9EFFF"/>
<path fill-rule="evenodd" clip-rule="evenodd" d="M187 842L187 935L93 935C93 883.69 135.138 842 187 842Z" fill="#E9EFFF"/>
<path fill-rule="evenodd" clip-rule="evenodd" d="M187 750L187 843L93 843C93 791.69 135.138 750 187 750Z" fill="#E9EFFF"/>
<path fill-rule="evenodd" clip-rule="evenodd" d="M187 935L187 1028L93 1028C93 976.69 135.138 935 187 935Z" fill="#E9EFFF"/>
<path fill-rule="evenodd" clip-rule="evenodd" d="M650 0L650 94L557 94C557 42.1379 598.69 0 650 0Z" fill="#E9EFFF"/>
<path fill-rule="evenodd" clip-rule="evenodd" d="M280 0L280 94L187 94C187 42.1379 228.69 0 280 0Z" fill="#E9EFFF"/>
<path fill-rule="evenodd" clip-rule="evenodd" d="M187 0L187 94L94 94C94 42.1379 135.69 0 187 0Z" fill="#E9EFFF"/>
<path fill-rule="evenodd" clip-rule="evenodd" d="M650 562L650 656L557 656C557 604.138 598.69 562 650 562Z" fill="#E9EFFF"/>
<path fill-rule="evenodd" clip-rule="evenodd" d="M650 749L650 843L557 843C557 791.138 598.69 749 650 749Z" fill="#E9EFFF"/>
<path fill-rule="evenodd" clip-rule="evenodd" d="M280 562L280 656L187 656C187 604.138 228.69 562 280 562Z" fill="#E9EFFF"/>
<path fill-rule="evenodd" clip-rule="evenodd" d="M280 749L280 843L187 843C187 791.138 228.69 749 280 749Z" fill="#E9EFFF"/>
<path fill-rule="evenodd" clip-rule="evenodd" d="M370 187L370 281L276 281C276 229.138 318.138 187 370 187Z" fill="#E9EFFF"/>
<path fill-rule="evenodd" clip-rule="evenodd" d="M370 655L370 562L276 562C276 613.31 317.814 655 370 655Z" fill="#E9EFFF"/>
<path fill-rule="evenodd" clip-rule="evenodd" d="M370 842L370 749L276 749C276 800.31 317.814 842 370 842Z" fill="#E9EFFF"/>
</svg>
