<svg width="140" height="26" viewBox="0 0 140 26" fill="none" xmlns="http://www.w3.org/2000/svg">
<g clip-path="url(#clip0_7797_1512)">
<path d="M25.0593 12.8453C28.4144 12.8453 31.1343 10.1319 31.1343 6.78473C31.1343 3.43755 28.4144 0.724121 25.0593 0.724121C21.7042 0.724121 18.9844 3.43755 18.9844 6.78473C18.9844 10.1319 21.7042 12.8453 25.0593 12.8453Z" fill="url(#paint0_linear_7797_1512)"/>
<path d="M6.35156 21.1098L18.5015 23.7268C21.746 24.4156 25.1287 23.2448 27.1997 20.6965L36.2431 9.67726V5.95825L6.35156 21.1098Z" fill="url(#paint1_linear_7797_1512)"/>
<path d="M0 14.7048L12.9093 9.95276L22.2288 18.9059C23.6095 20.2833 25.7495 20.5588 27.4753 19.5946L28.5799 18.9748L27.1302 20.7654C22.0217 26.9638 12.6331 27.4459 6.97239 21.7296L0 14.7048Z" fill="url(#paint2_linear_7797_1512)"/>
<path d="M46.8737 9.95275V19.388H43.9053V7.40454H54.3984V19.4569H51.4299V9.95275H46.8737Z" fill="currentColor"/>
<path d="M56.8145 22.7626V11.4678H59.4377V22.7626H56.8145ZM65.3746 17.7351C65.0294 18.3549 64.5462 18.837 63.9939 19.1813C63.4417 19.5257 62.8204 19.6634 62.13 19.6634C61.4397 19.6634 60.8184 19.4568 60.3352 19.1125C59.8519 18.7681 59.4377 18.286 59.1616 17.6662C58.8855 17.0464 58.7474 16.2888 58.7474 15.4623C58.7474 14.6359 58.8855 13.8783 59.1616 13.2585C59.4377 12.6386 59.7829 12.1565 60.3352 11.8122C60.8184 11.4678 61.4397 11.2612 62.13 11.2612C62.7513 11.2612 63.3726 11.399 63.9939 11.7433C64.5462 12.0877 65.0294 12.5698 65.3746 13.1896C65.7198 13.8094 65.9269 14.567 65.9269 15.5312C65.9269 16.3576 65.7198 17.1152 65.3746 17.7351ZM62.8894 14.4293C62.7513 14.1538 62.4752 13.9472 62.1991 13.8094C61.9229 13.6717 61.5778 13.6028 61.2326 13.6028C60.9565 13.6028 60.6113 13.6717 60.3352 13.8094C60.059 13.9472 59.8519 14.1538 59.6448 14.4293C59.4377 14.7048 59.3687 15.0491 59.3687 15.4623C59.3687 15.8756 59.4377 16.2199 59.6448 16.4954C59.8519 16.7709 60.059 16.9775 60.3352 17.1152C60.6113 17.253 60.8874 17.3218 61.2326 17.3218C61.5778 17.3218 61.9229 17.253 62.1991 17.1152C62.4752 16.9775 62.6823 16.7709 62.8894 16.4954C63.0275 16.2199 63.1655 15.8756 63.1655 15.4623C63.1655 15.0491 63.0965 14.7048 62.8894 14.4293Z" fill="currentColor"/>
<path d="M67.5835 13.2586C67.9977 12.6387 68.481 12.1566 69.1713 11.8123C69.8616 11.4679 70.621 11.3302 71.5184 11.3302C72.3468 11.3302 73.1752 11.4679 73.8656 11.8123C74.5559 12.1566 75.1082 12.6387 75.4533 13.2586C75.8675 13.8784 76.0746 14.636 76.0746 15.4624C76.0746 16.2889 75.8675 16.9776 75.4533 17.5974C75.0391 18.2173 74.4869 18.6993 73.8656 19.0437C73.1752 19.3881 72.4159 19.5258 71.5184 19.5258C70.69 19.5258 69.8616 19.3881 69.1713 19.0437C68.481 18.6993 67.9287 18.2173 67.5835 17.5974C67.1693 16.9776 67.0313 16.2889 67.0313 15.4624C67.0312 14.636 67.2384 13.8784 67.5835 13.2586ZM69.9307 16.4955C70.0687 16.771 70.3449 17.0465 70.621 17.1842C70.8971 17.3219 71.1733 17.3908 71.5184 17.3908C71.8636 17.3908 72.1397 17.3219 72.4159 17.1842C72.692 17.0465 72.8991 16.771 73.1062 16.4955C73.3133 16.22 73.3823 15.8757 73.3823 15.4624C73.3823 15.0492 73.3133 14.7049 73.1062 14.4294C72.9681 14.1539 72.692 13.8784 72.4159 13.7407C72.1397 13.6029 71.7946 13.5341 71.5184 13.5341C71.1733 13.5341 70.8971 13.6029 70.621 13.7407C70.3449 13.8784 70.1378 14.1539 69.9307 14.4294C69.7926 14.7049 69.6545 15.0492 69.6545 15.4624C69.6545 15.8757 69.7926 16.22 69.9307 16.4955Z" fill="currentColor"/>
<path d="M80.0785 16.5643C80.2856 16.8398 80.4927 17.1153 80.8379 17.253C81.183 17.3908 81.5282 17.5285 81.8734 17.5285C82.2185 17.5285 82.4947 17.4596 82.7708 17.3908C83.0469 17.3219 83.3231 17.1841 83.5992 16.9775C83.8753 16.8398 84.0824 16.5643 84.2205 16.3577V18.9059C83.9444 19.1125 83.5992 19.3191 83.185 19.4569C82.7708 19.5946 82.2876 19.6635 81.6663 19.6635C80.7688 19.6635 80.0095 19.5257 79.3191 19.1814C78.6288 18.837 78.0765 18.3549 77.6623 17.7351C77.2481 17.1153 77.041 16.4266 77.041 15.6001C77.041 14.7737 77.2481 14.0161 77.6623 13.3963C78.0765 12.7764 78.6288 12.2943 79.3191 11.95C80.0095 11.6056 80.7688 11.4679 81.6663 11.4679C82.2876 11.4679 82.7708 11.5368 83.185 11.6745C83.5992 11.8122 83.9444 11.95 84.2205 12.1566V14.7048C84.0824 14.4293 83.8753 14.2227 83.5992 14.085C83.3231 13.9472 83.0469 13.8095 82.7708 13.6718C82.4947 13.6029 82.1495 13.534 81.8734 13.534C81.5282 13.534 81.114 13.6029 80.8379 13.8095C80.4927 14.0161 80.2856 14.2227 80.0785 14.5671C79.8714 14.8426 79.8024 15.2558 79.8024 15.6001C79.8024 15.8756 79.9404 16.22 80.0785 16.5643Z" fill="currentColor"/>
<path d="M90.7792 11.4679V13.6029H85.1875V11.4679H90.7792ZM89.2605 11.8122V19.388H86.7753V11.8122H89.2605Z" fill="currentColor"/>
<path d="M91.7456 13.2586C92.1598 12.6387 92.6431 12.1566 93.3334 11.8123C94.0237 11.4679 94.7831 11.3302 95.6805 11.3302C96.5089 11.3302 97.3373 11.4679 98.0277 11.8123C98.718 12.1566 99.2703 12.6387 99.6154 13.2586C100.03 13.8784 100.237 14.636 100.237 15.4624C100.237 16.2889 100.03 16.9776 99.6154 17.5974C99.2012 18.2173 98.649 18.6993 98.0277 19.0437C97.3373 19.3881 96.578 19.5258 95.6805 19.5258C94.8521 19.5258 94.0237 19.3881 93.3334 19.0437C92.6431 18.6993 92.0908 18.2173 91.7456 17.5974C91.3314 16.9776 91.1934 16.2889 91.1934 15.4624C91.1934 14.636 91.3314 13.8784 91.7456 13.2586ZM94.0928 16.4955C94.2308 16.771 94.507 17.0465 94.7831 17.1842C95.0592 17.3219 95.3354 17.3908 95.6805 17.3908C96.0257 17.3908 96.3018 17.3219 96.578 17.1842C96.8541 17.0465 97.0612 16.771 97.2683 16.4955C97.4064 16.22 97.5444 15.8757 97.5444 15.4624C97.5444 15.0492 97.4754 14.7049 97.2683 14.4294C97.1302 14.1539 96.8541 13.8784 96.578 13.7407C96.3018 13.6029 95.9567 13.5341 95.6805 13.5341C95.3354 13.5341 95.0592 13.6029 94.7831 13.7407C94.507 13.8784 94.2999 14.1539 94.0928 14.4294C93.9547 14.7049 93.8166 15.0492 93.8166 15.4624C93.8166 15.8757 93.9547 16.22 94.0928 16.4955Z" fill="currentColor"/>
<path d="M108.728 7.40454V19.4569H105.828V7.40454H108.728ZM107.692 7.40454H110.039C111.075 7.40454 111.903 7.54228 112.593 7.88663C113.284 8.23099 113.836 8.64421 114.181 9.26405C114.526 9.81501 114.733 10.5726 114.733 11.399C114.733 12.2255 114.526 12.9142 114.181 13.4651C113.836 14.085 113.284 14.4982 112.593 14.8426C111.903 15.1869 111.006 15.3247 110.039 15.3247H107.692V12.9142H110.039C110.591 12.9142 111.075 12.7764 111.42 12.501C111.765 12.2255 111.903 11.8811 111.903 11.399C111.903 10.9169 111.765 10.5037 111.42 10.2282C111.075 9.95275 110.66 9.81501 110.039 9.81501H107.692V7.40454Z" fill="currentColor"/>
<path d="M119.497 7.40454V19.4569H116.598V7.40454H119.497ZM118.393 7.40454H120.947C121.982 7.40454 122.811 7.54228 123.501 7.88663C124.191 8.23099 124.744 8.71308 125.089 9.26405C125.434 9.88388 125.641 10.5726 125.641 11.3302C125.641 12.0877 125.434 12.7764 125.089 13.3963C124.744 14.0161 124.191 14.4293 123.501 14.7737C122.811 15.118 121.982 15.2558 120.947 15.2558H118.393V12.9831H120.74C121.154 12.9831 121.499 12.9142 121.775 12.7764C122.051 12.6387 122.258 12.501 122.396 12.2255C122.535 12.0189 122.604 11.6745 122.604 11.399C122.604 11.0547 122.535 10.7792 122.396 10.5726C122.258 10.366 122.051 10.1594 121.775 10.0216C121.499 9.88388 121.154 9.81501 120.74 9.81501H118.393V7.40454ZM122.604 13.9472L126.4 19.388H123.018L119.635 13.9472H122.604Z" fill="currentColor"/>
<path d="M127.505 10.8481C127.85 10.0905 128.264 9.40178 128.885 8.85081C129.438 8.29985 130.128 7.88663 130.956 7.54227C131.716 7.26679 132.613 7.06018 133.511 7.06018C134.408 7.06018 135.306 7.19792 136.065 7.54227C136.824 7.81776 137.515 8.29985 138.136 8.85081C138.688 9.40178 139.171 10.0905 139.517 10.8481C139.862 11.6056 140 12.4321 140 13.3963C140 14.2916 139.862 15.1869 139.517 15.9445C139.171 16.7021 138.757 17.3908 138.205 17.9417C137.653 18.4927 136.962 18.9748 136.134 19.2503C135.375 19.5946 134.477 19.7324 133.511 19.7324C132.544 19.7324 131.716 19.5946 130.887 19.2503C130.128 18.9059 129.438 18.4927 128.816 17.9417C128.195 17.3908 127.781 16.7021 127.505 15.9445C127.16 15.1869 127.021 14.2916 127.021 13.3963C127.021 12.4321 127.229 11.6056 127.505 10.8481ZM130.542 15.2558C130.818 15.8067 131.233 16.22 131.716 16.5643C132.199 16.8398 132.82 17.0464 133.511 17.0464C134.201 17.0464 134.753 16.9087 135.306 16.5643C135.789 16.2888 136.203 15.8067 136.479 15.2558C136.755 14.7048 136.893 14.085 136.893 13.3963C136.893 12.7076 136.755 12.0877 136.479 11.5368C136.203 10.9858 135.789 10.5726 135.306 10.2282C134.822 9.95274 134.201 9.74613 133.511 9.74613C132.82 9.74613 132.199 9.88387 131.716 10.2282C131.233 10.5037 130.818 10.9858 130.542 11.5368C130.266 12.0877 130.128 12.7076 130.128 13.3963C130.128 14.085 130.266 14.7048 130.542 15.2558Z" fill="currentColor"/>
</g>
<defs>
<linearGradient id="paint0_linear_7797_1512" x1="19.0421" y1="6.75174" x2="31.1259" y2="6.75174" gradientUnits="userSpaceOnUse">
<stop offset="0.1006" stop-color="#B2EA20"/>
<stop offset="0.3902" stop-color="#AFE71D"/>
<stop offset="0.6426" stop-color="#A4DE16"/>
<stop offset="0.8803" stop-color="#92CF09"/>
<stop offset="1" stop-color="#86C500"/>
</linearGradient>
<linearGradient id="paint1_linear_7797_1512" x1="21.0766" y1="6.51789" x2="21.6806" y2="23.8545" gradientUnits="userSpaceOnUse">
<stop offset="0.1006" stop-color="#00D0EC"/>
<stop offset="0.2607" stop-color="#04CBEC"/>
<stop offset="0.44" stop-color="#0FBEEE"/>
<stop offset="0.6285" stop-color="#22A8F0"/>
<stop offset="0.822" stop-color="#3C88F3"/>
<stop offset="1" stop-color="#5A65F7"/>
</linearGradient>
<linearGradient id="paint2_linear_7797_1512" x1="14.0636" y1="9.91701" x2="14.6172" y2="25.8097" gradientUnits="userSpaceOnUse">
<stop offset="0.1006" stop-color="#B2EA20"/>
<stop offset="0.3902" stop-color="#AFE71D"/>
<stop offset="0.6426" stop-color="#A4DE16"/>
<stop offset="0.8803" stop-color="#92CF09"/>
<stop offset="1" stop-color="#86C500"/>
</linearGradient>
<clipPath id="clip0_7797_1512">
<rect width="140" height="25" fill="white" transform="translate(0 0.724121)"/>
</clipPath>
</defs>
</svg>
