<svg width="410" height="164" viewBox="0 0 410 164" fill="none" xmlns="http://www.w3.org/2000/svg">
<path fill-rule="evenodd" clip-rule="evenodd" d="M328 0V82H410C410 36.7586 373.524 0 328 0Z" fill="#E9EFFF"/>
<path fill-rule="evenodd" clip-rule="evenodd" d="M410 164L410 82L328 82C328 127.241 364.476 164 410 164Z" fill="#E9EFFF"/>
<path fill-rule="evenodd" clip-rule="evenodd" d="M246 0V82L328 82C328 36.7586 291.524 0 246 0Z" fill="#E9EFFF"/>
<path fill-rule="evenodd" clip-rule="evenodd" d="M246 82V164H328C328 118.759 291.524 82 246 82Z" fill="#E9EFFF"/>
<path fill-rule="evenodd" clip-rule="evenodd" d="M246 164L246 82L164 82C164 127.241 200.476 164 246 164Z" fill="#E9EFFF"/>
<path fill-rule="evenodd" clip-rule="evenodd" d="M246 0L164 -3.58433e-06L164 82C209.241 82 246 45.5241 246 0Z" fill="#E9EFFF"/>
<path fill-rule="evenodd" clip-rule="evenodd" d="M164 0L82 -3.58433e-06L82 82C127.241 82 164 45.5241 164 0Z" fill="#E9EFFF"/>
<path fill-rule="evenodd" clip-rule="evenodd" d="M164 164L164 82L82 82C82 127.241 118.476 164 164 164Z" fill="#E9EFFF"/>
<path fill-rule="evenodd" clip-rule="evenodd" d="M82 164L82 82L7.16867e-06 82C3.21354e-06 127.241 36.4759 164 82 164Z" fill="#E9EFFF"/>
<path fill-rule="evenodd" clip-rule="evenodd" d="M82 0L0 9.7784e-07L9.7784e-07 82C45.2414 82 82 45.5241 82 0Z" fill="#E9EFFF"/>
</svg>
