<svg width="287" height="512" viewBox="0 0 287 512" fill="none" xmlns="http://www.w3.org/2000/svg">
<path fill-rule="evenodd" clip-rule="evenodd" d="M172.502 281.648L230.002 281.648L230.002 224.181C198.278 224.181 172.502 249.744 172.502 281.648Z" fill="#2C2E33"/>
<path fill-rule="evenodd" clip-rule="evenodd" d="M57.502 281.648L115.002 281.648L115.002 224.181C83.2777 224.181 57.502 249.744 57.502 281.648Z" fill="#2C2E33"/>
<path fill-rule="evenodd" clip-rule="evenodd" d="M115.002 224.18L115.002 281.648L172.502 281.648C172.502 249.942 146.924 224.18 115.002 224.18Z" fill="#2C2E33"/>
<path fill-rule="evenodd" clip-rule="evenodd" d="M0.00195312 224.18L0.00195312 281.648L57.5018 281.648C57.5018 249.942 31.9243 224.18 0.00195312 224.18Z" fill="#2C2E33"/>
<path fill-rule="evenodd" clip-rule="evenodd" d="M172.502 339.114L230.002 339.114L230.002 281.647C198.278 281.647 172.502 307.21 172.502 339.114Z" fill="#2C2E33"/>
<path fill-rule="evenodd" clip-rule="evenodd" d="M57.502 339.114L115.002 339.114L115.002 281.647C83.2777 281.647 57.502 307.21 57.502 339.114Z" fill="#2C2E33"/>
<path fill-rule="evenodd" clip-rule="evenodd" d="M115.002 339.114L172.502 339.114L172.502 281.647C140.778 281.647 115.002 307.21 115.002 339.114Z" fill="#2C2E33"/>
<path fill-rule="evenodd" clip-rule="evenodd" d="M172.502 339.114L115.002 339.114L115.002 396.581C146.726 396.581 172.502 371.018 172.502 339.114Z" fill="#2C2E33"/>
<path fill-rule="evenodd" clip-rule="evenodd" d="M57.502 339.114L57.5019 281.647L0.00212739 281.647C0.00213016 313.353 25.5796 339.114 57.502 339.114Z" fill="#2C2E33"/>
<path fill-rule="evenodd" clip-rule="evenodd" d="M57.502 339.114L57.502 396.581L115.002 396.581C115.002 364.875 89.4243 339.114 57.502 339.114Z" fill="#2C2E33"/>
<path fill-rule="evenodd" clip-rule="evenodd" d="M57.502 396.582L57.502 454.049L115.002 454.049C115.002 422.343 89.4243 396.582 57.502 396.582Z" fill="#2C2E33"/>
<path fill-rule="evenodd" clip-rule="evenodd" d="M0.00195312 339.114L0.00195312 396.581L57.5018 396.581C57.5018 364.875 31.9243 339.114 0.00195312 339.114Z" fill="#2C2E33"/>
<path fill-rule="evenodd" clip-rule="evenodd" d="M172.502 396.582L115.002 396.582L115.002 454.049C146.726 454.049 172.502 428.486 172.502 396.582Z" fill="#2C2E33"/>
<path fill-rule="evenodd" clip-rule="evenodd" d="M172.502 454.048L115.002 454.048L115.002 511.515C146.726 511.515 172.502 485.953 172.502 454.048Z" fill="#2C2E33"/>
<path fill-rule="evenodd" clip-rule="evenodd" d="M57.502 454.048L57.502 511.515L115.002 511.515C115.002 479.809 89.4243 454.048 57.502 454.048Z" fill="#2C2E33"/>
<path fill-rule="evenodd" clip-rule="evenodd" d="M0.00195312 454.048L0.00195632 511.515L57.5018 511.515C57.5018 479.809 31.9243 454.048 0.00195312 454.048Z" fill="#2C2E33"/>
<path fill-rule="evenodd" clip-rule="evenodd" d="M230.002 511.516L230.002 454.049L172.502 454.049C172.502 485.755 198.08 511.516 230.002 511.516Z" fill="#2C2E33"/>
<path fill-rule="evenodd" clip-rule="evenodd" d="M0.00195312 454.048L57.5018 454.048L57.5018 396.581C25.7777 396.581 0.00195173 422.144 0.00195312 454.048Z" fill="#2C2E33"/>
<path fill-rule="evenodd" clip-rule="evenodd" d="M230.002 454.048L230.002 396.581L172.502 396.581C172.502 428.287 198.08 454.048 230.002 454.048Z" fill="#2C2E33"/>
<path fill-rule="evenodd" clip-rule="evenodd" d="M172.502 396.582L230.002 396.582L230.002 339.115C198.278 339.115 172.502 364.678 172.502 396.582Z" fill="#2C2E33"/>
<path fill-rule="evenodd" clip-rule="evenodd" d="M57.1973 57.2297L57.1973 0.000492096L0.000558133 0.000487094C0.000555373 31.5752 25.4432 57.2297 57.1973 57.2297Z" fill="#2C2E33"/>
<path fill-rule="evenodd" clip-rule="evenodd" d="M57.1973 171.688L57.1973 114.459L0.000558133 114.459C0.000555373 146.033 25.4432 171.688 57.1973 171.688Z" fill="#2C2E33"/>
<path fill-rule="evenodd" clip-rule="evenodd" d="M0.00195312 114.459L57.1987 114.459L57.1987 57.2295C25.6419 57.2295 0.00195729 82.6866 0.00195312 114.459Z" fill="#2C2E33"/>
<path fill-rule="evenodd" clip-rule="evenodd" d="M0.00195312 228.917L57.1987 228.917L57.1987 171.688C25.6419 171.688 0.00195729 197.145 0.00195312 228.917Z" fill="#2C2E33"/>
<path fill-rule="evenodd" clip-rule="evenodd" d="M114.395 57.23L114.395 0.000736237L57.1978 0.000731235C57.1978 31.5755 82.6405 57.23 114.395 57.23Z" fill="#2C2E33"/>
<path fill-rule="evenodd" clip-rule="evenodd" d="M114.395 171.688L114.395 114.459L57.1978 114.459C57.1978 146.033 82.6405 171.688 114.395 171.688Z" fill="#2C2E33"/>
<path fill-rule="evenodd" clip-rule="evenodd" d="M114.395 114.459L114.395 57.2295L57.1978 57.2295C57.1978 88.8042 82.6405 114.459 114.395 114.459Z" fill="#2C2E33"/>
<path fill-rule="evenodd" clip-rule="evenodd" d="M114.395 57.23L114.395 114.459L171.591 114.459C171.591 82.8845 146.149 57.23 114.395 57.23Z" fill="#2C2E33"/>
<path fill-rule="evenodd" clip-rule="evenodd" d="M114.395 171.688L57.1978 171.688L57.1978 228.917C88.7546 228.917 114.395 203.46 114.395 171.688Z" fill="#2C2E33"/>
<path fill-rule="evenodd" clip-rule="evenodd" d="M114.395 171.688L171.591 171.688L171.591 114.459C140.034 114.459 114.395 139.916 114.395 171.688Z" fill="#2C2E33"/>
<path fill-rule="evenodd" clip-rule="evenodd" d="M171.592 171.688L228.789 171.688L228.789 114.459C197.232 114.459 171.592 139.916 171.592 171.688Z" fill="#2C2E33"/>
<path fill-rule="evenodd" clip-rule="evenodd" d="M114.395 228.917L171.591 228.917L171.591 171.688C140.034 171.688 114.395 197.145 114.395 228.917Z" fill="#2C2E33"/>
<path fill-rule="evenodd" clip-rule="evenodd" d="M171.592 57.23L171.592 114.459L228.788 114.459C228.789 82.8845 203.346 57.23 171.592 57.23Z" fill="#2C2E33"/>
<path fill-rule="evenodd" clip-rule="evenodd" d="M228.789 57.23L228.789 114.459L285.986 114.459C285.986 82.8845 260.543 57.23 228.789 57.23Z" fill="#2C2E33"/>
<path fill-rule="evenodd" clip-rule="evenodd" d="M228.789 171.688L285.986 171.688L285.986 114.459C254.429 114.459 228.789 139.916 228.789 171.688Z" fill="#2C2E33"/>
<path fill-rule="evenodd" clip-rule="evenodd" d="M228.789 228.917L285.986 228.917L285.986 171.688C254.429 171.688 228.789 197.145 228.789 228.917Z" fill="#2C2E33"/>
<path fill-rule="evenodd" clip-rule="evenodd" d="M228.773 0.0163574V57.2131H286.003C286.003 25.6563 260.546 0.0163574 228.773 0.0163574Z" fill="#2C2E33"/>
<path fill-rule="evenodd" clip-rule="evenodd" d="M228.789 228.917L228.789 171.688L171.592 171.688C171.592 203.263 197.035 228.917 228.789 228.917Z" fill="#2C2E33"/>
<path fill-rule="evenodd" clip-rule="evenodd" d="M228.789 0L171.592 -2.50015e-06L171.592 57.2292C203.149 57.2292 228.789 31.7721 228.789 0Z" fill="#2C2E33"/>
<path fill-rule="evenodd" clip-rule="evenodd" d="M171.592 57.23L171.592 0.000736237L114.395 0.000731235C114.395 31.5755 139.838 57.23 171.592 57.23Z" fill="#2C2E33"/>
</svg>
