<svg width="820" height="328" viewBox="0 0 820 328" fill="none" xmlns="http://www.w3.org/2000/svg">
<path fill-rule="evenodd" clip-rule="evenodd" d="M738 246V328H820C820 282.759 783.524 246 738 246Z" fill="#2C2E33"/>
<path fill-rule="evenodd" clip-rule="evenodd" d="M738 0V82H820C820 36.7586 783.524 0 738 0Z" fill="#2C2E33"/>
<path fill-rule="evenodd" clip-rule="evenodd" d="M738 82V164H820C820 118.759 783.524 82 738 82Z" fill="#2C2E33"/>
<path fill-rule="evenodd" clip-rule="evenodd" d="M820 164L738 164L738 246C783.241 246 820 209.524 820 164Z" fill="#2C2E33"/>
<path fill-rule="evenodd" clip-rule="evenodd" d="M656 246V328H738C738 282.759 701.524 246 656 246Z" fill="#2C2E33"/>
<path fill-rule="evenodd" clip-rule="evenodd" d="M656 0V82L738 82C738 36.7586 701.524 0 656 0Z" fill="#2C2E33"/>
<path fill-rule="evenodd" clip-rule="evenodd" d="M656 82V164H738C738 118.759 701.524 82 656 82Z" fill="#2C2E33"/>
<path fill-rule="evenodd" clip-rule="evenodd" d="M656 164V246H738C738 200.759 701.524 164 656 164Z" fill="#2C2E33"/>
<path fill-rule="evenodd" clip-rule="evenodd" d="M656 246L656 164L574 164C574 209.241 610.476 246 656 246Z" fill="#2C2E33"/>
<path fill-rule="evenodd" clip-rule="evenodd" d="M656 82L574 82L574 164C619.241 164 656 127.524 656 82Z" fill="#2C2E33"/>
<path fill-rule="evenodd" clip-rule="evenodd" d="M574 82L492 82L492 164C537.241 164 574 127.524 574 82Z" fill="#2C2E33"/>
<path fill-rule="evenodd" clip-rule="evenodd" d="M574 246L574 164L492 164C492 209.241 528.476 246 574 246Z" fill="#2C2E33"/>
<path fill-rule="evenodd" clip-rule="evenodd" d="M492 246L492 164L410 164C410 209.241 446.476 246 492 246Z" fill="#2C2E33"/>
<path fill-rule="evenodd" clip-rule="evenodd" d="M492 82L410 82L410 164C455.241 164 492 127.524 492 82Z" fill="#2C2E33"/>
<path fill-rule="evenodd" clip-rule="evenodd" d="M410 328L492 328L492 246C446.759 246 410 282.476 410 328Z" fill="#2C2E33"/>
<path fill-rule="evenodd" clip-rule="evenodd" d="M492 82L492 0L410 -7.16867e-06C410 45.2414 446.476 82 492 82Z" fill="#2C2E33"/>
<path fill-rule="evenodd" clip-rule="evenodd" d="M492 328L574 328L574 246C528.759 246 492 282.476 492 328Z" fill="#2C2E33"/>
<path fill-rule="evenodd" clip-rule="evenodd" d="M574 0L492 -3.58433e-06L492 82C537.241 82 574 45.5241 574 0Z" fill="#2C2E33"/>
<path fill-rule="evenodd" clip-rule="evenodd" d="M574 246V328H656C656 282.759 619.524 246 574 246Z" fill="#2C2E33"/>
<path fill-rule="evenodd" clip-rule="evenodd" d="M656 0L574 -3.58433e-06L574 82C619.241 82 656 45.5241 656 0Z" fill="#2C2E33"/>
<path fill-rule="evenodd" clip-rule="evenodd" d="M328 246V328H410C410 282.759 373.524 246 328 246Z" fill="#2C2E33"/>
<path fill-rule="evenodd" clip-rule="evenodd" d="M328 0V82H410C410 36.7586 373.524 0 328 0Z" fill="#2C2E33"/>
<path fill-rule="evenodd" clip-rule="evenodd" d="M328 82V164H410C410 118.759 373.524 82 328 82Z" fill="#2C2E33"/>
<path fill-rule="evenodd" clip-rule="evenodd" d="M410 164L328 164L328 246C373.241 246 410 209.524 410 164Z" fill="#2C2E33"/>
<path fill-rule="evenodd" clip-rule="evenodd" d="M246 246V328H328C328 282.759 291.524 246 246 246Z" fill="#2C2E33"/>
<path fill-rule="evenodd" clip-rule="evenodd" d="M246 0V82L328 82C328 36.7586 291.524 0 246 0Z" fill="#2C2E33"/>
<path fill-rule="evenodd" clip-rule="evenodd" d="M246 82V164H328C328 118.759 291.524 82 246 82Z" fill="#2C2E33"/>
<path fill-rule="evenodd" clip-rule="evenodd" d="M246 164V246H328C328 200.759 291.524 164 246 164Z" fill="#2C2E33"/>
<path fill-rule="evenodd" clip-rule="evenodd" d="M246 246L246 164L164 164C164 209.241 200.476 246 246 246Z" fill="#2C2E33"/>
<path fill-rule="evenodd" clip-rule="evenodd" d="M246 82L164 82L164 164C209.241 164 246 127.524 246 82Z" fill="#2C2E33"/>
<path fill-rule="evenodd" clip-rule="evenodd" d="M164 82L82 82L82 164C127.241 164 164 127.524 164 82Z" fill="#2C2E33"/>
<path fill-rule="evenodd" clip-rule="evenodd" d="M164 246L164 164L82 164C82 209.241 118.476 246 164 246Z" fill="#2C2E33"/>
<path fill-rule="evenodd" clip-rule="evenodd" d="M82 246L82 164L7.16867e-06 164C3.21354e-06 209.241 36.4759 246 82 246Z" fill="#2C2E33"/>
<path fill-rule="evenodd" clip-rule="evenodd" d="M82 82L0 82L9.7784e-07 164C45.2414 164 82 127.524 82 82Z" fill="#2C2E33"/>
<path fill-rule="evenodd" clip-rule="evenodd" d="M0 328L82 328L82 246C36.7586 246 -1.98992e-06 282.476 0 328Z" fill="#2C2E33"/>
<path fill-rule="evenodd" clip-rule="evenodd" d="M0 82L82 82L82 -3.58433e-06C36.7586 -1.60677e-06 -1.98992e-06 36.4759 0 82Z" fill="#2C2E33"/>
<path fill-rule="evenodd" clip-rule="evenodd" d="M82 328L164 328L164 246C118.759 246 82 282.476 82 328Z" fill="#2C2E33"/>
<path fill-rule="evenodd" clip-rule="evenodd" d="M246 82L246 0L164 -7.16867e-06C164 45.2414 200.476 82 246 82Z" fill="#2C2E33"/>
<path fill-rule="evenodd" clip-rule="evenodd" d="M164 246V328H246C246 282.759 209.524 246 164 246Z" fill="#2C2E33"/>
<path fill-rule="evenodd" clip-rule="evenodd" d="M164 82L164 0L82 -7.16867e-06C82 45.2414 118.476 82 164 82Z" fill="#2C2E33"/>
</svg>
