<svg width="286" height="512" viewBox="0 0 286 512" fill="none" xmlns="http://www.w3.org/2000/svg">
<path fill-rule="evenodd" clip-rule="evenodd" d="M172.5 281.857L230 281.857L230 224.39C198.276 224.39 172.5 249.953 172.5 281.857Z" fill="#E9EFFF"/>
<path fill-rule="evenodd" clip-rule="evenodd" d="M57.5 281.857L115 281.857L115 224.39C83.2758 224.39 57.5 249.953 57.5 281.857Z" fill="#E9EFFF"/>
<path fill-rule="evenodd" clip-rule="evenodd" d="M115 224.389L115 281.857L172.5 281.857C172.5 250.151 146.922 224.389 115 224.389Z" fill="#E9EFFF"/>
<path fill-rule="evenodd" clip-rule="evenodd" d="M0 224.389L-2.85687e-09 281.857L57.4998 281.857C57.4998 250.151 31.9223 224.389 0 224.389Z" fill="#E9EFFF"/>
<path fill-rule="evenodd" clip-rule="evenodd" d="M172.5 339.323L230 339.323L230 281.856C198.276 281.856 172.5 307.419 172.5 339.323Z" fill="#E9EFFF"/>
<path fill-rule="evenodd" clip-rule="evenodd" d="M57.5 339.323L115 339.323L115 281.856C83.2758 281.856 57.5 307.419 57.5 339.323Z" fill="#E9EFFF"/>
<path fill-rule="evenodd" clip-rule="evenodd" d="M115 339.323L172.5 339.323L172.5 281.856C140.776 281.856 115 307.419 115 339.323Z" fill="#E9EFFF"/>
<path fill-rule="evenodd" clip-rule="evenodd" d="M172.5 339.323L115 339.323L115 396.79C146.724 396.79 172.5 371.227 172.5 339.323Z" fill="#E9EFFF"/>
<path fill-rule="evenodd" clip-rule="evenodd" d="M57.5 339.323L57.5 281.856L0.000174267 281.856C0.000177039 313.562 25.5777 339.323 57.5 339.323Z" fill="#E9EFFF"/>
<path fill-rule="evenodd" clip-rule="evenodd" d="M57.5 339.323L57.5 396.79L115 396.79C115 365.084 89.4223 339.323 57.5 339.323Z" fill="#E9EFFF"/>
<path fill-rule="evenodd" clip-rule="evenodd" d="M57.5 396.791L57.5 454.258L115 454.258C115 422.552 89.4223 396.791 57.5 396.791Z" fill="#E9EFFF"/>
<path fill-rule="evenodd" clip-rule="evenodd" d="M0 339.323L-2.85687e-09 396.79L57.4998 396.79C57.4998 365.084 31.9223 339.323 0 339.323Z" fill="#E9EFFF"/>
<path fill-rule="evenodd" clip-rule="evenodd" d="M172.5 396.791L115 396.791L115 454.258C146.724 454.258 172.5 428.695 172.5 396.791Z" fill="#E9EFFF"/>
<path fill-rule="evenodd" clip-rule="evenodd" d="M172.5 454.257L115 454.257L115 511.724C146.724 511.724 172.5 486.161 172.5 454.257Z" fill="#E9EFFF"/>
<path fill-rule="evenodd" clip-rule="evenodd" d="M57.5 454.257L57.5 511.724L115 511.724C115 480.018 89.4223 454.257 57.5 454.257Z" fill="#E9EFFF"/>
<path fill-rule="evenodd" clip-rule="evenodd" d="M0 454.257L3.19622e-06 511.724L57.4998 511.724C57.4998 480.018 31.9223 454.257 0 454.257Z" fill="#E9EFFF"/>
<path fill-rule="evenodd" clip-rule="evenodd" d="M229.999 511.725L229.999 454.258L172.499 454.258C172.499 485.964 198.077 511.725 229.999 511.725Z" fill="#E9EFFF"/>
<path fill-rule="evenodd" clip-rule="evenodd" d="M0 454.257L57.4998 454.257L57.4998 396.79C25.7758 396.79 -1.39378e-06 422.353 0 454.257Z" fill="#E9EFFF"/>
<path fill-rule="evenodd" clip-rule="evenodd" d="M229.999 454.257L229.999 396.79L172.499 396.79C172.499 428.496 198.077 454.257 229.999 454.257Z" fill="#E9EFFF"/>
<path fill-rule="evenodd" clip-rule="evenodd" d="M172.5 396.791L230 396.791L230 339.324C198.276 339.324 172.5 364.887 172.5 396.791Z" fill="#E9EFFF"/>
<path fill-rule="evenodd" clip-rule="evenodd" d="M57.1963 57.4387L57.1963 0.209476L-0.00041843 0.209471C-0.000421189 31.7842 25.4423 57.4387 57.1963 57.4387Z" fill="#E9EFFF"/>
<path fill-rule="evenodd" clip-rule="evenodd" d="M57.1963 171.897L57.1963 114.668L-0.00041843 114.668C-0.000421189 146.242 25.4423 171.897 57.1963 171.897Z" fill="#E9EFFF"/>
<path fill-rule="evenodd" clip-rule="evenodd" d="M0 114.668L57.1967 114.668L57.1967 57.4385C25.6399 57.4385 4.16483e-06 82.8956 0 114.668Z" fill="#E9EFFF"/>
<path fill-rule="evenodd" clip-rule="evenodd" d="M0 229.126L57.1967 229.126L57.1967 171.897C25.6399 171.897 4.16483e-06 197.354 0 229.126Z" fill="#E9EFFF"/>
<path fill-rule="evenodd" clip-rule="evenodd" d="M114.393 57.439L114.393 0.209721L57.1959 0.209716C57.1959 31.7845 82.6385 57.439 114.393 57.439Z" fill="#E9EFFF"/>
<path fill-rule="evenodd" clip-rule="evenodd" d="M114.393 171.897L114.393 114.668L57.1959 114.668C57.1959 146.242 82.6385 171.897 114.393 171.897Z" fill="#E9EFFF"/>
<path fill-rule="evenodd" clip-rule="evenodd" d="M114.393 114.668L114.393 57.4385L57.1959 57.4385C57.1959 89.0132 82.6385 114.668 114.393 114.668Z" fill="#E9EFFF"/>
<path fill-rule="evenodd" clip-rule="evenodd" d="M114.393 57.439L114.393 114.668L171.589 114.668C171.589 83.0935 146.147 57.439 114.393 57.439Z" fill="#E9EFFF"/>
<path fill-rule="evenodd" clip-rule="evenodd" d="M114.393 171.897L57.1959 171.897L57.1959 229.126C88.7527 229.126 114.393 203.669 114.393 171.897Z" fill="#E9EFFF"/>
<path fill-rule="evenodd" clip-rule="evenodd" d="M114.393 171.897L171.589 171.897L171.589 114.668C140.032 114.668 114.393 140.125 114.393 171.897Z" fill="#E9EFFF"/>
<path fill-rule="evenodd" clip-rule="evenodd" d="M171.59 171.897L228.787 171.897L228.787 114.668C197.23 114.668 171.59 140.125 171.59 171.897Z" fill="#E9EFFF"/>
<path fill-rule="evenodd" clip-rule="evenodd" d="M114.393 229.126L171.589 229.126L171.589 171.897C140.032 171.897 114.393 197.354 114.393 229.126Z" fill="#E9EFFF"/>
<path fill-rule="evenodd" clip-rule="evenodd" d="M171.59 57.439L171.59 114.668L228.787 114.668C228.787 83.0935 203.344 57.439 171.59 57.439Z" fill="#E9EFFF"/>
<path fill-rule="evenodd" clip-rule="evenodd" d="M228.787 57.439L228.787 114.668L285.984 114.668C285.984 83.0935 260.541 57.439 228.787 57.439Z" fill="#E9EFFF"/>
<path fill-rule="evenodd" clip-rule="evenodd" d="M228.787 171.897L285.984 171.897L285.984 114.668C254.427 114.668 228.787 140.125 228.787 171.897Z" fill="#E9EFFF"/>
<path fill-rule="evenodd" clip-rule="evenodd" d="M228.787 229.126L285.984 229.126L285.984 171.897C254.427 171.897 228.787 197.354 228.787 229.126Z" fill="#E9EFFF"/>
<path fill-rule="evenodd" clip-rule="evenodd" d="M228.771 0.225342V57.4221H286.001C286.001 25.8652 260.544 0.225342 228.771 0.225342Z" fill="#E9EFFF"/>
<path fill-rule="evenodd" clip-rule="evenodd" d="M228.787 229.126L228.787 171.897L171.59 171.897C171.59 203.472 197.033 229.126 228.787 229.126Z" fill="#E9EFFF"/>
<path fill-rule="evenodd" clip-rule="evenodd" d="M228.787 0.208984L171.59 0.208982L171.59 57.4382C203.147 57.4382 228.787 31.9811 228.787 0.208984Z" fill="#E9EFFF"/>
<path fill-rule="evenodd" clip-rule="evenodd" d="M171.59 57.439L171.59 0.209721L114.393 0.209716C114.393 31.7845 139.836 57.439 171.59 57.439Z" fill="#E9EFFF"/>
</svg>
