<svg width="28" height="25" viewBox="0 0 28 25" fill="none" xmlns="http://www.w3.org/2000/svg">
<path opacity="0.3" d="M13.5685 16.2673C14.5002 16.2673 15.3937 15.8933 16.0525 15.2277C16.7113 14.5622 17.0815 13.6594 17.0815 12.7182C17.0815 12.6142 17.0767 12.5112 17.068 12.4095L13.263 16.2536C13.3637 16.2625 13.4653 16.2673 13.5685 16.2673ZM25.1963 1.74001L23.8564 0.387546C23.8093 0.34004 23.7455 0.313354 23.679 0.313354C23.6125 0.313354 23.5487 0.34004 23.5016 0.387546L20.0728 3.85268C18.1812 2.87604 16.055 2.38772 13.694 2.38772C7.66559 2.38772 3.16781 5.55973 0.200651 11.9038C0.0813857 12.1589 0.0195313 12.4376 0.0195312 12.7197C0.0195312 13.0019 0.0813857 13.2806 0.200651 13.5357C1.38626 16.0587 2.8139 18.081 4.48358 19.6025L1.16545 22.9535C1.11843 23.0011 1.09201 23.0655 1.09201 23.1327C1.09201 23.1999 1.11843 23.2644 1.16545 23.3119L2.50443 24.6647C2.55148 24.7122 2.61528 24.7389 2.6818 24.7389C2.74832 24.7389 2.81212 24.7122 2.85917 24.6647L25.1963 2.09872C25.2196 2.07518 25.2381 2.04722 25.2507 2.01644C25.2634 1.98567 25.2699 1.95268 25.2699 1.91937C25.2699 1.88605 25.2634 1.85306 25.2507 1.82229C25.2381 1.79151 25.2196 1.76355 25.1963 1.74001ZM8.04825 12.7182C8.04816 11.7548 8.29504 10.8079 8.76484 9.96967C9.23464 9.13141 9.91134 8.43038 10.729 7.93487C11.5467 7.43937 12.4775 7.16628 13.4307 7.14222C14.3838 7.11816 15.3269 7.34394 16.1681 7.79757L14.6431 9.33826C14.0281 9.13931 13.3707 9.11535 12.7431 9.26901C12.1155 9.42267 11.5419 9.74802 11.0853 10.2093C10.6287 10.6707 10.3067 11.2502 10.1546 11.8842C10.0025 12.5183 10.0262 13.1825 10.2231 13.8038L8.69814 15.3445C8.27019 14.5367 8.04691 13.6344 8.04825 12.7182Z" fill="#444444"/>
<path opacity="0.3" d="M27.6966 12.0576C26.5692 9.75293 25.2272 7.87367 23.6708 6.4198L19.054 10.9011C19.4432 11.8885 19.5295 12.9641 19.3024 13.9981C19.0753 15.032 18.5446 15.9801 17.7744 16.7276C17.0043 17.4751 16.0275 17.9902 14.9623 18.2106C13.897 18.431 12.7887 18.3473 11.7714 17.9695L7.85547 21.7703C9.6722 22.5863 11.6928 22.9943 13.9174 22.9943C20.0735 22.9943 24.6666 19.8824 27.6966 13.6586C27.8184 13.4083 27.8816 13.1349 27.8816 12.8581C27.8816 12.5813 27.8184 12.3079 27.6966 12.0576Z" fill="#444444"/>
</svg>
