<svg width="15" height="14" viewBox="0 0 15 14" fill="none" xmlns="http://www.w3.org/2000/svg">
<path d="M1.53013 14C0.571474 14 0 13.5228 0 12.6467V11.5857C0 10.7293 0.571474 10.2374 1.53013 10.2374H13.4698C14.4285 10.2374 15 10.7293 15 11.5857V12.6467C15 13.5228 14.4285 14 13.4698 14H1.53013ZM1.19153 7.98817C0.495466 7.98817 0.129524 7.63325 0.0927763 7.06203C0.0805273 6.79626 0.221526 6.51077 0.487411 6.27474L6.37977 0.529941C6.72086 0.214931 7.08055 0 7.50118 0C7.91912 0 8.26659 0.181295 8.61991 0.529941L14.5 6.27474C14.7536 6.52197 14.9069 6.79626 14.9069 7.06203C14.9069 7.63325 14.4797 7.98817 13.7959 7.98817H1.19153Z" fill="#327AF0"/>
</svg>
