<svg width="16" height="15" viewBox="0 0 16 15" fill="none" xmlns="http://www.w3.org/2000/svg">
<path d="M8.65356 14.2222C9.05139 14.2222 9.37075 14.0569 9.75584 13.6839L15.602 7.99674C15.8893 7.71596 16 7.38964 16 7.11114C16 6.82084 15.8967 6.50764 15.6034 6.22059L9.75584 0.577324C9.33116 0.166086 9.05819 0 8.66566 0C8.08487 0 7.65975 0.471493 7.65975 1.05401V3.7972H7.47609C2.35436 3.7972 0 7.20537 0 12.7627C0 13.6969 0.391161 14.1906 0.901678 14.1906C1.27969 14.1906 1.64471 14.0701 1.93113 13.5174C3.0993 11.2578 4.76263 10.4437 7.47609 10.4437H7.65975V13.201C7.65975 13.7835 8.08487 14.2222 8.65356 14.2222Z" fill="#327AF0"/>
</svg>
