<svg width="62" height="67" fill="none" xmlns="http://www.w3.org/2000/svg"><path d="M51.324 15.936c-.58 0 1.016 1.016-20.324-12.773L11.548 15.79c-.726.436-1.597.29-2.033-.435-.435-.726-.29-1.597.436-2.033L30.274.26c.436-.29 1.162-.29 1.597 0l20.324 13.063c1.161.726.58 2.613-.871 2.613Z" fill="url(#a)"/><mask id="b" style="mask-type:luminance" maskUnits="userSpaceOnUse" x="6" y="11" width="50" height="13"><path d="M9.226 11.582a2.912 2.912 0 0 0-2.904 2.903v5.806a2.912 2.912 0 0 0 2.904 2.903h43.55a2.912 2.912 0 0 0 2.903-2.903v-5.806a2.912 2.912 0 0 0-2.903-2.903H9.226Z" fill="#fff"/></mask><g mask="url(#b)"><path d="M55.68 11.582H6.321v11.612H55.68V11.582Z" fill="url(#c)"/></g><path d="M58.581 20.29h-2.903v-5.805h2.903a2.912 2.912 0 0 1 2.903 2.903c0 1.306-.87 2.903-2.903 2.903Z" fill="url(#d)"/><path d="M6.321 20.29H3.418a2.912 2.912 0 0 1-2.903-2.902c0-1.162.87-2.903 2.903-2.903h2.903v5.806Z" fill="url(#e)"/><mask id="f" style="mask-type:luminance" maskUnits="userSpaceOnUse" x="9" y="23" width="44" height="40"><path d="M9.225 23.194v27.724L31 62.53l21.775-11.612V23.194H9.225Z" fill="#fff"/></mask><g mask="url(#f)"><path d="M52.775 23.194H9.225v39.19h43.55v-39.19Z" fill="url(#g)"/></g><path d="M9.225 50.918v4.354L31 66.885l21.775-11.613v-4.354L31 62.53 9.225 50.918Z" fill="#6AD3F0"/><mask id="h" style="mask-type:luminance" maskUnits="userSpaceOnUse" x="24" y="27" width="14" height="13"><path d="m30.564 27.403-1.742 3.484-3.774.58c-.436 0-.58.581-.29.871l2.758 2.613-.581 3.774c0 .435.436.726.726.58L31 37.565c3.629 1.887 3.484 1.887 3.629 1.887.29 0 .58-.29.58-.58l-.58-3.775 2.758-2.612c.29-.29.145-.871-.29-.871l-3.775-.581-1.742-3.484c-.145-.145-.29-.29-.435-.29-.145 0-.436 0-.58.145Z" fill="#fff"/></mask><g mask="url(#h)"><path d="M37.532 27.113H24.467v12.193h13.065V27.113Z" fill="url(#i)"/></g><path d="m21.854 40.467-1.742 3.483-3.774.581c-.436 0-.58.58-.29.871l2.758 2.613-.58 3.774c0 .435.435.725.725.58l3.339-1.742c3.629 1.887 3.484 1.887 3.629 1.887.29 0 .58-.29.435-.58l-.58-3.774 2.758-2.613c.29-.29.145-.87-.29-.87l-3.775-.581-1.742-3.484c-.145-.145-.29-.29-.435-.29-.145 0-.29 0-.436.145Z" fill="url(#j)"/><mask id="k" style="mask-type:luminance" maskUnits="userSpaceOnUse" x="15" y="40" width="14" height="13"><path d="m21.854 40.467-1.742 3.483-3.774.581c-.436 0-.58.58-.29.871l2.758 2.613-.58 3.774c0 .435.435.725.725.58l3.339-1.742c3.629 1.887 3.484 1.887 3.629 1.887.29 0 .58-.29.435-.58l-.58-3.774 2.758-2.613c.29-.29.145-.87-.29-.87l-3.775-.581-1.742-3.484c-.145-.145-.29-.29-.435-.29-.145 0-.29 0-.436.145Z" fill="#fff"/></mask><g mask="url(#k)"><path d="M28.822 40.176H15.757V52.37h13.065V40.176Z" fill="url(#l)"/></g><mask id="m" style="mask-type:luminance" maskUnits="userSpaceOnUse" x="33" y="40" width="14" height="13"><path d="m39.275 40.467-1.742 3.483-3.774.581c-.436 0-.58.58-.29.871l2.758 2.613-.581 3.774c0 .435.435.725.726.58l3.339-1.742c3.629 1.887 3.484 1.887 3.629 1.887.29 0 .58-.29.58-.58l-.58-3.774 2.758-2.613c.29-.29.145-.87-.29-.87l-3.775-.581-1.742-3.484c-.145-.145-.29-.29-.435-.29-.145 0-.436 0-.58.145Z" fill="#fff"/></mask><g mask="url(#m)"><path d="M46.243 40.176H33.178V52.37h13.065V40.176Z" fill="url(#n)"/></g><defs><linearGradient id="a" x1="9.25" y1="8.032" x2="52.8" y2="8.032" gradientUnits="userSpaceOnUse"><stop offset=".101" stop-color="#B2EA20"/><stop offset=".39" stop-color="#AFE71D"/><stop offset=".643" stop-color="#A4DE16"/><stop offset=".88" stop-color="#92CF09"/><stop offset="1" stop-color="#86C500"/></linearGradient><linearGradient id="c" x1="31.024" y1="23.267" x2="31.024" y2="11.655" gradientUnits="userSpaceOnUse"><stop offset=".101" stop-color="#00D0EC"/><stop offset=".251" stop-color="#09C5ED"/><stop offset=".512" stop-color="#21A9F0"/><stop offset=".851" stop-color="#477BF5"/><stop offset="1" stop-color="#5A65F7"/></linearGradient><linearGradient id="d" x1="55.703" y1="17.46" x2="61.509" y2="17.46" gradientUnits="userSpaceOnUse"><stop offset=".101" stop-color="#00D0EC"/><stop offset=".251" stop-color="#09C5ED"/><stop offset=".512" stop-color="#21A9F0"/><stop offset=".851" stop-color="#477BF5"/><stop offset="1" stop-color="#5A65F7"/></linearGradient><linearGradient id="e" x1=".539" y1="17.46" x2="6.346" y2="17.46" gradientUnits="userSpaceOnUse"><stop offset=".101" stop-color="#00D0EC"/><stop offset=".251" stop-color="#09C5ED"/><stop offset=".512" stop-color="#21A9F0"/><stop offset=".851" stop-color="#477BF5"/><stop offset="1" stop-color="#5A65F7"/></linearGradient><linearGradient id="g" x1="31.022" y1="23.27" x2="31.022" y2="62.461" gradientUnits="userSpaceOnUse"><stop stop-color="#fff"/><stop offset="1" stop-color="#F0F7FC"/></linearGradient><linearGradient id="i" x1="31.131" y1="39.367" x2="31.131" y2="27.252" gradientUnits="userSpaceOnUse"><stop offset=".101" stop-color="#B2EA20"/><stop offset=".39" stop-color="#AFE71D"/><stop offset=".643" stop-color="#A4DE16"/><stop offset=".88" stop-color="#92CF09"/><stop offset="1" stop-color="#86C500"/></linearGradient><linearGradient id="j" x1="15.96" y1="46.241" x2="28.67" y2="46.241" gradientUnits="userSpaceOnUse"><stop offset=".101" stop-color="#B2EA20"/><stop offset=".39" stop-color="#AFE71D"/><stop offset=".643" stop-color="#A4DE16"/><stop offset=".88" stop-color="#92CF09"/><stop offset="1" stop-color="#86C500"/></linearGradient><linearGradient id="l" x1="22.421" y1="52.43" x2="22.421" y2="40.315" gradientUnits="userSpaceOnUse"><stop offset=".101" stop-color="#B2EA20"/><stop offset=".39" stop-color="#AFE71D"/><stop offset=".643" stop-color="#A4DE16"/><stop offset=".88" stop-color="#92CF09"/><stop offset="1" stop-color="#86C500"/></linearGradient><linearGradient id="n" x1="39.838" y1="52.43" x2="39.838" y2="40.315" gradientUnits="userSpaceOnUse"><stop offset=".101" stop-color="#B2EA20"/><stop offset=".39" stop-color="#AFE71D"/><stop offset=".643" stop-color="#A4DE16"/><stop offset=".88" stop-color="#92CF09"/><stop offset="1" stop-color="#86C500"/></linearGradient></defs></svg>