<svg width="89" height="58" fill="none" xmlns="http://www.w3.org/2000/svg"><g clip-path="url(#a)"><mask id="b" style="mask-type:luminance" maskUnits="userSpaceOnUse" x="16" y="0" width="58" height="57"><path d="M38.57 2.099c-2.488 1.908-5.357 3.243-8.418 3.434-4.592.381-8.035 4.006-8.418 8.395-.382 3.052-1.53 6.105-3.443 8.394-2.87 3.435-2.87 8.586 0 12.02 1.913 2.48 3.252 5.342 3.443 8.395.383 4.579 4.018 8.013 8.418 8.395 3.06.381 6.121 1.526 8.417 3.434 3.444 2.862 8.609 2.862 12.052 0 2.487-1.908 5.357-3.244 8.418-3.434 4.591-.382 8.034-4.007 8.417-8.395.383-3.053 1.53-6.105 3.444-8.395 2.87-3.434 2.87-8.585 0-12.02-1.913-2.48-3.253-5.342-3.444-8.394-.383-4.58-4.017-8.014-8.417-8.395-3.061-.382-6.122-1.526-8.418-3.434C48.708.763 46.604 0 44.5 0c-2.104 0-4.208.763-5.93 2.099Z" fill="#fff"/></mask><g mask="url(#b)"><path d="M73.96 0H15.04v58h58.92V0Z" fill="url(#c)"/></g><mask id="d" style="mask-type:luminance" maskUnits="userSpaceOnUse" x="0" y="17" width="37" height="24"><path d="m.5 17.171 5.74 11.447L.5 40.066h36.348V17.17H.5Z" fill="#fff"/></mask><g mask="url(#d)"><path d="M36.848 17.171H.5v22.895h36.348V17.17Z" fill="url(#e)"/></g><mask id="f" style="mask-type:luminance" maskUnits="userSpaceOnUse" x="52" y="17" width="37" height="24"><path d="M52.152 17.171v22.895H88.5l-5.739-11.448 5.74-11.447H52.151Z" fill="#fff"/></mask><g mask="url(#f)"><path d="M88.5 17.171H52.152v22.895H88.5V17.17Z" fill="url(#g)"/></g><path d="M4.326 24.803h32.522v7.631H4.326l1.913-3.816-1.913-3.815ZM82.761 28.618l1.913 3.816H52.152v-7.631h32.522l-1.913 3.815Z" fill="#F0F7FC"/><path d="M63.631 28.618c0-10.493-8.609-19.079-19.13-19.079-10.522 0-19.13 8.586-19.13 19.08 0 10.493 8.608 19.078 19.13 19.078 10.521 0 19.13-8.585 19.13-19.079Z" fill="#F0F7FC"/><mask id="h" style="mask-type:luminance" maskUnits="userSpaceOnUse" x="33" y="17" width="24" height="23"><path d="m43.734 18.125-3.06 6.296-6.887.954c-.765.19-.957.954-.574 1.526l4.974 4.77-1.148 6.678c-.191.763.765 1.335 1.339.954L44.5 36.25c6.695 3.434 6.121 3.243 6.504 3.243.574 0 .957-.572.957-1.144l-1.148-6.678 4.974-4.77c.574-.572.191-1.526-.574-1.526l-6.887-.954-3.061-6.105c-.191-.382-.574-.382-.765-.382-.383-.19-.766 0-.766.191Z" fill="#fff"/></mask><g mask="url(#h)"><path d="M56.36 17.743H32.83v22.132h23.53V17.743Z" fill="url(#i)"/></g></g><defs><linearGradient id="c" x1="44.263" y1="56.915" x2="44.263" y2="-.322" gradientUnits="userSpaceOnUse"><stop offset=".101" stop-color="#00D0EC"/><stop offset=".251" stop-color="#09C5ED"/><stop offset=".512" stop-color="#21A9F0"/><stop offset=".851" stop-color="#477BF5"/><stop offset="1" stop-color="#5A65F7"/></linearGradient><linearGradient id="e" x1="36.854" y1="28.623" x2=".506" y2="28.623" gradientUnits="userSpaceOnUse"><stop offset=".101" stop-color="#B2EA20"/><stop offset=".39" stop-color="#AFE71D"/><stop offset=".643" stop-color="#A4DE16"/><stop offset=".88" stop-color="#92CF09"/><stop offset="1" stop-color="#86C500"/></linearGradient><linearGradient id="g" x1="52.152" y1="28.619" x2="88.5" y2="28.619" gradientUnits="userSpaceOnUse"><stop offset=".101" stop-color="#B2EA20"/><stop offset=".39" stop-color="#AFE71D"/><stop offset=".643" stop-color="#A4DE16"/><stop offset=".88" stop-color="#92CF09"/><stop offset="1" stop-color="#86C500"/></linearGradient><linearGradient id="i" x1="32.74" y1="28.983" x2="55.696" y2="28.983" gradientUnits="userSpaceOnUse"><stop offset=".101" stop-color="#B2EA20"/><stop offset=".39" stop-color="#AFE71D"/><stop offset=".643" stop-color="#A4DE16"/><stop offset=".88" stop-color="#92CF09"/><stop offset="1" stop-color="#86C500"/></linearGradient><clipPath id="a"><path fill="#fff" transform="translate(.5)" d="M0 0h88v58H0z"/></clipPath></defs></svg>