<svg width="42" height="68" fill="none" xmlns="http://www.w3.org/2000/svg"><path d="M1.994 53.013c-.877 0-1.462.584-1.462 1.462v11.694c0 .877.585 1.462 1.462 1.462h38.011c.877 0 1.462-.585 1.462-1.462V54.475c0-.878-.585-1.462-1.462-1.462H1.995Z" fill="url(#a)"/><mask id="b" style="mask-type:luminance" maskUnits="userSpaceOnUse" x="0" y="53" width="42" height="15"><path d="M1.994 53.013c-.877 0-1.462.584-1.462 1.462v11.694c0 .877.585 1.462 1.462 1.462h38.011c.877 0 1.462-.585 1.462-1.462V54.475c0-.878-.585-1.462-1.462-1.462H1.995Z" fill="#fff"/></mask><g mask="url(#b)"><path d="M41.466 53.013H.531V67.63h40.935V53.013Z" fill="url(#c)"/></g><path d="M34.157 58.86H7.842c-.877 0-1.462-.585-1.462-1.462 0-.438.292-1.462 1.462-1.462h26.315c.877 0 1.462.585 1.462 1.462 0 .292-.439 1.462-1.462 1.462ZM28.309 64.707h-14.62c-.877 0-1.462-.585-1.462-1.462 0-.438.293-1.461 1.463-1.461h14.619c.877 0 1.462.584 1.462 1.461 0 .293-.439 1.462-1.462 1.462Z" fill="#E9EFFF"/><path d="M3.456 10.474a2.932 2.932 0 0 0-2.924 2.924v32.16c0 .877.439 1.754 1.17 2.338l6.14 4.97h26.315l6.14-4.97c.731-.584 1.17-1.461 1.17-2.338v-32.16a2.932 2.932 0 0 0-2.924-2.924H3.456Z" fill="url(#d)"/><mask id="e" style="mask-type:luminance" maskUnits="userSpaceOnUse" x="0" y="10" width="42" height="43"><path d="M3.456 10.474a2.932 2.932 0 0 0-2.924 2.924v32.16c0 .877.439 1.754 1.17 2.338l6.14 4.97h26.315l6.14-4.97c.731-.584 1.17-1.461 1.17-2.338v-32.16a2.932 2.932 0 0 0-2.924-2.924H3.456Z" fill="#fff"/></mask><g mask="url(#e)"><path d="M41.466 10.474H.531v42.392h40.935V10.474Z" fill="url(#f)"/></g><path d="M34.157 28.016H7.842c-.877 0-1.462-.585-1.462-1.462v-2.923c0-.878.585-1.462 1.462-1.462h26.315c.877 0 1.462.584 1.462 1.462v2.923c0 .877-.731 1.462-1.462 1.462ZM34.157 38.249H7.842c-.877 0-1.462-.585-1.462-1.462v-2.924c0-.877.585-1.462 1.462-1.462h26.315c.877 0 1.462.585 1.462 1.462v2.924c0 .877-.731 1.462-1.462 1.462ZM29.771 45.704H12.228c-.878 0-1.462-.585-1.462-1.462 0-.438.292-1.462 1.462-1.462H29.77c.877 0 1.462.585 1.462 1.462 0 .292-.439 1.462-1.462 1.462Z" fill="#E9EFFF"/><mask id="g" style="mask-type:luminance" maskUnits="userSpaceOnUse" x="6" y="0" width="18" height="17"><path d="m14.421.68-2.339 4.678-5.263.731c-.585.146-.73.73-.438 1.17l3.8 3.654-.877 5.116c-.146.585.585 1.023 1.024.731l4.678-2.485c5.117 2.631 4.678 2.485 4.97 2.485.44 0 .732-.438.732-.877l-.877-5.116 3.8-3.655c.44-.438.147-1.17-.438-1.17l-5.263-.73L15.59.534c-.145-.292-.438-.292-.584-.292-.146 0-.438.146-.585.438Z" fill="#fff"/></mask><g mask="url(#g)"><path d="M24.07.242H6.088v16.957H24.07V.242Z" fill="url(#h)"/></g><defs><linearGradient id="a" x1=".469" y1="60.249" x2="41.404" y2="60.249" gradientUnits="userSpaceOnUse"><stop offset=".101" stop-color="#B2EA20"/><stop offset=".39" stop-color="#AFE71D"/><stop offset=".643" stop-color="#A4DE16"/><stop offset=".88" stop-color="#92CF09"/><stop offset="1" stop-color="#86C500"/></linearGradient><linearGradient id="c" x1="20.936" y1="67.553" x2="20.936" y2="52.935" gradientUnits="userSpaceOnUse"><stop offset=".101" stop-color="#B2EA20"/><stop offset=".39" stop-color="#AFE71D"/><stop offset=".643" stop-color="#A4DE16"/><stop offset=".88" stop-color="#92CF09"/><stop offset="1" stop-color="#86C500"/></linearGradient><linearGradient id="d" x1=".469" y1="31.744" x2="41.404" y2="31.744" gradientUnits="userSpaceOnUse"><stop offset=".101" stop-color="#00D0EC"/><stop offset=".251" stop-color="#09C5ED"/><stop offset=".512" stop-color="#21A9F0"/><stop offset=".851" stop-color="#477BF5"/><stop offset="1" stop-color="#5A65F7"/></linearGradient><linearGradient id="f" x1="20.931" y1="52.941" x2="20.931" y2="10.548" gradientUnits="userSpaceOnUse"><stop offset=".101" stop-color="#00D0EC"/><stop offset=".251" stop-color="#09C5ED"/><stop offset=".512" stop-color="#21A9F0"/><stop offset=".851" stop-color="#477BF5"/><stop offset="1" stop-color="#5A65F7"/></linearGradient><linearGradient id="h" x1="6.11" y1="8.941" x2="23.653" y2="8.941" gradientUnits="userSpaceOnUse"><stop offset=".101" stop-color="#B2EA20"/><stop offset=".39" stop-color="#AFE71D"/><stop offset=".643" stop-color="#A4DE16"/><stop offset=".88" stop-color="#92CF09"/><stop offset="1" stop-color="#86C500"/></linearGradient></defs></svg>