<svg width="69" height="67" fill="none" xmlns="http://www.w3.org/2000/svg"><path d="M.875 16.573v2.924c0 3.216 2.632 5.847 5.848 5.847h2.924V22.42c0-3.216-2.632-5.847-5.848-5.847H.875Z" fill="#6AD3F0"/><mask id="a" style="mask-type:luminance" maskUnits="userSpaceOnUse" x="0" y="16" width="10" height="10"><path d="M.875 16.573v2.924c0 3.216 2.632 5.847 5.848 5.847h2.924V22.42c0-3.216-2.632-5.847-5.848-5.847H.875Z" fill="#fff"/></mask><g mask="url(#a)"><path d="M9.647 16.573H.875v8.77h8.772v-8.77Z" fill="#6AD3F0"/></g><path d="m4.237 32.945-2.485 1.462 1.462 2.485c1.608 2.777 5.263 3.8 8.04 2.193l2.486-1.462-1.462-2.485c-1.023-1.9-3.07-2.924-5.117-2.924-1.023 0-1.9.146-2.924.731Z" fill="#6AD3F0"/><mask id="b" style="mask-type:luminance" maskUnits="userSpaceOnUse" x="1" y="32" width="13" height="8"><path d="m4.237 32.945-2.485 1.462 1.462 2.485c1.608 2.777 5.263 3.8 8.04 2.193l2.486-1.462-1.462-2.485c-1.023-1.9-3.07-2.924-5.117-2.924-1.023 0-1.9.146-2.924.731Z" fill="#fff"/></mask><g mask="url(#b)"><path d="M13.74 32.214H1.752v8.479H13.74v-8.479Z" fill="#6AD3F0"/></g><path d="M7.6 3.27c-1.608 2.778-.585 6.433 2.193 8.04l2.485 1.462 1.462-2.485c1.608-2.777.585-6.432-2.193-8.04L9.062.786 7.6 3.27Z" fill="#6AD3F0"/><mask id="c" style="mask-type:luminance" maskUnits="userSpaceOnUse" x="6" y="0" width="9" height="13"><path d="M7.6 3.27c-1.608 2.778-.585 6.433 2.193 8.04l2.485 1.462 1.462-2.485c1.608-2.777.585-6.432-2.193-8.04L9.062.786 7.6 3.27Z" fill="#fff"/></mask><g mask="url(#c)"><path d="M15.348.786H5.99v11.986h9.357V.786Z" fill="#6AD3F0"/></g><path d="M15.933 5.317c-10.38 10.233-10.38 27.043 0 37.276.293.292.731.439 1.024.439 1.316 0 1.9-1.608 1.023-2.485a23.379 23.379 0 0 1 0-33.183c.585-.585.585-1.462 0-2.047a1.58 1.58 0 0 0-1.023-.438c-.293 0-.731.146-1.024.438Z" fill="#6AD3F0"/><mask id="d" style="mask-type:luminance" maskUnits="userSpaceOnUse" x="8" y="4" width="11" height="40"><path d="M15.933 5.317c-10.38 10.233-10.38 27.043 0 37.276.293.292.731.439 1.024.439 1.316 0 1.9-1.608 1.023-2.485a23.379 23.379 0 0 1 0-33.183c.585-.585.585-1.462 0-2.047a1.58 1.58 0 0 0-1.023-.438c-.293 0-.731.146-1.024.438Z" fill="#fff"/></mask><g mask="url(#d)"><path d="M18.858 4.879H5.554v38.153h13.304V4.879Z" fill="#6AD3F0"/></g><path d="M65.2 16.573c-3.216 0-5.848 2.631-5.848 5.847v2.924h2.924c3.217 0 5.848-2.631 5.848-5.847v-2.924H65.2Z" fill="#6AD3F0"/><mask id="e" style="mask-type:luminance" maskUnits="userSpaceOnUse" x="59" y="16" width="10" height="10"><path d="M65.2 16.573c-3.216 0-5.848 2.631-5.848 5.847v2.924h2.924c3.217 0 5.848-2.631 5.848-5.847v-2.924H65.2Z" fill="#fff"/></mask><g mask="url(#e)"><path d="M68.124 16.573h-8.771v8.77h8.771v-8.77Z" fill="#6AD3F0"/></g><path d="m56.722 35.138-1.462 2.485 2.485 1.462c2.778 1.608 6.433.584 8.04-2.193l1.463-2.485-2.486-1.462c-.877-.585-1.9-.73-2.923-.73-2.047 0-3.948 1.022-5.117 2.923Z" fill="#6AD3F0"/><mask id="f" style="mask-type:luminance" maskUnits="userSpaceOnUse" x="55" y="32" width="13" height="8"><path d="m56.722 35.138-1.462 2.485 2.485 1.462c2.778 1.608 6.433.584 8.04-2.193l1.463-2.485-2.486-1.462c-.877-.585-1.9-.73-2.923-.73-2.047 0-3.948 1.022-5.117 2.923Z" fill="#fff"/></mask><g mask="url(#f)"><path d="M67.248 32.214H55.26v8.479h11.988v-8.479Z" fill="#6AD3F0"/></g><path d="M57.452 2.247c-2.777 1.608-3.8 5.263-2.193 8.04l1.462 2.485 2.486-1.461c2.777-1.608 3.8-5.263 2.193-8.04L59.938.786l-2.486 1.461Z" fill="#6AD3F0"/><mask id="g" style="mask-type:luminance" maskUnits="userSpaceOnUse" x="54" y="0" width="9" height="13"><path d="M57.452 2.247c-2.777 1.608-3.8 5.263-2.193 8.04l1.462 2.485 2.486-1.461c2.777-1.608 3.8-5.263 2.193-8.04L59.938.786l-2.486 1.461Z" fill="#fff"/></mask><g mask="url(#g)"><path d="M63.008.786H53.65v11.986h9.357V.786Z" fill="#6AD3F0"/></g><path d="M51.02 5.317c-.584.585-.584 1.462 0 2.047a23.379 23.379 0 0 1 0 33.183c-.877.877-.292 2.485 1.024 2.485.439 0 .731-.147 1.023-.439 10.38-10.233 10.38-27.043 0-37.276a1.58 1.58 0 0 0-1.023-.438 1.58 1.58 0 0 0-1.023.438Z" fill="#6AD3F0"/><mask id="h" style="mask-type:luminance" maskUnits="userSpaceOnUse" x="50" y="4" width="11" height="40"><path d="M51.02 5.317c-.584.585-.584 1.462 0 2.047a23.379 23.379 0 0 1 0 33.183c-.877.877-.292 2.485 1.024 2.485.439 0 .731-.147 1.023-.439 10.38-10.233 10.38-27.043 0-37.276a1.58 1.58 0 0 0-1.023-.438 1.58 1.58 0 0 0-1.023.438Z" fill="#fff"/></mask><g mask="url(#h)"><path d="M63.447 4.879H50.144v38.153h13.303V4.879Z" fill="#6AD3F0"/></g><path d="M18.417 66.274H3.797l2.925-5.847-2.924-5.847h14.62v11.694Z" fill="url(#i)"/><path d="M65.2 66.274H50.58V54.58H65.2l-2.924 5.847 2.924 5.847Z" fill="url(#j)"/><mask id="k" style="mask-type:luminance" maskUnits="userSpaceOnUse" x="11" y="45" width="47" height="16"><path d="M57.89 45.809H11.107v14.618H57.89V45.809Z" fill="#fff"/></mask><g mask="url(#k)"><path d="M57.891 45.809H11.108v14.618h46.783V45.809Z" fill="url(#l)"/></g><path d="m11.108 60.427 7.31 5.847v-5.847h-7.31ZM57.89 60.427l-7.309 5.847v-5.847h7.31Z" fill="#0668CB"/><path d="M49.119 51.656h-29.24c-.876 0-1.461-.585-1.461-1.462 0-.438.292-1.462 1.462-1.462h29.239c.877 0 1.462.585 1.462 1.462 0 .439-.292 1.462-1.462 1.462ZM41.809 57.503h-14.62c-.877 0-1.462-.584-1.462-1.462 0-.438.293-1.461 1.462-1.461h14.62c.877 0 1.462.584 1.462 1.462 0 .438-.292 1.461-1.462 1.461Z" fill="#F0F7FC"/><path d="M49.119 13.65v8.186c0 9.063-5.994 17.103-14.62 19.588-8.625-2.632-14.62-10.525-14.62-19.588V13.65L34.5 6.34l14.62 7.31Z" fill="url(#m)"/><path d="M34.06 42.885c-9.356-2.777-15.642-11.256-15.642-21.05V13.65c0-.584.292-1.023.877-1.315l14.62-7.31a2.029 2.029 0 0 1 1.316 0l14.619 7.31c.439.292.877.73.877 1.315v8.186c0 9.794-6.286 18.273-15.643 21.05h-1.023ZM21.343 14.673v7.162c0 8.333 5.263 15.495 13.157 18.127 7.895-2.632 13.158-9.794 13.158-18.127v-7.162L34.5 8.095l-13.158 6.578Z" fill="url(#n)"/><path d="m42.98 22.128-3.801 3.654.877 5.117c0 .438-.292.877-.731.877-.293 0 .146.146-4.97-2.485l-4.679 2.485c-.438.292-1.17-.146-1.023-.731l.877-5.117-3.801-3.654c-.439-.439-.146-1.17.438-1.17l5.117-.73 2.34-4.678c.292-.439 1.023-.439 1.315 0l2.34 4.678 5.116.73c.877 0 1.023.585.585 1.024Z" fill="#E9EFFF"/><defs><linearGradient id="i" x1="3.823" y1="60.476" x2="18.442" y2="60.476" gradientUnits="userSpaceOnUse"><stop offset=".101" stop-color="#00D0EC"/><stop offset=".251" stop-color="#09C5ED"/><stop offset=".512" stop-color="#21A9F0"/><stop offset=".851" stop-color="#477BF5"/><stop offset="1" stop-color="#5A65F7"/></linearGradient><linearGradient id="j" x1="50.605" y1="60.476" x2="65.225" y2="60.476" gradientUnits="userSpaceOnUse"><stop offset=".101" stop-color="#00D0EC"/><stop offset=".251" stop-color="#09C5ED"/><stop offset=".512" stop-color="#21A9F0"/><stop offset=".851" stop-color="#477BF5"/><stop offset="1" stop-color="#5A65F7"/></linearGradient><linearGradient id="l" x1="34.522" y1="60.472" x2="34.522" y2="45.855" gradientUnits="userSpaceOnUse"><stop offset=".101" stop-color="#00D0EC"/><stop offset=".251" stop-color="#09C5ED"/><stop offset=".512" stop-color="#21A9F0"/><stop offset=".851" stop-color="#477BF5"/><stop offset="1" stop-color="#5A65F7"/></linearGradient><linearGradient id="m" x1="19.905" y1="23.931" x2="49.144" y2="23.931" gradientUnits="userSpaceOnUse"><stop offset=".101" stop-color="#00D0EC"/><stop offset=".251" stop-color="#09C5ED"/><stop offset=".512" stop-color="#21A9F0"/><stop offset=".851" stop-color="#477BF5"/><stop offset="1" stop-color="#5A65F7"/></linearGradient><linearGradient id="n" x1="18.443" y1="23.931" x2="50.606" y2="23.931" gradientUnits="userSpaceOnUse"><stop offset=".101" stop-color="#B2EA20"/><stop offset=".39" stop-color="#AFE71D"/><stop offset=".643" stop-color="#A4DE16"/><stop offset=".88" stop-color="#92CF09"/><stop offset="1" stop-color="#86C500"/></linearGradient></defs></svg>