<svg width="94" height="121" fill="none" xmlns="http://www.w3.org/2000/svg"><mask id="a" style="mask-type:luminance" maskUnits="userSpaceOnUse" x="19" y="80" width="56" height="31"><path d="M29.077 80.906c-2.455 0-4.419 1.726-4.91 4.193l-4.173 25.406h54.009l-4.174-25.406c-.49-2.467-2.454-4.193-4.91-4.193H29.078Z" fill="#fff"/></mask><g mask="url(#a)"><path d="M74.003 80.906H19.994v29.599h54.009v-29.6Z" fill="url(#b)"/></g><path d="M76.46 120.372H17.54c-1.472 0-2.454-.987-2.454-2.467v-4.933c0-1.48.982-2.467 2.455-2.467H76.46c1.473 0 2.455.987 2.455 2.467v4.933c0 1.48-.983 2.467-2.455 2.467Z" fill="url(#c)"/><path d="M64.184 88.305h-34.37v14.8h34.37v-14.8Z" fill="#E4F4FF"/><path d="M64.184 88.305h-34.37v14.8h34.37v-14.8Z" fill="url(#d)"/><path d="M64.184 88.305h-34.37v14.8h34.37v-14.8Z" fill="url(#e)"/><path d="M64.184 88.305h-34.37v14.8h34.37v-14.8Z" fill="url(#f)"/><path d="M64.184 88.305h-34.37v14.8h34.37v-14.8Z" fill="url(#g)" fill-opacity=".1"/><path d="M56.82 98.172H37.18c-1.473 0-2.455-.987-2.455-2.467 0-.74.49-2.466 2.455-2.466h19.64c1.472 0 2.454.986 2.454 2.466 0 .74-.49 2.467-2.455 2.467Z" fill="url(#h)"/><mask id="i" style="mask-type:luminance" maskUnits="userSpaceOnUse" x="34" y="61" width="26" height="21"><path d="M39.635 61.666v3.453c0 5.92-1.719 11.593-4.91 16.28h24.55c-3.192-4.933-4.91-10.607-4.91-16.28v-3.453h-14.73Z" fill="#fff"/></mask><g mask="url(#i)"><path d="M59.274 61.666h-24.55v19.733h24.55V61.666Z" fill="url(#j)"/></g><path d="M78.915 56.733h-63.83V44.4c0-17.76 14.24-32.067 31.915-32.067 17.676 0 31.915 14.307 31.915 32.067v12.333Z" fill="#E4F4FF"/><path d="M78.915 56.733h-63.83V44.4c0-17.76 14.24-32.067 31.915-32.067 17.676 0 31.915 14.307 31.915 32.067v12.333Z" fill="url(#k)"/><path d="M78.915 56.733h-63.83V44.4c0-17.76 14.24-32.067 31.915-32.067 17.676 0 31.915 14.307 31.915 32.067v12.333Z" fill="url(#l)"/><path d="M81.37 66.6H12.63c-1.472 0-2.454-.988-2.454-2.468V59.2c0-1.48.982-2.466 2.455-2.466h68.738c1.473 0 2.455.986 2.455 2.466v4.933c0 1.48-.982 2.467-2.455 2.467Z" fill="url(#m)"/><mask id="n" style="mask-type:luminance" maskUnits="userSpaceOnUse" x="5" y="4" width="84" height="53"><path d="M29.815 37 5.265 17.266l7.365 39.466H81.37l7.365-39.466-24.55 19.732L47 4.933 29.815 37Z" fill="#fff"/></mask><g mask="url(#n)"><path d="M88.734 4.933H5.266v51.8h83.468v-51.8Z" fill="url(#o)"/></g><mask id="p" style="mask-type:luminance" maskUnits="userSpaceOnUse" x="42" y="0" width="10" height="10"><path d="M42.092 4.933c0 2.714 2.21 4.934 4.91 4.934s4.91-2.22 4.91-4.934c0-2.713-2.21-4.933-4.91-4.933s-4.91 2.22-4.91 4.933Z" fill="#fff"/></mask><g mask="url(#p)"><path d="M51.912 0h-9.82v9.867h9.82V0Z" fill="url(#q)"/></g><mask id="r" style="mask-type:luminance" maskUnits="userSpaceOnUse" x="0" y="12" width="11" height="11"><path d="M.355 17.266c0 2.714 2.21 4.934 4.91 4.934s4.91-2.22 4.91-4.934c0-2.713-2.21-4.933-4.91-4.933s-4.91 2.22-4.91 4.933Z" fill="#fff"/></mask><g mask="url(#r)"><path d="M10.175 12.333H.355V22.2h9.82v-9.867Z" fill="url(#s)"/></g><mask id="t" style="mask-type:luminance" maskUnits="userSpaceOnUse" x="83" y="12" width="11" height="11"><path d="M83.826 17.266c0 2.714 2.21 4.934 4.91 4.934s4.91-2.22 4.91-4.934c0-2.713-2.21-4.933-4.91-4.933s-4.91 2.22-4.91 4.933Z" fill="#fff"/></mask><g mask="url(#t)"><path d="M93.646 12.333h-9.82V22.2h9.82v-9.867Z" fill="url(#u)"/></g><path d="M54.364 41.933c0 5.426-3.191 9.866-7.364 9.866-4.174 0-7.365-4.44-7.365-9.866 0-5.427 3.191-9.867 7.365-9.867 4.173 0 7.364 4.44 7.364 9.867Z" fill="#F0F7FC"/><path d="M66.638 73.999H27.36l2.455-7.4h34.37l2.454 7.4Z" fill="url(#v)"/><defs><linearGradient id="b" x1="47.004" y1="110.625" x2="47.004" y2="81.026" gradientUnits="userSpaceOnUse"><stop offset=".101" stop-color="#00D0EC"/><stop offset=".251" stop-color="#09C5ED"/><stop offset=".512" stop-color="#21A9F0"/><stop offset=".851" stop-color="#477BF5"/><stop offset="1" stop-color="#5A65F7"/></linearGradient><linearGradient id="c" x1="47" y1="110.505" x2="47" y2="120.372" gradientUnits="userSpaceOnUse"><stop stop-color="#60E1F3"/><stop offset="1" stop-color="#4E72F6"/></linearGradient><linearGradient id="h" x1="57.602" y1="93.332" x2="57.225" y2="98.136" gradientUnits="userSpaceOnUse"><stop stop-color="#B2EA20"/><stop offset="1" stop-color="#14C1ED"/></linearGradient><linearGradient id="j" x1="57.602" y1="62.039" x2="52.083" y2="79.641" gradientUnits="userSpaceOnUse"><stop stop-color="#B2EA20"/><stop offset="1" stop-color="#14C1ED"/></linearGradient><linearGradient id="l" x1="43.789" y1="-.491" x2="44.795" y2="48.205" gradientUnits="userSpaceOnUse"><stop offset=".539" stop-color="#94D1FF" stop-opacity=".13"/><stop offset="1" stop-color="#0081E1"/></linearGradient><linearGradient id="m" x1="47" y1="56.733" x2="47" y2="66.599" gradientUnits="userSpaceOnUse"><stop stop-color="#60E1F3"/><stop offset="1" stop-color="#4E72F6"/></linearGradient><linearGradient id="o" x1="83.049" y1="5.913" x2="71.443" y2="53.851" gradientUnits="userSpaceOnUse"><stop stop-color="#B2EA20"/><stop offset="1" stop-color="#14C1ED"/></linearGradient><linearGradient id="q" x1="51.243" y1=".187" x2="47.959" y2="8.566" gradientUnits="userSpaceOnUse"><stop stop-color="#AEE61C"/><stop offset="1" stop-color="#8FCF00"/></linearGradient><linearGradient id="s" x1="9.506" y1="12.52" x2="6.222" y2="20.899" gradientUnits="userSpaceOnUse"><stop stop-color="#AEE61C"/><stop offset="1" stop-color="#8FCF00"/></linearGradient><linearGradient id="u" x1="92.977" y1="12.52" x2="89.693" y2="20.899" gradientUnits="userSpaceOnUse"><stop stop-color="#AEE61C"/><stop offset="1" stop-color="#8FCF00"/></linearGradient><linearGradient id="v" x1="46.999" y1="66.599" x2="46.999" y2="73.999" gradientUnits="userSpaceOnUse"><stop stop-color="#60E1F3"/><stop offset="1" stop-color="#4E72F6"/></linearGradient><radialGradient id="d" cx="0" cy="0" r="1" gradientUnits="userSpaceOnUse" gradientTransform="matrix(0 -9.23268 33.228 0 47 99.043)"><stop stop-color="#9DD0F9"/><stop offset=".177" stop-color="#9DD0F9" stop-opacity=".823"/><stop offset="1" stop-color="#9DD0F9" stop-opacity="0"/></radialGradient><radialGradient id="e" cx="0" cy="0" r="1" gradientUnits="userSpaceOnUse" gradientTransform="matrix(1.72927 7.82876 -17.78402 3.92826 47 91.86)"><stop offset=".539" stop-color="#94D1FF" stop-opacity=".13"/><stop offset="1" stop-color="#94D1FF"/></radialGradient><radialGradient id="f" cx="0" cy="0" r="1" gradientUnits="userSpaceOnUse" gradientTransform="matrix(29.1544 -1.77023 .71682 11.80556 35.03 93.269)"><stop stop-color="#fff"/><stop offset="1" stop-color="#fff" stop-opacity="0"/></radialGradient><radialGradient id="g" cx="0" cy="0" r="1" gradientUnits="userSpaceOnUse" gradientTransform="matrix(-.64847 -7.01669 16.2378 -1.50068 46.35 95.683)"><stop stop-color="#E3F8FF" stop-opacity="0"/><stop offset="1" stop-color="#E3F8FF"/></radialGradient><radialGradient id="k" cx="0" cy="0" r="1" gradientUnits="userSpaceOnUse" gradientTransform="matrix(0 -27.698 61.7092 0 47 44.545)"><stop stop-color="#9DD0F9"/><stop offset=".177" stop-color="#9DD0F9" stop-opacity=".823"/><stop offset="1" stop-color="#9DD0F9" stop-opacity="0"/></radialGradient></defs></svg>