<svg width="51" height="67" fill="none" xmlns="http://www.w3.org/2000/svg"><mask id="a" style="mask-type:luminance" maskUnits="userSpaceOnUse" x="21" y="32" width="9" height="14"><path d="M29.83 32.32h-8.657v12.984h8.657V32.32Z" fill="#fff"/></mask><g mask="url(#a)"><path d="M29.83 31.454h-8.657v13.85h8.657v-13.85Z" fill="url(#b)"/></g><path d="M15.401 32.32H9.63v12.984H15.4V32.32Z" fill="url(#c)"/><mask id="d" style="mask-type:luminance" maskUnits="userSpaceOnUse" x="9" y="32" width="7" height="14"><path d="M15.401 32.32H9.63v12.984H15.4V32.32Z" fill="#fff"/></mask><g mask="url(#d)"><path d="M15.401 31.454H9.63v13.85H15.4v-13.85Z" fill="url(#e)"/></g><path d="M41.37 32.32H35.6v12.984h5.77V32.32Z" fill="url(#f)"/><mask id="g" style="mask-type:luminance" maskUnits="userSpaceOnUse" x="35" y="32" width="7" height="14"><path d="M41.37 32.32H35.6v12.984h5.77V32.32Z" fill="#fff"/></mask><g mask="url(#g)"><path d="M41.37 31.454H35.6v13.85h5.77v-13.85Z" fill="url(#h)"/></g><path d="M48.585 66.943H2.415c-.865 0-1.442-.577-1.442-1.442v-2.886c0-.865.577-1.442 1.442-1.442h46.17c.866 0 1.443.577 1.443 1.442v2.886c0 .721-.577 1.442-1.443 1.442ZM42.814 33.763H8.187c-.866 0-1.443-.578-1.443-1.443v-2.885c0-.866.577-1.443 1.443-1.443h34.627c.866 0 1.443.577 1.443 1.443v2.885c0 .721-.577 1.443-1.443 1.443Z" fill="#6AD3F0"/><mask id="i" style="mask-type:luminance" maskUnits="userSpaceOnUse" x="3" y="45" width="45" height="17"><path d="M8.764 45.304c-.866 0-.721.144-4.473 3.895-.288.288-.433.577-.433 1.01v10.964h43.284V50.209c0-.866-.144-.722-3.895-4.473-.289-.288-.577-.432-1.01-.432H8.764Z" fill="#fff"/></mask><g mask="url(#i)"><path d="M47.142 45.304H3.858v15.869h43.284v-15.87Z" fill="url(#j)"/></g><path d="M42.814 49.632H8.187v8.656h34.627v-8.656Z" fill="url(#k)"/><path d="M32.714 55.402H18.286c-.866 0-1.443-.577-1.443-1.442 0-.433.288-1.443 1.443-1.443h14.428c.865 0 1.442.577 1.442 1.443 0 .432-.288 1.442-1.442 1.442ZM39.929 53.96c0-.866-.578-1.443-1.443-1.443-.866 0-1.443.577-1.443 1.443 0 .865.577 1.442 1.443 1.442.866 0 1.443-.721 1.443-1.442ZM13.957 53.96c0-.866-.577-1.443-1.443-1.443-.866 0-1.443.577-1.443 1.443 0 .865.577 1.442 1.443 1.442.866 0 1.443-.721 1.443-1.442Z" fill="#F0F7FC"/><mask id="l" style="mask-type:luminance" maskUnits="userSpaceOnUse" x="15" y="0" width="20" height="29"><path d="M21.172.582c-1.588 3.173-5.195 2.885-4.617 2.885-.578 0-1.155.433-1.155 1.154v3.607c0 .577.433 1.154 1.155 1.154h4.617v12.984l-3.319 1.154c-.577.144-1.01.721-1.01 1.298v3.318h17.314v-3.318c0-.577-.433-1.154-1.01-1.298l-3.319-1.154V.726h-8.656V.582Z" fill="#fff"/></mask><g mask="url(#l)"><path d="M34.156.582H15.399v27.41h18.757V.582Z" fill="url(#m)"/></g><defs><linearGradient id="b" x1="25.501" y1="45.278" x2="25.501" y2="31.403" gradientUnits="userSpaceOnUse"><stop offset=".101" stop-color="#00D0EC"/><stop offset=".251" stop-color="#09C5ED"/><stop offset=".512" stop-color="#21A9F0"/><stop offset=".851" stop-color="#477BF5"/><stop offset="1" stop-color="#5A65F7"/></linearGradient><linearGradient id="c" x1="9.63" y1="38.797" x2="15.402" y2="38.797" gradientUnits="userSpaceOnUse"><stop offset=".101" stop-color="#00D0EC"/><stop offset=".251" stop-color="#09C5ED"/><stop offset=".512" stop-color="#21A9F0"/><stop offset=".851" stop-color="#477BF5"/><stop offset="1" stop-color="#5A65F7"/></linearGradient><linearGradient id="e" x1="12.515" y1="45.278" x2="12.515" y2="31.403" gradientUnits="userSpaceOnUse"><stop offset=".101" stop-color="#00D0EC"/><stop offset=".251" stop-color="#09C5ED"/><stop offset=".512" stop-color="#21A9F0"/><stop offset=".851" stop-color="#477BF5"/><stop offset="1" stop-color="#5A65F7"/></linearGradient><linearGradient id="f" x1="35.6" y1="38.797" x2="41.372" y2="38.797" gradientUnits="userSpaceOnUse"><stop offset=".101" stop-color="#00D0EC"/><stop offset=".251" stop-color="#09C5ED"/><stop offset=".512" stop-color="#21A9F0"/><stop offset=".851" stop-color="#477BF5"/><stop offset="1" stop-color="#5A65F7"/></linearGradient><linearGradient id="h" x1="38.485" y1="45.278" x2="38.485" y2="31.403" gradientUnits="userSpaceOnUse"><stop offset=".101" stop-color="#00D0EC"/><stop offset=".251" stop-color="#09C5ED"/><stop offset=".512" stop-color="#21A9F0"/><stop offset=".851" stop-color="#477BF5"/><stop offset="1" stop-color="#5A65F7"/></linearGradient><linearGradient id="j" x1="25.5" y1="61.148" x2="25.5" y2="45.279" gradientUnits="userSpaceOnUse"><stop offset=".101" stop-color="#00D0EC"/><stop offset=".251" stop-color="#09C5ED"/><stop offset=".512" stop-color="#21A9F0"/><stop offset=".851" stop-color="#477BF5"/><stop offset="1" stop-color="#5A65F7"/></linearGradient><linearGradient id="k" x1="8.187" y1="53.932" x2="42.814" y2="53.932" gradientUnits="userSpaceOnUse"><stop offset=".101" stop-color="#B2EA20"/><stop offset=".39" stop-color="#AFE71D"/><stop offset=".643" stop-color="#A4DE16"/><stop offset=".88" stop-color="#92CF09"/><stop offset="1" stop-color="#86C500"/></linearGradient><linearGradient id="m" x1="15.4" y1="14.259" x2="34.157" y2="14.259" gradientUnits="userSpaceOnUse"><stop offset=".101" stop-color="#B2EA20"/><stop offset=".39" stop-color="#AFE71D"/><stop offset=".643" stop-color="#A4DE16"/><stop offset=".88" stop-color="#92CF09"/><stop offset="1" stop-color="#86C500"/></linearGradient></defs></svg>