<svg width="748" height="374" fill="none" xmlns="http://www.w3.org/2000/svg"><path fill-rule="evenodd" clip-rule="evenodd" d="M374 374h93v-94c-51.31 0-93 41.814-93 94ZM561 93h93V0c-51.31 0-93 41.369-93 93ZM0 280h93v-93c-51.31 0-93 41.369-93 93ZM187 374v-94H93c0 51.862 41.814 94 94 94ZM374 374v-94h-94c0 51.862 41.814 94 94 94ZM561 93V0h-94c0 51.31 41.814 93 94 93ZM654 187V93h-93c0 51.862 41.369 94 93 94ZM748 0h-94v93c51.862 0 94-41.369 94-93ZM467 187v93h94c0-51.31-41.814-93-94-93ZM93 93v94h94c0-51.862-41.814-94-94-94ZM187 93v94h93c0-51.862-41.369-94-93-94ZM0 374h93v-94c-51.31 0-93 41.814-93 94ZM654 374h94v-94c-51.862 0-94 41.814-94 94ZM561 280h93v-93c-51.31 0-93 41.369-93 93ZM374 187h93V93c-51.31 0-93 41.814-93 94ZM561 374h93v-94c-51.31 0-93 41.814-93 94ZM654 187h94V93c-51.862 0-94 41.814-94 94ZM467 280h94v94c-51.862 0-94-42.138-94-94ZM93 187h94v93c-51.862 0-94-41.69-94-93ZM654 187h94v93c-51.862 0-94-41.69-94-93ZM280 280v94h-93c0-51.862 41.69-94 93-94ZM467 0v93h-93c0-51.31 41.69-93 93-93Z" fill="#2C2E33"/></svg>