<svg width="213" height="373" fill="none" xmlns="http://www.w3.org/2000/svg"><path fill-rule="evenodd" clip-rule="evenodd" d="M0 53h54V0C24.207 0 0 23.576 0 53ZM107 0H54v53c29.241 0 53-23.576 53-53ZM213 53V0h-52c0 29.241 23.131 53 52 53ZM54 107V53H0c0 29.793 24.02 54 54 54ZM0 159h54v-52c-29.793 0-54 23.131-54 52ZM107 107V53H54c0 29.793 23.576 54 53 54ZM107 213v-54H54c0 29.793 23.576 54 53 54ZM107 159v-52H54c0 28.69 23.576 52 53 52ZM107 107v52h54c0-28.69-24.021-52-54-52ZM107 213H54v53c29.241 0 53-23.576 53-53ZM107 213h54v-54c-29.793 0-54 24.021-54 54ZM161 213h52v-54c-28.69 0-52 24.021-52 54ZM107 266h54v-53c-29.793 0-54 23.576-54 53ZM161 107v52h52c0-28.69-23.131-52-52-52ZM213 266v-53h-52c0 29.241 23.131 53 52 53ZM213 53h-52v54c28.69 0 52-24.02 52-54ZM161 107V53h-54c0 29.793 24.021 54 54 54ZM107 320v-54H54c0 29.793 23.576 54 53 54ZM107 373v-53H54c0 29.241 23.576 53 53 53ZM107 320v53h54c0-29.241-24.021-53-54-53ZM161 320v53h52c0-29.241-23.131-53-52-53ZM213 266h-52v54c28.69 0 52-24.021 52-54Z" fill="#2C2E33"/></svg>