<svg width="316" height="190" fill="none" xmlns="http://www.w3.org/2000/svg"><path d="M252.125 63H189v63.125h63.125V63Z" fill="#327AF0"/><path d="M252.125 126.125H189V63h8.707l54.418 54.418v8.707Z" fill="url(#a)"/><path d="M315.1 126H252v63.1h33.1c16.569 0 30-13.431 30-30V126Z" fill="#327AF0"/><path d="M293.123 148.194h-18.93v18.93h18.93v-18.93Z" fill="url(#b)"/><path d="M63.1 126H0v33.1c0 16.569 13.431 30 30 30h33.1V126Z" fill="url(#c)"/><path d="M0 170v-44h63.1v8.703l-49.6 49.57L0 170Z" fill="url(#d)"/><path d="M126.125 63H63v63.125h63.125V63Z" fill="url(#e)"/><path d="M63 63h63.125v63.125h-8.707L63 71.707V63Z" fill="url(#f)"/><path d="M125.95 189.1h63.1V126h-63.1v63.1Z" fill="#E9EFFF"/><path d="M125.95 189.1V126h63.1v8.704L134.653 189.1h-8.703Z" fill="url(#g)"/><path d="M251.883 126H189v63.1h62.883V126Z" fill="url(#h)"/><path d="M196.731 189.1c30.574 0 55.294-24.587 55.294-55.049V126h-63.1v63.1h7.806Z" fill="url(#i)"/><path d="M315.125 62.908V0H252v62.908h63.125Z" fill="#E9EFFF"/><path d="M315.125 55.316C315.125 24.729 290.31 0 259.836 0H252v63.125h63.125v-7.81Z" fill="url(#j)"/><path d="M275.291 63.125v-14.1c0-4.555 3.7-8.243 8.271-8.243 4.572 0 8.272 3.688 8.272 8.243v14.1" fill="url(#k)"/><path fill-rule="evenodd" clip-rule="evenodd" d="M126.075 189.1h-63.1V126h63.1v63.1Z" fill="url(#l)"/><path fill-rule="evenodd" clip-rule="evenodd" d="M126.075 126v63.1h-63.1c0-34.814 28.286-63.1 63.1-63.1Z" fill="url(#m)"/><path fill-rule="evenodd" clip-rule="evenodd" d="M126.074 157.55v31.55h-31.55c0-17.407 14.144-31.55 31.55-31.55Z" fill="url(#n)"/><path fill-rule="evenodd" clip-rule="evenodd" d="M252 126h63V63c-34.759 0-63 28.024-63 63ZM63 126V63H0c0 34.759 28.024 63 63 63ZM126 63v63h63c0-34.759-28.024-63-63-63Z" fill="#E9EFFF"/><defs><linearGradient id="a" x1="177.709" y1="87.32" x2="253.777" y2="122.792" gradientUnits="userSpaceOnUse"><stop offset=".101" stop-color="#00D0EC"/><stop offset=".251" stop-color="#09C5ED"/><stop offset=".512" stop-color="#21A9F0"/><stop offset=".851" stop-color="#477BF5"/><stop offset="1" stop-color="#5A65F7"/></linearGradient><linearGradient id="b" x1="272.236" y1="152.341" x2="294.962" y2="162.939" gradientUnits="userSpaceOnUse"><stop offset=".101" stop-color="#B2EA20"/><stop offset=".39" stop-color="#AFE71D"/><stop offset=".643" stop-color="#A4DE16"/><stop offset=".88" stop-color="#92CF09"/><stop offset="1" stop-color="#86C500"/></linearGradient><linearGradient id="c" x1=".107" y1="157.525" x2="63.24" y2="157.525" gradientUnits="userSpaceOnUse"><stop offset=".101" stop-color="#B2EA20"/><stop offset=".39" stop-color="#AFE71D"/><stop offset=".643" stop-color="#A4DE16"/><stop offset=".88" stop-color="#92CF09"/><stop offset="1" stop-color="#86C500"/></linearGradient><linearGradient id="d" x1="-6.324" y1="139.797" x2="48.736" y2="165.383" gradientUnits="userSpaceOnUse"><stop offset=".101" stop-color="#00D0EC"/><stop offset=".251" stop-color="#09C5ED"/><stop offset=".512" stop-color="#21A9F0"/><stop offset=".851" stop-color="#477BF5"/><stop offset="1" stop-color="#5A65F7"/></linearGradient><linearGradient id="e" x1="63.029" y1="94.579" x2="126.187" y2="94.579" gradientUnits="userSpaceOnUse"><stop offset=".101" stop-color="#B2EA20"/><stop offset=".39" stop-color="#AFE71D"/><stop offset=".643" stop-color="#A4DE16"/><stop offset=".88" stop-color="#92CF09"/><stop offset="1" stop-color="#86C500"/></linearGradient><linearGradient id="f" x1="61.438" y1="66.411" x2="137.506" y2="101.882" gradientUnits="userSpaceOnUse"><stop offset=".101" stop-color="#00D0EC"/><stop offset=".251" stop-color="#09C5ED"/><stop offset=".512" stop-color="#21A9F0"/><stop offset=".851" stop-color="#477BF5"/><stop offset="1" stop-color="#5A65F7"/></linearGradient><linearGradient id="g" x1="174.747" y1="165.644" x2="119.565" y2="139.912" gradientUnits="userSpaceOnUse"><stop offset=".101" stop-color="#00D0EC"/><stop offset=".251" stop-color="#09C5ED"/><stop offset=".512" stop-color="#21A9F0"/><stop offset=".851" stop-color="#477BF5"/><stop offset="1" stop-color="#5A65F7"/></linearGradient><linearGradient id="h" x1="189.093" y1="157.644" x2="252.009" y2="157.644" gradientUnits="userSpaceOnUse"><stop offset=".101" stop-color="#B2EA20"/><stop offset=".39" stop-color="#AFE71D"/><stop offset=".643" stop-color="#A4DE16"/><stop offset=".88" stop-color="#92CF09"/><stop offset="1" stop-color="#86C500"/></linearGradient><linearGradient id="i" x1="188.928" y1="157.644" x2="252.023" y2="157.644" gradientUnits="userSpaceOnUse"><stop offset=".101" stop-color="#00D0EC"/><stop offset=".251" stop-color="#09C5ED"/><stop offset=".512" stop-color="#21A9F0"/><stop offset=".851" stop-color="#477BF5"/><stop offset="1" stop-color="#5A65F7"/></linearGradient><linearGradient id="j" x1="293.612" y1="10.08" x2="265.921" y2="69.668" gradientUnits="userSpaceOnUse"><stop offset=".101" stop-color="#00D0EC"/><stop offset=".251" stop-color="#09C5ED"/><stop offset=".512" stop-color="#21A9F0"/><stop offset=".851" stop-color="#477BF5"/><stop offset="1" stop-color="#5A65F7"/></linearGradient><linearGradient id="k" x1="291.787" y1="52.011" x2="275.282" y2="52.011" gradientUnits="userSpaceOnUse"><stop offset=".101" stop-color="#B2EA20"/><stop offset=".39" stop-color="#AFE71D"/><stop offset=".643" stop-color="#A4DE16"/><stop offset=".88" stop-color="#92CF09"/><stop offset="1" stop-color="#86C500"/></linearGradient><linearGradient id="l" x1="63.008" y1="157.592" x2="126.14" y2="157.592" gradientUnits="userSpaceOnUse"><stop offset=".101" stop-color="#00D0EC"/><stop offset=".261" stop-color="#04CBEC"/><stop offset=".44" stop-color="#0FBEEE"/><stop offset=".628" stop-color="#22A8F0"/><stop offset=".822" stop-color="#3C88F3"/><stop offset="1" stop-color="#5A65F7"/></linearGradient><linearGradient id="m" x1="111.525" y1="195.665" x2="85.841" y2="137.976" gradientUnits="userSpaceOnUse"><stop stop-color="#D1ECF3"/><stop offset=".132" stop-color="#C9EBF3"/><stop offset=".333" stop-color="#B4E6F2"/><stop offset=".578" stop-color="#92E0F1"/><stop offset=".854" stop-color="#63D6EF"/><stop offset="1" stop-color="#47D1EE"/></linearGradient><linearGradient id="n" x1="105.152" y1="165.044" x2="121.882" y2="191.818" gradientUnits="userSpaceOnUse"><stop offset=".101" stop-color="#00D0EC"/><stop offset=".261" stop-color="#04CBEC"/><stop offset=".44" stop-color="#0FBEEE"/><stop offset=".628" stop-color="#22A8F0"/><stop offset=".822" stop-color="#3C88F3"/><stop offset="1" stop-color="#5A65F7"/></linearGradient></defs></svg>