<svg width="650" height="1024" fill="none" xmlns="http://www.w3.org/2000/svg"><path fill-rule="evenodd" clip-rule="evenodd" d="M463 281h94v-94c-51.862 0-94 41.814-94 94ZM93 281h94v-94c-51.862 0-94 41.814-94 94ZM463 468h94v-94c-51.862 0-94 41.814-94 94ZM276 468h94v-94c-51.862 0-94 41.814-94 94ZM93 468h94v-94c-51.862 0-94 41.814-94 94ZM650 562v-94h-93c0 51.862 41.369 94 93 94ZM280 562v-94h-93c0 51.862 41.369 94 93 94ZM650 187V94h-93c0 51.31 41.369 93 93 93ZM280 187V94h-93c0 51.31 41.369 93 93 93ZM650 749v-93h-93c0 51.31 41.369 93 93 93ZM650 935v-93h-93c0 51.31 41.369 93 93 93ZM650 1028v-93h-93c0 51.31 41.369 93 93 93ZM280 749v-93h-93c0 51.31 41.369 93 93 93ZM280 935v-93h-93c0 51.31 41.369 93 93 93ZM280 1028v-93h-93c0 51.31 41.369 93 93 93ZM463 562v-94h-93c0 51.862 41.369 94 93 94ZM93 562v-94H0c0 51.862 41.369 94 93 94ZM463 281v-94h-93c0 51.862 41.369 94 93 94ZM93 281v-94H0c0 51.862 41.369 94 93 94Z" fill="#E9EFFF"/><path fill-rule="evenodd" clip-rule="evenodd" d="M93 374v-94H0c0 51.862 41.369 94 93 94ZM557 374v-93h-94c0 51.31 41.814 93 94 93ZM187 374v-93H93c0 51.31 41.814 93 94 93ZM370 749v-93h-94c0 51.31 41.814 93 94 93ZM370 935v-93h-94c0 51.31 41.814 93 94 93ZM370 1028v-93h-94c0 51.31 41.814 93 94 93ZM463 187V94h-93c0 51.31 41.369 93 93 93ZM93 187V94H0c0 51.31 41.369 93 93 93ZM463 749v-93h-93c0 51.31 41.369 93 93 93ZM463 935v-93h-93c0 51.31 41.369 93 93 93ZM463 1028v-93h-93c0 51.31 41.369 93 93 93ZM93 749v-93H0c0 51.31 41.369 93 93 93ZM93 935v-93H0c0 51.31 41.369 93 93 93ZM93 1028v-93H0c0 51.31 41.369 93 93 93ZM650 187h-93v94c51.31 0 93-41.814 93-94ZM280 187h-93v94c51.31 0 93-41.814 93-94ZM276 0v94h94c0-51.862-41.814-94-94-94ZM370 0v94h93c0-51.862-41.369-94-93-94ZM0 0v94h93C93 42.138 51.631 0 0 0ZM370 562v94h93c0-51.862-41.369-94-93-94Z" fill="#E9EFFF"/><path fill-rule="evenodd" clip-rule="evenodd" d="M370 749v94h93c0-51.862-41.369-94-93-94ZM0 562v94h93c0-51.862-41.369-94-93-94ZM93 843v-94H0c0 51.862 41.369 94 93 94ZM463 562h94v-94c-51.862 0-94 41.814-94 94ZM93 562h94v-94c-51.862 0-94 41.814-94 94ZM276 562h94v-94c-51.862 0-94 41.814-94 94ZM276 374h94v-93c-51.862 0-94 41.369-94 93ZM557 374h93v-93c-51.31 0-93 41.369-93 93Z" fill="#E9EFFF"/><path fill-rule="evenodd" clip-rule="evenodd" d="M187 374h93v-93c-51.31 0-93 41.369-93 93ZM557 374h93v94c-51.31 0-93-42.138-93-94ZM187 374h93v94c-51.31 0-93-42.138-93-94ZM557 94v93h-94c0-51.31 42.138-93 94-93ZM187 94v93H93c0-51.31 42.138-93 94-93ZM557 656v93h-94c0-51.31 42.138-93 94-93ZM557 842v93h-94c0-51.31 42.138-93 94-93ZM557 935v93h-94c0-51.31 42.138-93 94-93ZM187 656v93H93c0-51.31 42.138-93 94-93ZM187 842v93H93c0-51.31 42.138-93 94-93Z" fill="#E9EFFF"/><path fill-rule="evenodd" clip-rule="evenodd" d="M187 750v93H93c0-51.31 42.138-93 94-93ZM187 935v93H93c0-51.31 42.138-93 94-93ZM650 0v94h-93c0-51.862 41.69-94 93-94ZM280 0v94h-93c0-51.862 41.69-94 93-94ZM187 0v94H94c0-51.862 41.69-94 93-94ZM650 562v94h-93c0-51.862 41.69-94 93-94ZM650 749v94h-93c0-51.862 41.69-94 93-94ZM280 562v94h-93c0-51.862 41.69-94 93-94ZM280 749v94h-93c0-51.862 41.69-94 93-94ZM370 187v94h-94c0-51.862 42.138-94 94-94Z" fill="#E9EFFF"/><path fill-rule="evenodd" clip-rule="evenodd" d="M370 655v-93h-94c0 51.31 41.814 93 94 93ZM370 842v-93h-94c0 51.31 41.814 93 94 93Z" fill="#E9EFFF"/></svg>