<svg width="140" height="26" fill="none" xmlns="http://www.w3.org/2000/svg"><g clip-path="url(#a)"><path d="M25.06 12.845c3.354 0 6.074-2.713 6.074-6.06 0-3.347-2.72-6.06-6.075-6.06s-6.075 2.713-6.075 6.06c0 3.347 2.72 6.06 6.075 6.06Z" fill="url(#b)"/><path d="m6.352 21.11 12.15 2.617c3.244.689 6.627-.482 8.698-3.03l9.043-11.02V5.958L6.352 21.11Z" fill="url(#c)"/><path d="m0 14.705 12.91-4.752 9.319 8.953c1.38 1.377 3.52 1.653 5.246.689l1.105-.62-1.45 1.79c-5.108 6.199-14.497 6.68-20.158.965L0 14.705Z" fill="url(#d)"/><path d="M46.874 9.953v9.435h-2.969V7.405h10.493v12.052H51.43V9.953h-4.556ZM56.815 22.763V11.468h2.623v11.295h-2.623Zm8.56-5.028a3.981 3.981 0 0 1-1.381 1.446c-.552.345-1.174.482-1.864.482-.69 0-1.312-.206-1.795-.55a3.517 3.517 0 0 1-1.173-1.447c-.276-.62-.415-1.377-.415-2.204 0-.826.139-1.584.415-2.204.276-.62.62-1.101 1.173-1.446a3.081 3.081 0 0 1 1.795-.55c.621 0 1.243.137 1.864.481a3.982 3.982 0 0 1 1.38 1.447c.346.62.553 1.377.553 2.341 0 .827-.207 1.584-.552 2.204Zm-2.486-3.306c-.138-.275-.414-.482-.69-.62a2.21 2.21 0 0 0-1.864 0c-.276.138-.483.345-.69.62-.207.276-.276.62-.276 1.033 0 .414.069.758.276 1.033.207.276.414.482.69.62.276.138.552.207.898.207.345 0 .69-.069.966-.207.276-.137.483-.344.69-.62.139-.275.276-.62.276-1.033 0-.413-.069-.757-.276-1.033ZM67.584 13.259c.414-.62.897-1.102 1.587-1.447.69-.344 1.45-.482 2.347-.482.829 0 1.657.138 2.348.482.69.345 1.242.827 1.587 1.447.415.62.622 1.377.622 2.203 0 .827-.207 1.516-.622 2.135a4.545 4.545 0 0 1-1.587 1.447c-.69.344-1.45.482-2.348.482-.828 0-1.656-.138-2.347-.482-.69-.345-1.242-.827-1.588-1.447-.414-.62-.552-1.308-.552-2.135 0-.826.207-1.584.552-2.203Zm2.347 3.236c.138.276.414.552.69.69.276.137.552.206.897.206.346 0 .622-.07.898-.207.276-.137.483-.413.69-.689.207-.275.276-.62.276-1.033 0-.413-.069-.757-.276-1.033a1.662 1.662 0 0 0-.69-.688 2.13 2.13 0 0 0-.898-.207c-.345 0-.62.069-.897.207-.276.137-.483.413-.69.688-.138.276-.276.62-.276 1.033 0 .414.138.758.276 1.034ZM80.079 16.564c.207.276.414.551.759.689.345.138.69.276 1.035.276.346 0 .622-.07.898-.138.276-.07.552-.207.828-.413.276-.138.483-.414.621-.62v2.548a3.663 3.663 0 0 1-1.035.55c-.414.139-.897.207-1.519.207-.897 0-1.656-.137-2.347-.482a4.217 4.217 0 0 1-1.657-1.446c-.414-.62-.621-1.308-.621-2.135 0-.826.207-1.584.621-2.204a4.215 4.215 0 0 1 1.657-1.446c.69-.344 1.45-.482 2.347-.482.622 0 1.105.069 1.519.207.414.137.76.275 1.035.482v2.548a1.353 1.353 0 0 0-.62-.62l-.83-.413c-.275-.07-.62-.138-.897-.138-.345 0-.759.069-1.035.275a2.003 2.003 0 0 0-.76.758c-.207.276-.276.689-.276 1.033 0 .276.138.62.276.964ZM90.78 11.468v2.135h-5.593v-2.135h5.592Zm-1.52.344v7.576h-2.485v-7.576h2.485ZM91.746 13.259c.414-.62.897-1.102 1.587-1.447.69-.344 1.45-.482 2.347-.482.829 0 1.657.138 2.348.482.69.345 1.242.827 1.587 1.447.415.62.622 1.377.622 2.203 0 .827-.207 1.516-.622 2.135a4.545 4.545 0 0 1-1.587 1.447c-.69.344-1.45.482-2.348.482-.828 0-1.656-.138-2.347-.482-.69-.345-1.242-.827-1.587-1.447-.415-.62-.553-1.308-.553-2.135 0-.826.138-1.584.553-2.203Zm2.347 3.236c.138.276.414.552.69.69.276.137.552.206.897.206.346 0 .622-.07.898-.207.276-.137.483-.413.69-.689.138-.275.276-.62.276-1.033 0-.413-.069-.757-.276-1.033a1.662 1.662 0 0 0-.69-.688 2.13 2.13 0 0 0-.898-.207c-.345 0-.62.069-.897.207-.276.137-.483.413-.69.688-.138.276-.276.62-.276 1.033 0 .414.138.758.276 1.034ZM108.728 7.405v12.052h-2.9V7.405h2.9Zm-1.036 0h2.347c1.036 0 1.864.137 2.554.482.691.344 1.243.757 1.588 1.377.345.551.552 1.309.552 2.135 0 .827-.207 1.515-.552 2.066-.345.62-.897 1.033-1.588 1.378-.69.344-1.587.482-2.554.482h-2.347v-2.41h2.347c.552 0 1.036-.139 1.381-.414.345-.275.483-.62.483-1.102 0-.482-.138-.895-.483-1.17-.345-.276-.76-.414-1.381-.414h-2.347v-2.41ZM119.497 7.405v12.052h-2.899V7.405h2.899Zm-1.104 0h2.554c1.035 0 1.864.137 2.554.482.69.344 1.243.826 1.588 1.377.345.62.552 1.309.552 2.066 0 .758-.207 1.446-.552 2.066-.345.62-.898 1.033-1.588 1.378-.69.344-1.519.482-2.554.482h-2.554v-2.273h2.347c.414 0 .759-.069 1.035-.207.276-.137.483-.275.621-.55.139-.207.208-.552.208-.827 0-.344-.069-.62-.208-.826a1.629 1.629 0 0 0-.621-.551c-.276-.138-.621-.207-1.035-.207h-2.347v-2.41Zm4.211 6.542 3.796 5.441h-3.382l-3.383-5.44h2.969ZM127.505 10.848c.345-.758.759-1.446 1.38-1.997.553-.551 1.243-.964 2.071-1.309.76-.275 1.657-.482 2.555-.482.897 0 1.795.138 2.554.482.759.276 1.45.758 2.071 1.309a6.901 6.901 0 0 1 1.381 1.997c.345.758.483 1.584.483 2.548 0 .896-.138 1.79-.483 2.548-.346.758-.76 1.447-1.312 1.998-.552.55-1.243 1.033-2.071 1.308-.759.345-1.657.482-2.623.482-.967 0-1.795-.137-2.624-.482-.759-.344-1.449-.757-2.071-1.308-.621-.551-1.035-1.24-1.311-1.998-.345-.757-.484-1.652-.484-2.548 0-.964.208-1.79.484-2.548Zm3.037 4.408c.276.55.691.964 1.174 1.308a3.649 3.649 0 0 0 1.795.482c.69 0 1.242-.137 1.795-.482.483-.275.897-.757 1.173-1.308s.414-1.171.414-1.86c0-.688-.138-1.308-.414-1.86-.276-.55-.69-.963-1.173-1.308a3.655 3.655 0 0 0-1.795-.482c-.691 0-1.312.138-1.795.482-.483.276-.898.758-1.174 1.309-.276.55-.414 1.17-.414 1.86 0 .688.138 1.308.414 1.859Z" fill="currentColor"/></g><defs><linearGradient id="b" x1="19.042" y1="6.752" x2="31.126" y2="6.752" gradientUnits="userSpaceOnUse"><stop offset=".101" stop-color="#B2EA20"/><stop offset=".39" stop-color="#AFE71D"/><stop offset=".643" stop-color="#A4DE16"/><stop offset=".88" stop-color="#92CF09"/><stop offset="1" stop-color="#86C500"/></linearGradient><linearGradient id="c" x1="21.077" y1="6.518" x2="21.681" y2="23.855" gradientUnits="userSpaceOnUse"><stop offset=".101" stop-color="#00D0EC"/><stop offset=".261" stop-color="#04CBEC"/><stop offset=".44" stop-color="#0FBEEE"/><stop offset=".628" stop-color="#22A8F0"/><stop offset=".822" stop-color="#3C88F3"/><stop offset="1" stop-color="#5A65F7"/></linearGradient><linearGradient id="d" x1="14.064" y1="9.917" x2="14.617" y2="25.81" gradientUnits="userSpaceOnUse"><stop offset=".101" stop-color="#B2EA20"/><stop offset=".39" stop-color="#AFE71D"/><stop offset=".643" stop-color="#A4DE16"/><stop offset=".88" stop-color="#92CF09"/><stop offset="1" stop-color="#86C500"/></linearGradient><clipPath id="a"><path fill="#fff" transform="translate(0 .724)" d="M0 0h140v25H0z"/></clipPath></defs></svg>