<svg xmlns="http://www.w3.org/2000/svg"><style>:root svg:not(:target){display:none}</style><svg fill="none" id="bg-main-desktop-bottom-dark" viewBox="0 0 410 164"><path fill-rule="evenodd" clip-rule="evenodd" d="M328 0v82h82c0-45.241-36.476-82-82-82ZM410 164V82h-82c0 45.241 36.476 82 82 82ZM246 0v82h82c0-45.241-36.476-82-82-82ZM246 82v82h82c0-45.241-36.476-82-82-82ZM246 164V82h-82c0 45.241 36.476 82 82 82ZM246 0h-82v82c45.241 0 82-36.476 82-82ZM164 0H82v82c45.241 0 82-36.476 82-82ZM164 164V82H82c0 45.241 36.476 82 82 82ZM82 164V82H0c0 45.241 36.476 82 82 82ZM82 0H0v82c45.241 0 82-36.476 82-82Z" fill="#2C2E33"></path></svg><svg fill="none" id="bg-main-desktop-bottom-light" viewBox="0 0 410 164"><path fill-rule="evenodd" clip-rule="evenodd" d="M328 0v82h82c0-45.241-36.476-82-82-82ZM410 164V82h-82c0 45.241 36.476 82 82 82ZM246 0v82h82c0-45.241-36.476-82-82-82ZM246 82v82h82c0-45.241-36.476-82-82-82ZM246 164V82h-82c0 45.241 36.476 82 82 82ZM246 0h-82v82c45.241 0 82-36.476 82-82ZM164 0H82v82c45.241 0 82-36.476 82-82ZM164 164V82H82c0 45.241 36.476 82 82 82ZM82 164V82H0c0 45.241 36.476 82 82 82ZM82 0H0v82c45.241 0 82-36.476 82-82Z" fill="#E9EFFF"></path></svg><svg fill="none" id="bg-main-desktop-middle-dark" viewBox="0 0 410 492"><path fill-rule="evenodd" clip-rule="evenodd" d="M328 246v82h82c0-45.241-36.476-82-82-82ZM328 0v82h82c0-45.241-36.476-82-82-82ZM328 82v82h82c0-45.241-36.476-82-82-82ZM328 328v82h82c0-45.241-36.476-82-82-82ZM410 164h-82v82c45.241 0 82-36.476 82-82ZM410 410h-82v82c45.241 0 82-36.476 82-82ZM246 246v82h82c0-45.241-36.476-82-82-82ZM246 0v82h82c0-45.241-36.476-82-82-82ZM246 82v82h82c0-45.241-36.476-82-82-82ZM246 328v82h82c0-45.241-36.476-82-82-82ZM246 164v82h82c0-45.241-36.476-82-82-82ZM246 410v82h82c0-45.241-36.476-82-82-82ZM246 246v-82h-82c0 45.241 36.476 82 82 82ZM246 492v-82h-82c0 45.241 36.476 82 82 82ZM246 82h-82v82c45.241 0 82-36.476 82-82ZM246 328h-82v82c45.241 0 82-36.476 82-82ZM164 82H82v82c45.241 0 82-36.476 82-82ZM164 328H82v82c45.241 0 82-36.476 82-82ZM164 246v-82H82c0 45.241 36.476 82 82 82ZM164 492v-82H82c0 45.241 36.476 82 82 82ZM82 246v-82H0c0 45.241 36.476 82 82 82ZM82 492v-82H0c0 45.241 36.476 82 82 82ZM82 82H0v82c45.241 0 82-36.476 82-82ZM82 328H0v82c45.241 0 82-36.476 82-82ZM0 328h82v-82c-45.241 0-82 36.476-82 82ZM0 82h82V0C36.759 0 0 36.476 0 82ZM82 328h82v-82c-45.241 0-82 36.476-82 82ZM82 82h82V0c-45.241 0-82 36.476-82 82ZM164 246v82h82c0-45.241-36.476-82-82-82ZM164 0v82h82c0-45.241-36.476-82-82-82Z" fill="#2C2E33"></path></svg><svg fill="none" id="bg-main-desktop-middle-light" viewBox="0 0 410 492"><path fill-rule="evenodd" clip-rule="evenodd" d="M328 246v82h82c0-45.241-36.476-82-82-82ZM328 0v82h82c0-45.241-36.476-82-82-82ZM328 82v82h82c0-45.241-36.476-82-82-82ZM328 328v82h82c0-45.241-36.476-82-82-82ZM410 164h-82v82c45.241 0 82-36.476 82-82ZM410 410h-82v82c45.241 0 82-36.476 82-82ZM246 246v82h82c0-45.241-36.476-82-82-82ZM246 0v82h82c0-45.241-36.476-82-82-82ZM246 82v82h82c0-45.241-36.476-82-82-82ZM246 328v82h82c0-45.241-36.476-82-82-82ZM246 164v82h82c0-45.241-36.476-82-82-82ZM246 410v82h82c0-45.241-36.476-82-82-82ZM246 246v-82h-82c0 45.241 36.476 82 82 82ZM246 492v-82h-82c0 45.241 36.476 82 82 82ZM246 82h-82v82c45.241 0 82-36.476 82-82ZM246 328h-82v82c45.241 0 82-36.476 82-82ZM164 82H82v82c45.241 0 82-36.476 82-82ZM164 328H82v82c45.241 0 82-36.476 82-82ZM164 246v-82H82c0 45.241 36.476 82 82 82ZM164 492v-82H82c0 45.241 36.476 82 82 82ZM82 246v-82H0c0 45.241 36.476 82 82 82ZM82 492v-82H0c0 45.241 36.476 82 82 82ZM82 82H0v82c45.241 0 82-36.476 82-82ZM82 328H0v82c45.241 0 82-36.476 82-82ZM0 328h82v-82c-45.241 0-82 36.476-82 82ZM0 82h82V0C36.759 0 0 36.476 0 82ZM82 328h82v-82c-45.241 0-82 36.476-82 82ZM82 82h82V0c-45.241 0-82 36.476-82 82ZM164 246v82h82c0-45.241-36.476-82-82-82ZM164 0v82h82c0-45.241-36.476-82-82-82Z" fill="#E9EFFF"></path></svg><svg fill="none" id="bg-main-desktop-top-dark" viewBox="0 0 820 328"><path fill-rule="evenodd" clip-rule="evenodd" d="M738 246v82h82c0-45.241-36.476-82-82-82ZM738 0v82h82c0-45.241-36.476-82-82-82ZM738 82v82h82c0-45.241-36.476-82-82-82ZM820 164h-82v82c45.241 0 82-36.476 82-82ZM656 246v82h82c0-45.241-36.476-82-82-82ZM656 0v82h82c0-45.241-36.476-82-82-82ZM656 82v82h82c0-45.241-36.476-82-82-82ZM656 164v82h82c0-45.241-36.476-82-82-82ZM656 246v-82h-82c0 45.241 36.476 82 82 82ZM656 82h-82v82c45.241 0 82-36.476 82-82ZM574 82h-82v82c45.241 0 82-36.476 82-82ZM574 246v-82h-82c0 45.241 36.476 82 82 82ZM492 246v-82h-82c0 45.241 36.476 82 82 82ZM492 82h-82v82c45.241 0 82-36.476 82-82ZM410 328h82v-82c-45.241 0-82 36.476-82 82ZM492 82V0h-82c0 45.241 36.476 82 82 82ZM492 328h82v-82c-45.241 0-82 36.476-82 82ZM574 0h-82v82c45.241 0 82-36.476 82-82ZM574 246v82h82c0-45.241-36.476-82-82-82ZM656 0h-82v82c45.241 0 82-36.476 82-82ZM328 246v82h82c0-45.241-36.476-82-82-82ZM328 0v82h82c0-45.241-36.476-82-82-82ZM328 82v82h82c0-45.241-36.476-82-82-82ZM410 164h-82v82c45.241 0 82-36.476 82-82ZM246 246v82h82c0-45.241-36.476-82-82-82ZM246 0v82h82c0-45.241-36.476-82-82-82ZM246 82v82h82c0-45.241-36.476-82-82-82ZM246 164v82h82c0-45.241-36.476-82-82-82ZM246 246v-82h-82c0 45.241 36.476 82 82 82ZM246 82h-82v82c45.241 0 82-36.476 82-82ZM164 82H82v82c45.241 0 82-36.476 82-82ZM164 246v-82H82c0 45.241 36.476 82 82 82ZM82 246v-82H0c0 45.241 36.476 82 82 82ZM82 82H0v82c45.241 0 82-36.476 82-82ZM0 328h82v-82c-45.241 0-82 36.476-82 82ZM0 82h82V0C36.759 0 0 36.476 0 82ZM82 328h82v-82c-45.241 0-82 36.476-82 82ZM246 82V0h-82c0 45.241 36.476 82 82 82ZM164 246v82h82c0-45.241-36.476-82-82-82ZM164 82V0H82c0 45.241 36.476 82 82 82Z" fill="#2C2E33"></path></svg><svg fill="none" id="bg-main-desktop-top-light" viewBox="0 0 820 328"><path fill-rule="evenodd" clip-rule="evenodd" d="M738 246v82h82c0-45.241-36.476-82-82-82ZM738 0v82h82c0-45.241-36.476-82-82-82ZM738 82v82h82c0-45.241-36.476-82-82-82ZM820 164h-82v82c45.241 0 82-36.476 82-82ZM656 246v82h82c0-45.241-36.476-82-82-82ZM656 0v82h82c0-45.241-36.476-82-82-82ZM656 82v82h82c0-45.241-36.476-82-82-82ZM656 164v82h82c0-45.241-36.476-82-82-82ZM656 246v-82h-82c0 45.241 36.476 82 82 82ZM656 82h-82v82c45.241 0 82-36.476 82-82ZM574 82h-82v82c45.241 0 82-36.476 82-82ZM574 246v-82h-82c0 45.241 36.476 82 82 82ZM492 246v-82h-82c0 45.241 36.476 82 82 82ZM492 82h-82v82c45.241 0 82-36.476 82-82ZM410 328h82v-82c-45.241 0-82 36.476-82 82ZM492 82V0h-82c0 45.241 36.476 82 82 82ZM492 328h82v-82c-45.241 0-82 36.476-82 82ZM574 0h-82v82c45.241 0 82-36.476 82-82ZM574 246v82h82c0-45.241-36.476-82-82-82ZM656 0h-82v82c45.241 0 82-36.476 82-82ZM328 246v82h82c0-45.241-36.476-82-82-82ZM328 0v82h82c0-45.241-36.476-82-82-82ZM328 82v82h82c0-45.241-36.476-82-82-82ZM410 164h-82v82c45.241 0 82-36.476 82-82ZM246 246v82h82c0-45.241-36.476-82-82-82ZM246 0v82h82c0-45.241-36.476-82-82-82ZM246 82v82h82c0-45.241-36.476-82-82-82ZM246 164v82h82c0-45.241-36.476-82-82-82ZM246 246v-82h-82c0 45.241 36.476 82 82 82ZM246 82h-82v82c45.241 0 82-36.476 82-82ZM164 82H82v82c45.241 0 82-36.476 82-82ZM164 246v-82H82c0 45.241 36.476 82 82 82ZM82 246v-82H0c0 45.241 36.476 82 82 82ZM82 82H0v82c45.241 0 82-36.476 82-82ZM0 328h82v-82c-45.241 0-82 36.476-82 82ZM0 82h82V0C36.759 0 0 36.476 0 82ZM82 328h82v-82c-45.241 0-82 36.476-82 82ZM246 82V0h-82c0 45.241 36.476 82 82 82ZM164 246v82h82c0-45.241-36.476-82-82-82ZM164 82V0H82c0 45.241 36.476 82 82 82Z" fill="#E9EFFF"></path></svg><svg fill="none" id="bg-main-mobile-dark" viewBox="0 0 287 512"><path fill-rule="evenodd" clip-rule="evenodd" d="M172.502 281.648h57.5v-57.467c-31.724 0-57.5 25.563-57.5 57.467ZM57.502 281.648h57.5v-57.467c-31.724 0-57.5 25.563-57.5 57.467Z" fill="#2C2E33"></path><path fill-rule="evenodd" clip-rule="evenodd" d="M115.002 224.18v57.468h57.5c0-31.706-25.578-57.468-57.5-57.468ZM.002 224.18v57.468h57.5c0-31.706-25.578-57.468-57.5-57.468ZM172.502 339.114h57.5v-57.467c-31.724 0-57.5 25.563-57.5 57.467Z" fill="#2C2E33"></path><path fill-rule="evenodd" clip-rule="evenodd" d="M57.502 339.114h57.5v-57.467c-31.724 0-57.5 25.563-57.5 57.467Z" fill="#2C2E33"></path><path fill-rule="evenodd" clip-rule="evenodd" d="M115.002 339.114h57.5v-57.467c-31.724 0-57.5 25.563-57.5 57.467ZM172.502 339.114h-57.5v57.467c31.724 0 57.5-25.563 57.5-57.467ZM57.502 339.114v-57.467H.002c0 31.706 25.578 57.467 57.5 57.467ZM57.502 339.114v57.467h57.5c0-31.706-25.578-57.467-57.5-57.467ZM57.502 396.582v57.467h57.5c0-31.706-25.578-57.467-57.5-57.467ZM.002 339.114v57.467h57.5c0-31.706-25.578-57.467-57.5-57.467ZM172.502 396.582h-57.5v57.467c31.724 0 57.5-25.563 57.5-57.467Z" fill="#2C2E33"></path><path fill-rule="evenodd" clip-rule="evenodd" d="M172.502 454.048h-57.5v57.467c31.724 0 57.5-25.562 57.5-57.467ZM57.502 454.048v57.467h57.5c0-31.706-25.578-57.467-57.5-57.467ZM.002 454.048v57.467h57.5c0-31.706-25.578-57.467-57.5-57.467ZM230.002 511.516v-57.467h-57.5c0 31.706 25.578 57.467 57.5 57.467ZM.002 454.048h57.5v-57.467c-31.724 0-57.5 25.563-57.5 57.467ZM230.002 454.048v-57.467h-57.5c0 31.706 25.578 57.467 57.5 57.467Z" fill="#2C2E33"></path><path fill-rule="evenodd" clip-rule="evenodd" d="M172.502 396.582h57.5v-57.467c-31.724 0-57.5 25.563-57.5 57.467ZM57.197 57.23V0H.001c0 31.575 25.442 57.23 57.196 57.23ZM57.197 171.688v-57.229H.001c0 31.574 25.442 57.229 57.196 57.229Z" fill="#2C2E33"></path><path fill-rule="evenodd" clip-rule="evenodd" d="M.002 114.459h57.197v-57.23C25.642 57.23.002 82.688.002 114.46ZM.002 228.917h57.197v-57.229c-31.557 0-57.197 25.457-57.197 57.229ZM114.395 57.23V0H57.198c0 31.576 25.443 57.23 57.197 57.23Z" fill="#2C2E33"></path><path fill-rule="evenodd" clip-rule="evenodd" d="M114.395 171.688v-57.229H57.198c0 31.574 25.443 57.229 57.197 57.229Z" fill="#2C2E33"></path><path fill-rule="evenodd" clip-rule="evenodd" d="M114.395 114.459v-57.23H57.198c0 31.575 25.443 57.23 57.197 57.23Z" fill="#2C2E33"></path><path fill-rule="evenodd" clip-rule="evenodd" d="M114.395 57.23v57.229h57.196c0-31.575-25.442-57.229-57.196-57.229ZM114.395 171.688H57.198v57.229c31.557 0 57.197-25.457 57.197-57.229Z" fill="#2C2E33"></path><path fill-rule="evenodd" clip-rule="evenodd" d="M114.395 171.688h57.196v-57.229c-31.557 0-57.196 25.457-57.196 57.229ZM171.592 171.688h57.197v-57.229c-31.557 0-57.197 25.457-57.197 57.229ZM114.395 228.917h57.196v-57.229c-31.557 0-57.196 25.457-57.196 57.229Z" fill="#2C2E33"></path><path fill-rule="evenodd" clip-rule="evenodd" d="M171.592 57.23v57.229h57.196c.001-31.575-25.442-57.229-57.196-57.229ZM228.789 57.23v57.229h57.197c0-31.575-25.443-57.229-57.197-57.229Z" fill="#2C2E33"></path><path fill-rule="evenodd" clip-rule="evenodd" d="M228.789 171.688h57.197v-57.229c-31.557 0-57.197 25.457-57.197 57.229ZM228.789 228.917h57.197v-57.229c-31.557 0-57.197 25.457-57.197 57.229ZM228.773.016v57.197h57.23c0-31.557-25.457-57.197-57.23-57.197ZM228.789 228.917v-57.229h-57.197c0 31.575 25.443 57.229 57.197 57.229Z" fill="#2C2E33"></path><path fill-rule="evenodd" clip-rule="evenodd" d="M228.789 0h-57.197v57.23c31.557 0 57.197-25.458 57.197-57.23Z" fill="#2C2E33"></path><path fill-rule="evenodd" clip-rule="evenodd" d="M171.592 57.23V0h-57.197c0 31.576 25.443 57.23 57.197 57.23Z" fill="#2C2E33"></path></svg><svg fill="none" id="bg-main-mobile-light" viewBox="0 0 286 512"><path fill-rule="evenodd" clip-rule="evenodd" d="M172.5 281.857H230V224.39c-31.724 0-57.5 25.563-57.5 57.467ZM57.5 281.857H115V224.39c-31.724 0-57.5 25.563-57.5 57.467ZM115 224.389v57.468h57.5c0-31.706-25.578-57.468-57.5-57.468ZM0 224.389v57.468h57.5c0-31.706-25.578-57.468-57.5-57.468Z" fill="#E9EFFF"></path><path fill-rule="evenodd" clip-rule="evenodd" d="M172.5 339.323H230v-57.467c-31.724 0-57.5 25.563-57.5 57.467ZM57.5 339.323H115v-57.467c-31.724 0-57.5 25.563-57.5 57.467ZM115 339.323h57.5v-57.467c-31.724 0-57.5 25.563-57.5 57.467ZM172.5 339.323H115v57.467c31.724 0 57.5-25.563 57.5-57.467ZM57.5 339.323v-57.467H0c0 31.706 25.578 57.467 57.5 57.467ZM57.5 339.323v57.467H115c0-31.706-25.578-57.467-57.5-57.467ZM57.5 396.791v57.467H115c0-31.706-25.578-57.467-57.5-57.467ZM0 339.323v57.467h57.5c0-31.706-25.578-57.467-57.5-57.467ZM172.5 396.791H115v57.467c31.724 0 57.5-25.563 57.5-57.467Z" fill="#E9EFFF"></path><path fill-rule="evenodd" clip-rule="evenodd" d="M172.5 454.257H115v57.467c31.724 0 57.5-25.563 57.5-57.467ZM57.5 454.257v57.467H115c0-31.706-25.578-57.467-57.5-57.467ZM0 454.257v57.467h57.5c0-31.706-25.578-57.467-57.5-57.467Z" fill="#E9EFFF"></path><path fill-rule="evenodd" clip-rule="evenodd" d="M229.999 511.725v-57.467h-57.5c0 31.706 25.578 57.467 57.5 57.467ZM0 454.257h57.5V396.79c-31.724 0-57.5 25.563-57.5 57.467ZM229.999 454.257V396.79h-57.5c0 31.706 25.578 57.467 57.5 57.467Z" fill="#E9EFFF"></path><path fill-rule="evenodd" clip-rule="evenodd" d="M172.5 396.791H230v-57.467c-31.724 0-57.5 25.563-57.5 57.467ZM57.196 57.439V.209H0c0 31.575 25.442 57.23 57.196 57.23ZM57.196 171.897v-57.229H0c0 31.574 25.442 57.229 57.196 57.229Z" fill="#E9EFFF"></path><path fill-rule="evenodd" clip-rule="evenodd" d="M0 114.668h57.197v-57.23C25.64 57.438 0 82.897 0 114.668ZM0 229.126h57.197v-57.229C25.64 171.897 0 197.354 0 229.126ZM114.393 57.439V.209H57.196c0 31.576 25.442 57.23 57.197 57.23Z" fill="#E9EFFF"></path><path fill-rule="evenodd" clip-rule="evenodd" d="M114.393 171.897v-57.229H57.196c0 31.574 25.442 57.229 57.197 57.229Z" fill="#E9EFFF"></path><path fill-rule="evenodd" clip-rule="evenodd" d="M114.393 114.668v-57.23H57.196c0 31.575 25.442 57.23 57.197 57.23ZM114.393 57.439v57.229h57.196c0-31.575-25.442-57.229-57.196-57.229ZM114.393 171.897H57.196v57.229c31.557 0 57.197-25.457 57.197-57.229Z" fill="#E9EFFF"></path><path fill-rule="evenodd" clip-rule="evenodd" d="M114.393 171.897h57.196v-57.229c-31.557 0-57.196 25.457-57.196 57.229ZM171.59 171.897h57.197v-57.229c-31.557 0-57.197 25.457-57.197 57.229ZM114.393 229.126h57.196v-57.229c-31.557 0-57.196 25.457-57.196 57.229Z" fill="#E9EFFF"></path><path fill-rule="evenodd" clip-rule="evenodd" d="M171.59 57.439v57.229h57.197c0-31.575-25.443-57.229-57.197-57.229ZM228.787 57.439v57.229h57.197c0-31.575-25.443-57.229-57.197-57.229Z" fill="#E9EFFF"></path><path fill-rule="evenodd" clip-rule="evenodd" d="M228.787 171.897h57.197v-57.229c-31.557 0-57.197 25.457-57.197 57.229ZM228.787 229.126h57.197v-57.229c-31.557 0-57.197 25.457-57.197 57.229ZM228.771.225v57.197h57.23c0-31.557-25.457-57.197-57.23-57.197ZM228.787 229.126v-57.229H171.59c0 31.575 25.443 57.229 57.197 57.229Z" fill="#E9EFFF"></path><path fill-rule="evenodd" clip-rule="evenodd" d="M228.787.209H171.59v57.23c31.557 0 57.197-25.458 57.197-57.23ZM171.59 57.439V.209h-57.197c0 31.576 25.443 57.23 57.197 57.23Z" fill="#E9EFFF"></path></svg><svg fill="none" id="icon-copy" viewBox="0 0 16 15"><path d="M8.654 14.222c.397 0 .717-.165 1.102-.538l5.846-5.687c.287-.281.398-.607.398-.886 0-.29-.103-.603-.397-.89L9.756.577C9.33.167 9.058 0 8.666 0 8.085 0 7.66.471 7.66 1.054v2.743h-.184C2.354 3.797 0 7.205 0 12.763c0 .934.391 1.428.902 1.428.378 0 .743-.12 1.03-.674 1.167-2.26 2.83-3.073 5.544-3.073h.184V13.2c0 .582.425 1.021.994 1.021Z" fill="#327AF0"></path></svg><svg fill="none" id="icon-error" viewBox="0 0 28 28"><path d="M14.105 26.21c6.632 0 12.107-5.483 12.107-12.105C26.212 7.473 20.727 2 14.095 2 7.475 2 2 7.473 2 14.105 2 20.727 7.485 26.21 14.105 26.21Zm0-2.384a9.68 9.68 0 0 1-9.71-9.721 9.671 9.671 0 0 1 9.7-9.72 9.698 9.698 0 0 1 9.733 9.72 9.69 9.69 0 0 1-9.723 9.72Z" fill="#FF5353"></path><path d="M14.098 16.054c.624 0 .997-.354 1.015-1.031l.182-5.7c.022-.68-.497-1.172-1.209-1.172-.721 0-1.222.482-1.2 1.162l.164 5.714c.02.663.392 1.027 1.048 1.027Zm0 3.882c.742 0 1.361-.545 1.361-1.284 0-.736-.61-1.286-1.361-1.286-.761 0-1.373.557-1.373 1.286 0 .73.623 1.284 1.373 1.284Z" fill="#FF5353"></path></svg><svg fill="none" id="icon-eyes" viewBox="0 0 28 25"><path opacity=".3" d="M13.569 16.267c.931 0 1.825-.374 2.483-1.04a3.568 3.568 0 0 0 1.016-2.818l-3.805 3.845c.1.008.202.013.306.013ZM25.196 1.74 23.856.388a.25.25 0 0 0-.354 0l-3.43 3.465c-1.89-.977-4.017-1.465-6.378-1.465-6.028 0-10.526 3.172-13.493 9.516a1.927 1.927 0 0 0 0 1.632c1.185 2.523 2.613 4.545 4.283 6.066l-3.319 3.351a.255.255 0 0 0 0 .359l1.34 1.353a.25.25 0 0 0 .354 0L25.196 2.099a.253.253 0 0 0 .055-.277.253.253 0 0 0-.055-.082ZM8.048 12.718c0-.963.247-1.91.717-2.748a5.551 5.551 0 0 1 1.964-2.035 5.48 5.48 0 0 1 5.44-.137l-1.526 1.54a3.481 3.481 0 0 0-1.9-.069 3.506 3.506 0 0 0-1.658.94 3.562 3.562 0 0 0-.93 1.675 3.587 3.587 0 0 0 .068 1.92l-1.525 1.54a5.594 5.594 0 0 1-.65-2.626Z" fill="#444"></path><path opacity=".3" d="M27.697 12.058c-1.128-2.305-2.47-4.184-4.026-5.638L19.054 10.9c.39.988.476 2.063.248 3.097a5.429 5.429 0 0 1-1.528 2.73 5.692 5.692 0 0 1-2.812 1.483 5.8 5.8 0 0 1-3.19-.241l-3.917 3.8c1.817.816 3.838 1.224 6.062 1.224 6.156 0 10.75-3.112 13.78-9.335a1.829 1.829 0 0 0 0-1.601Z" fill="#444"></path></svg><svg fill="none" id="icon-scroll-arrow" viewBox="0 0 54 17"><path d="M53 2 27 15 1 2" stroke="url(#icon-scroll-arrow_0)" stroke-width="3"></path><defs><linearGradient id="icon-scroll-arrow_0" x1="53" y1="8.5" x2="1" y2="8.5" gradientUnits="userSpaceOnUse"><stop stop-color="#60E1F3"></stop><stop offset="1" stop-color="#4E72F6"></stop></linearGradient></defs></svg><svg fill="none" id="icon-sign" viewBox="0 0 15 14"><path d="M1.53 14C.571 14 0 13.523 0 12.647v-1.061c0-.857.571-1.349 1.53-1.349h11.94c.958 0 1.53.492 1.53 1.349v1.06c0 .877-.572 1.354-1.53 1.354H1.53Zm-.338-6.012c-.697 0-1.062-.355-1.1-.926-.011-.266.13-.551.395-.787L6.38.53C6.72.215 7.08 0 7.5 0c.418 0 .766.181 1.119.53l5.88 5.745c.254.247.407.521.407.787 0 .571-.427.926-1.111.926H1.192Z" fill="#327AF0"></path></svg><svg fill="none" id="icon-slide-arrow-abcd" viewBox="0 0 13 20"><path d="m11 18-8-8 8-8" stroke="url(#icon-slide-arrow-abcd_0)" stroke-width="3"></path><defs><linearGradient id="icon-slide-arrow-abcd_0" x1="11" y1="-1" x2="3" y2="25" gradientUnits="userSpaceOnUse"><stop stop-color="#60E1F3"></stop><stop offset="1" stop-color="#4E72F6"></stop></linearGradient></defs></svg><svg fill="none" id="icon-slide-arrow-bca" viewBox="0 0 13 20"><path d="m11 18-8-8 8-8" stroke="url(#icon-slide-arrow-bca_0)" stroke-width="3"></path><defs><linearGradient id="icon-slide-arrow-bca_0" x1="11" y1="-1" x2="2.517" y2="15.726" gradientUnits="userSpaceOnUse"><stop stop-color="#B2EA20"></stop><stop offset="1" stop-color="#14C1ED"></stop></linearGradient></defs></svg><svg fill="none" id="icon-tooltip" viewBox="0 0 15 13"><path d="M5.768 1c.77-1.333 2.694-1.333 3.464 0l4.763 8.25c.77 1.333-.192 3-1.732 3H2.737c-1.54 0-2.502-1.667-1.732-3L5.768 1Z" fill="#e9efff"></path></svg></svg>